<svg width="33" height="10" viewBox="0 0 33 10" fill="none" xmlns="http://www.w3.org/2000/svg">
<path d="M8.07955 3H7.02273C6.96023 2.69602 6.85085 2.42898 6.6946 2.19886C6.54119 1.96875 6.35369 1.77557 6.1321 1.61932C5.91335 1.46023 5.67045 1.34091 5.40341 1.26136C5.13636 1.18182 4.85795 1.14205 4.56818 1.14205C4.03977 1.14205 3.56108 1.27557 3.1321 1.54261C2.70597 1.80966 2.36648 2.20312 2.11364 2.72301C1.86364 3.2429 1.73864 3.88068 1.73864 4.63636C1.73864 5.39205 1.86364 6.02983 2.11364 6.54972C2.36648 7.0696 2.70597 7.46307 3.1321 7.73011C3.56108 7.99716 4.03977 8.13068 4.56818 8.13068C4.85795 8.13068 5.13636 8.09091 5.40341 8.01136C5.67045 7.93182 5.91335 7.81392 6.1321 7.65767C6.35369 7.49858 6.54119 7.30398 6.6946 7.07386C6.85085 6.84091 6.96023 6.57386 7.02273 6.27273H8.07955C8 6.71875 7.85511 7.1179 7.64489 7.47017C7.43466 7.82244 7.1733 8.12216 6.8608 8.36932C6.5483 8.61364 6.19744 8.79972 5.80824 8.92756C5.42188 9.0554 5.00852 9.11932 4.56818 9.11932C3.82386 9.11932 3.16193 8.9375 2.58239 8.57386C2.00284 8.21023 1.54688 7.69318 1.21449 7.02273C0.882102 6.35227 0.715909 5.55682 0.715909 4.63636C0.715909 3.71591 0.882102 2.92045 1.21449 2.25C1.54688 1.57955 2.00284 1.0625 2.58239 0.698864C3.16193 0.335227 3.82386 0.153409 4.56818 0.153409C5.00852 0.153409 5.42188 0.217329 5.80824 0.34517C6.19744 0.473011 6.5483 0.660511 6.8608 0.90767C7.1733 1.15199 7.43466 1.45028 7.64489 1.80256C7.85511 2.15199 8 2.55114 8.07955 3ZM10.6566 0.272727V9H9.65092V0.272727H10.6566ZM12.4986 9V2.45455H13.5043V9H12.4986ZM13.0099 1.36364C12.8139 1.36364 12.6449 1.29688 12.5028 1.16335C12.3636 1.02983 12.294 0.869318 12.294 0.681818C12.294 0.494318 12.3636 0.333807 12.5028 0.200284C12.6449 0.0667613 12.8139 0 13.0099 0C13.206 0 13.3736 0.0667613 13.5128 0.200284C13.6548 0.333807 13.7259 0.494318 13.7259 0.681818C13.7259 0.869318 13.6548 1.02983 13.5128 1.16335C13.3736 1.29688 13.206 1.36364 13.0099 1.36364ZM18.0906 9.13636C17.4599 9.13636 16.9158 8.99716 16.4585 8.71875C16.0039 8.4375 15.6531 8.04545 15.4059 7.54261C15.1616 7.03693 15.0394 6.44886 15.0394 5.77841C15.0394 5.10795 15.1616 4.51705 15.4059 4.00568C15.6531 3.49148 15.9968 3.09091 16.4371 2.80398C16.8803 2.5142 17.3974 2.36932 17.9883 2.36932C18.3292 2.36932 18.6658 2.42614 18.9982 2.53977C19.3306 2.65341 19.6332 2.83807 19.9059 3.09375C20.1786 3.34659 20.396 3.68182 20.5579 4.09943C20.7198 4.51705 20.8008 5.03125 20.8008 5.64205V6.06818H15.7553V5.19886H19.7781C19.7781 4.82955 19.7042 4.5 19.5565 4.21023C19.4116 3.92045 19.2042 3.69176 18.9343 3.52415C18.6673 3.35653 18.3519 3.27273 17.9883 3.27273C17.5877 3.27273 17.2411 3.37216 16.9485 3.57102C16.6587 3.76705 16.4357 4.02273 16.2795 4.33807C16.1232 4.65341 16.0451 4.99148 16.0451 5.35227V5.93182C16.0451 6.42614 16.1303 6.84517 16.3008 7.18892C16.4741 7.52983 16.7141 7.78977 17.021 7.96875C17.3278 8.14489 17.6843 8.23295 18.0906 8.23295C18.3548 8.23295 18.5934 8.19602 18.8065 8.12216C19.0224 8.04545 19.2085 7.93182 19.3647 7.78125C19.521 7.62784 19.6417 7.4375 19.7269 7.21023L20.6985 7.48295C20.5962 7.8125 20.4244 8.10227 20.1829 8.35227C19.9414 8.59943 19.6431 8.79261 19.288 8.93182C18.9329 9.06818 18.5337 9.13636 18.0906 9.13636ZM23.3363 5.0625V9H22.3306V2.45455H23.3022V3.47727H23.3874C23.5408 3.14489 23.7738 2.87784 24.0863 2.67614C24.3988 2.47159 24.8022 2.36932 25.2965 2.36932C25.7397 2.36932 26.1275 2.46023 26.4599 2.64205C26.7923 2.82102 27.0508 3.09375 27.2354 3.46023C27.4201 3.82386 27.5124 4.28409 27.5124 4.84091V9H26.5067V4.90909C26.5067 4.39489 26.3732 3.99432 26.1062 3.70739C25.8391 3.41761 25.4727 3.27273 25.0067 3.27273C24.6857 3.27273 24.3988 3.34233 24.146 3.48153C23.896 3.62074 23.6985 3.82386 23.5536 4.09091C23.4087 4.35795 23.3363 4.68182 23.3363 5.0625ZM32.1967 2.45455V3.30682H28.8047V2.45455H32.1967ZM29.7933 0.886364H30.799V7.125C30.799 7.40909 30.8402 7.62216 30.9226 7.7642C31.0078 7.90341 31.1158 7.99716 31.2464 8.04545C31.38 8.09091 31.5206 8.11364 31.6683 8.11364C31.7791 8.11364 31.87 8.10795 31.9411 8.09659C32.0121 8.08239 32.0689 8.07102 32.1115 8.0625L32.3161 8.96591C32.2479 8.99148 32.1527 9.01705 32.0305 9.04261C31.9084 9.07102 31.7536 9.08523 31.5661 9.08523C31.282 9.08523 31.0036 9.02415 30.7308 8.90199C30.4609 8.77983 30.2365 8.59375 30.0575 8.34375C29.8814 8.09375 29.7933 7.77841 29.7933 7.39773V0.886364Z" fill="white"/>
</svg>
