<svg width="282" height="186" viewBox="0 0 282 186" fill="none" xmlns="http://www.w3.org/2000/svg">
<rect y="23" width="282" height="163" fill="#171717"/>
<path d="M114.423 39V30.2727H115.48V34.1591H120.133V30.2727H121.19V39H120.133V35.0966H115.48V39H114.423ZM125.096 39.1534C124.681 39.1534 124.305 39.0753 123.967 38.919C123.628 38.7599 123.36 38.5312 123.161 38.233C122.962 37.9318 122.863 37.5682 122.863 37.142C122.863 36.767 122.937 36.4631 123.084 36.2301C123.232 35.9943 123.43 35.8097 123.677 35.6761C123.924 35.5426 124.197 35.4432 124.495 35.3778C124.796 35.3097 125.099 35.2557 125.403 35.2159C125.8 35.1648 126.123 35.1264 126.37 35.1009C126.62 35.0724 126.802 35.0256 126.915 34.9602C127.032 34.8949 127.09 34.7812 127.09 34.6193V34.5852C127.09 34.1648 126.975 33.8381 126.745 33.6051C126.518 33.3722 126.173 33.2557 125.709 33.2557C125.229 33.2557 124.853 33.3608 124.58 33.571C124.307 33.7812 124.116 34.0057 124.005 34.2443L123.05 33.9034C123.221 33.5057 123.448 33.196 123.732 32.9744C124.019 32.75 124.332 32.5937 124.67 32.5057C125.011 32.4148 125.346 32.3693 125.675 32.3693C125.886 32.3693 126.127 32.3949 126.4 32.446C126.675 32.4943 126.941 32.5952 127.197 32.7486C127.455 32.902 127.67 33.1335 127.84 33.4432C128.011 33.7528 128.096 34.1676 128.096 34.6875V39H127.09V38.1136H127.039C126.971 38.2557 126.857 38.4077 126.698 38.5696C126.539 38.7315 126.327 38.8693 126.063 38.983C125.799 39.0966 125.476 39.1534 125.096 39.1534ZM125.249 38.25C125.647 38.25 125.982 38.1719 126.255 38.0156C126.53 37.8594 126.738 37.6577 126.877 37.4105C127.019 37.1634 127.09 36.9034 127.09 36.6307V35.7102C127.048 35.7614 126.954 35.8082 126.809 35.8509C126.667 35.8906 126.502 35.9261 126.315 35.9574C126.13 35.9858 125.95 36.0114 125.773 36.0341C125.6 36.054 125.459 36.071 125.351 36.0852C125.09 36.1193 124.846 36.1747 124.619 36.2514C124.394 36.3253 124.212 36.4375 124.073 36.5881C123.937 36.7358 123.869 36.9375 123.869 37.1932C123.869 37.5426 123.998 37.8068 124.256 37.9858C124.518 38.1619 124.849 38.25 125.249 38.25ZM129.931 39V32.4545H130.903V33.4432H130.971C131.09 33.1193 131.306 32.8565 131.619 32.6548C131.931 32.4531 132.284 32.3523 132.676 32.3523C132.75 32.3523 132.842 32.3537 132.953 32.3565C133.063 32.3594 133.147 32.3636 133.204 32.3693V33.392C133.17 33.3835 133.092 33.3707 132.97 33.3537C132.85 33.3338 132.724 33.3239 132.59 33.3239C132.272 33.3239 131.988 33.3906 131.738 33.5241C131.491 33.6548 131.295 33.8366 131.15 34.0696C131.008 34.2997 130.937 34.5625 130.937 34.858V39H129.931ZM136.669 39.1364C136.123 39.1364 135.642 38.9986 135.224 38.723C134.806 38.4446 134.48 38.0526 134.244 37.5469C134.008 37.0384 133.89 36.4375 133.89 35.7443C133.89 35.0568 134.008 34.4602 134.244 33.9545C134.48 33.4489 134.808 33.0582 135.228 32.7827C135.649 32.5071 136.135 32.3693 136.686 32.3693C137.112 32.3693 137.448 32.4403 137.696 32.5824C137.946 32.7216 138.136 32.8807 138.267 33.0597C138.4 33.2358 138.504 33.3807 138.578 33.4943H138.663V30.2727H139.669V39H138.697V37.9943H138.578C138.504 38.1136 138.399 38.2642 138.262 38.446C138.126 38.625 137.931 38.7855 137.679 38.9276C137.426 39.0668 137.089 39.1364 136.669 39.1364ZM136.805 38.233C137.208 38.233 137.549 38.1278 137.828 37.9176C138.106 37.7045 138.318 37.4105 138.463 37.0355C138.608 36.6577 138.68 36.2216 138.68 35.7273C138.68 35.2386 138.609 34.8111 138.467 34.4446C138.325 34.0753 138.115 33.7884 137.836 33.5838C137.558 33.3764 137.214 33.2727 136.805 33.2727C136.379 33.2727 136.024 33.3821 135.74 33.6009C135.458 33.8168 135.247 34.1108 135.105 34.483C134.965 34.8523 134.896 35.267 134.896 35.7273C134.896 36.1932 134.967 36.6165 135.109 36.9972C135.254 37.375 135.467 37.6761 135.748 37.9006C136.032 38.1222 136.385 38.233 136.805 38.233ZM143.133 39L141.139 32.4545H142.196L143.61 37.4659H143.679L145.076 32.4545H146.15L147.531 37.4489H147.599L149.014 32.4545H150.071L148.076 39H147.088L145.656 33.9716H145.554L144.122 39H143.133ZM153.326 39.1534C152.912 39.1534 152.535 39.0753 152.197 38.919C151.859 38.7599 151.59 38.5312 151.392 38.233C151.193 37.9318 151.093 37.5682 151.093 37.142C151.093 36.767 151.167 36.4631 151.315 36.2301C151.463 35.9943 151.66 35.8097 151.907 35.6761C152.154 35.5426 152.427 35.4432 152.725 35.3778C153.027 35.3097 153.329 35.2557 153.633 35.2159C154.031 35.1648 154.353 35.1264 154.6 35.1009C154.85 35.0724 155.032 35.0256 155.146 34.9602C155.262 34.8949 155.321 34.7812 155.321 34.6193V34.5852C155.321 34.1648 155.206 33.8381 154.975 33.6051C154.748 33.3722 154.403 33.2557 153.94 33.2557C153.46 33.2557 153.083 33.3608 152.811 33.571C152.538 33.7812 152.346 34.0057 152.235 34.2443L151.281 33.9034C151.451 33.5057 151.679 33.196 151.963 32.9744C152.25 32.75 152.562 32.5937 152.9 32.5057C153.241 32.4148 153.576 32.3693 153.906 32.3693C154.116 32.3693 154.358 32.3949 154.63 32.446C154.906 32.4943 155.171 32.5952 155.427 32.7486C155.686 32.902 155.9 33.1335 156.071 33.4432C156.241 33.7528 156.326 34.1676 156.326 34.6875V39H155.321V38.1136H155.269C155.201 38.2557 155.088 38.4077 154.929 38.5696C154.769 38.7315 154.558 38.8693 154.294 38.983C154.029 39.0966 153.707 39.1534 153.326 39.1534ZM153.48 38.25C153.877 38.25 154.213 38.1719 154.485 38.0156C154.761 37.8594 154.968 37.6577 155.108 37.4105C155.25 37.1634 155.321 36.9034 155.321 36.6307V35.7102C155.278 35.7614 155.184 35.8082 155.039 35.8509C154.897 35.8906 154.733 35.9261 154.545 35.9574C154.36 35.9858 154.18 36.0114 154.004 36.0341C153.831 36.054 153.69 36.071 153.582 36.0852C153.321 36.1193 153.076 36.1747 152.849 36.2514C152.625 36.3253 152.443 36.4375 152.304 36.5881C152.167 36.7358 152.099 36.9375 152.099 37.1932C152.099 37.5426 152.228 37.8068 152.487 37.9858C152.748 38.1619 153.079 38.25 153.48 38.25ZM158.162 39V32.4545H159.133V33.4432H159.202C159.321 33.1193 159.537 32.8565 159.849 32.6548C160.162 32.4531 160.514 32.3523 160.906 32.3523C160.98 32.3523 161.072 32.3537 161.183 32.3565C161.294 32.3594 161.378 32.3636 161.435 32.3693V33.392C161.4 33.3835 161.322 33.3707 161.2 33.3537C161.081 33.3338 160.954 33.3239 160.821 33.3239C160.503 33.3239 160.219 33.3906 159.969 33.5241C159.722 33.6548 159.525 33.8366 159.381 34.0696C159.239 34.2997 159.168 34.5625 159.168 34.858V39H158.162ZM165.172 39.1364C164.541 39.1364 163.997 38.9972 163.54 38.7188C163.085 38.4375 162.734 38.0455 162.487 37.5426C162.243 37.0369 162.121 36.4489 162.121 35.7784C162.121 35.108 162.243 34.517 162.487 34.0057C162.734 33.4915 163.078 33.0909 163.518 32.804C163.962 32.5142 164.479 32.3693 165.07 32.3693C165.41 32.3693 165.747 32.4261 166.079 32.5398C166.412 32.6534 166.714 32.8381 166.987 33.0938C167.26 33.3466 167.477 33.6818 167.639 34.0994C167.801 34.517 167.882 35.0312 167.882 35.642V36.0682H162.837V35.1989H166.859C166.859 34.8295 166.785 34.5 166.638 34.2102C166.493 33.9205 166.285 33.6918 166.016 33.5241C165.749 33.3565 165.433 33.2727 165.07 33.2727C164.669 33.2727 164.322 33.3722 164.03 33.571C163.74 33.767 163.517 34.0227 163.361 34.3381C163.204 34.6534 163.126 34.9915 163.126 35.3523V35.9318C163.126 36.4261 163.212 36.8452 163.382 37.1889C163.555 37.5298 163.795 37.7898 164.102 37.9688C164.409 38.1449 164.766 38.233 165.172 38.233C165.436 38.233 165.675 38.196 165.888 38.1222C166.104 38.0455 166.29 37.9318 166.446 37.7812C166.602 37.6278 166.723 37.4375 166.808 37.2102L167.78 37.483C167.677 37.8125 167.506 38.1023 167.264 38.3523C167.023 38.5994 166.724 38.7926 166.369 38.9318C166.014 39.0682 165.615 39.1364 165.172 39.1364Z" fill="white"/>
<rect x="11.2053" y="54" width="100.848" height="122" fill="#626262"/>
<path d="M16.931 70V61.2727H22.198V62.2102H17.9878V65.1591H21.9253V66.0966H17.9878V69.0625H22.2662V70H16.931ZM24.7165 63.4545L26.2847 66.1307L27.8529 63.4545H29.012L26.8983 66.7273L29.012 70H27.8529L26.2847 67.4602L24.7165 70H23.5574L25.637 66.7273L23.5574 63.4545H24.7165ZM32.9218 70.1364C32.2911 70.1364 31.747 69.9972 31.2897 69.7188C30.8351 69.4375 30.4843 69.0455 30.2371 68.5426C29.9928 68.0369 29.8706 67.4489 29.8706 66.7784C29.8706 66.108 29.9928 65.517 30.2371 65.0057C30.4843 64.4915 30.828 64.0909 31.2684 63.804C31.7115 63.5142 32.2286 63.3693 32.8195 63.3693C33.1604 63.3693 33.497 63.4261 33.8294 63.5398C34.1618 63.6534 34.4644 63.8381 34.7371 64.0938C35.0098 64.3466 35.2272 64.6818 35.3891 65.0994C35.551 65.517 35.632 66.0312 35.632 66.642V67.0682H30.5865V66.1989H34.6093C34.6093 65.8295 34.5354 65.5 34.3877 65.2102C34.2428 64.9205 34.0354 64.6918 33.7655 64.5241C33.4985 64.3565 33.1831 64.2727 32.8195 64.2727C32.4189 64.2727 32.0723 64.3722 31.7797 64.571C31.4899 64.767 31.2669 65.0227 31.1107 65.3381C30.9544 65.6534 30.8763 65.9915 30.8763 66.3523V66.9318C30.8763 67.4261 30.9615 67.8452 31.132 68.1889C31.3053 68.5298 31.5453 68.7898 31.8522 68.9688C32.159 69.1449 32.5155 69.233 32.9218 69.233C33.186 69.233 33.4246 69.196 33.6377 69.1222C33.8536 69.0455 34.0397 68.9318 34.1959 68.7812C34.3522 68.6278 34.4729 68.4375 34.5581 68.2102L35.5297 68.483C35.4274 68.8125 35.2556 69.1023 35.0141 69.3523C34.7726 69.5994 34.4743 69.7926 34.1192 69.9318C33.7641 70.0682 33.3649 70.1364 32.9218 70.1364ZM39.8209 70.1364C39.2073 70.1364 38.6789 69.9915 38.2357 69.7017C37.7925 69.4119 37.4516 69.0128 37.213 68.5043C36.9743 67.9957 36.855 67.4148 36.855 66.7614C36.855 66.0966 36.9772 65.5099 37.2215 65.0014C37.4686 64.4901 37.8124 64.0909 38.2527 63.804C38.6959 63.5142 39.213 63.3693 39.8039 63.3693C40.2641 63.3693 40.6789 63.4545 41.0482 63.625C41.4175 63.7955 41.7201 64.0341 41.9559 64.3409C42.1916 64.6477 42.338 65.0057 42.3948 65.4148H41.3891C41.3124 65.1165 41.1419 64.8523 40.8777 64.6222C40.6164 64.3892 40.2641 64.2727 39.8209 64.2727C39.4289 64.2727 39.0851 64.375 38.7897 64.5795C38.497 64.7812 38.2684 65.0668 38.1036 65.4361C37.9416 65.8026 37.8607 66.233 37.8607 66.7273C37.8607 67.233 37.9402 67.6733 38.0993 68.0483C38.2612 68.4233 38.4885 68.7145 38.7811 68.9219C39.0766 69.1293 39.4232 69.233 39.8209 69.233C40.0823 69.233 40.3195 69.1875 40.5326 69.0966C40.7456 69.0057 40.926 68.875 41.0738 68.7045C41.2215 68.5341 41.3266 68.3295 41.3891 68.0909H42.3948C42.338 68.4773 42.1973 68.8253 41.9729 69.1349C41.7513 69.4418 41.4573 69.6861 41.0908 69.8679C40.7272 70.0469 40.3039 70.1364 39.8209 70.1364ZM47.9899 67.3239V63.4545H48.9956V70H47.9899V68.892H47.9218C47.7684 69.2244 47.5297 69.5071 47.2059 69.7401C46.882 69.9702 46.4729 70.0852 45.9786 70.0852C45.5695 70.0852 45.2059 69.9957 44.8877 69.8168C44.5695 69.6349 44.3195 69.3622 44.1377 68.9986C43.9559 68.6321 43.8649 68.1705 43.8649 67.6136V63.4545H44.8706V67.5455C44.8706 68.0227 45.0041 68.4034 45.2712 68.6875C45.5411 68.9716 45.8848 69.1136 46.3024 69.1136C46.5524 69.1136 46.8067 69.0497 47.0652 68.9219C47.3266 68.794 47.5453 68.598 47.7215 68.3338C47.9005 68.0696 47.9899 67.733 47.9899 67.3239ZM53.6842 63.4545V64.3068H50.2921V63.4545H53.6842ZM51.2808 61.8864H52.2865V68.125C52.2865 68.4091 52.3277 68.6222 52.41 68.7642C52.4953 68.9034 52.6032 68.9972 52.7339 69.0455C52.8674 69.0909 53.0081 69.1136 53.1558 69.1136C53.2666 69.1136 53.3575 69.108 53.4285 69.0966C53.4995 69.0824 53.5563 69.071 53.599 69.0625L53.8035 69.9659C53.7353 69.9915 53.6402 70.017 53.518 70.0426C53.3958 70.071 53.241 70.0852 53.0535 70.0852C52.7694 70.0852 52.491 70.0241 52.2183 69.902C51.9484 69.7798 51.724 69.5938 51.545 69.3438C51.3688 69.0938 51.2808 68.7784 51.2808 68.3977V61.8864ZM57.871 70.1364C57.2403 70.1364 56.6963 69.9972 56.2389 69.7188C55.7843 69.4375 55.4335 69.0455 55.1863 68.5426C54.942 68.0369 54.8198 67.4489 54.8198 66.7784C54.8198 66.108 54.942 65.517 55.1863 65.0057C55.4335 64.4915 55.7772 64.0909 56.2176 63.804C56.6608 63.5142 57.1778 63.3693 57.7687 63.3693C58.1096 63.3693 58.4463 63.4261 58.7787 63.5398C59.111 63.6534 59.4136 63.8381 59.6863 64.0938C59.959 64.3466 60.1764 64.6818 60.3383 65.0994C60.5002 65.517 60.5812 66.0312 60.5812 66.642V67.0682H55.5358V66.1989H59.5585C59.5585 65.8295 59.4846 65.5 59.3369 65.2102C59.192 64.9205 58.9846 64.6918 58.7147 64.5241C58.4477 64.3565 58.1323 64.2727 57.7687 64.2727C57.3681 64.2727 57.0215 64.3722 56.7289 64.571C56.4392 64.767 56.2162 65.0227 56.0599 65.3381C55.9037 65.6534 55.8255 65.9915 55.8255 66.3523V66.9318C55.8255 67.4261 55.9108 67.8452 56.0812 68.1889C56.2545 68.5298 56.4946 68.7898 56.8014 68.9688C57.1082 69.1449 57.4647 69.233 57.871 69.233C58.1352 69.233 58.3738 69.196 58.5869 69.1222C58.8028 69.0455 58.9889 68.9318 59.1451 68.7812C59.3014 68.6278 59.4221 68.4375 59.5073 68.2102L60.4789 68.483C60.3767 68.8125 60.2048 69.1023 59.9633 69.3523C59.7218 69.5994 59.4235 69.7926 59.0684 69.9318C58.7133 70.0682 58.3142 70.1364 57.871 70.1364ZM70.3951 63.4545C70.344 63.0227 70.1366 62.6875 69.773 62.4489C69.4093 62.2102 68.9633 62.0909 68.4349 62.0909C68.0485 62.0909 67.7105 62.1534 67.4207 62.2784C67.1338 62.4034 66.9093 62.5753 66.7474 62.794C66.5883 63.0128 66.5088 63.2614 66.5088 63.5398C66.5088 63.7727 66.5642 63.973 66.675 64.1406C66.7886 64.3054 66.9335 64.4432 67.1096 64.554C67.2858 64.6619 67.4704 64.7514 67.6636 64.8224C67.8568 64.8906 68.0343 64.946 68.1963 64.9886L69.0826 65.2273C69.3099 65.2869 69.5627 65.3693 69.8412 65.4744C70.1224 65.5795 70.3909 65.723 70.6465 65.9048C70.9051 66.0838 71.1181 66.3139 71.2858 66.5952C71.4534 66.8764 71.5372 67.2216 71.5372 67.6307C71.5372 68.1023 71.4136 68.5284 71.1664 68.9091C70.9221 69.2898 70.5642 69.5923 70.0926 69.8168C69.6238 70.0412 69.0542 70.1534 68.3838 70.1534C67.7588 70.1534 67.2176 70.0526 66.7602 69.8509C66.3056 69.6491 65.9477 69.3679 65.6863 69.0071C65.4278 68.6463 65.2815 68.2273 65.2474 67.75H66.3383C66.3667 68.0795 66.4775 68.3523 66.6707 68.5682C66.8667 68.7812 67.1139 68.9403 67.4122 69.0455C67.7133 69.1477 68.0372 69.1989 68.3838 69.1989C68.7872 69.1989 69.1494 69.1335 69.4704 69.0028C69.7914 68.8693 70.0457 68.6847 70.2332 68.4489C70.4207 68.2102 70.5144 67.9318 70.5144 67.6136C70.5144 67.3239 70.4335 67.0881 70.2715 66.9062C70.1096 66.7244 69.8965 66.5767 69.6323 66.4631C69.3681 66.3494 69.0826 66.25 68.7758 66.1648L67.7019 65.858C67.0201 65.6619 66.4804 65.3821 66.0826 65.0185C65.6849 64.6548 65.486 64.179 65.486 63.5909C65.486 63.1023 65.6181 62.6761 65.8823 62.3125C66.1494 61.946 66.5073 61.6619 66.9562 61.4602C67.4079 61.2557 67.9122 61.1534 68.469 61.1534C69.0315 61.1534 69.5315 61.2543 69.969 61.456C70.4065 61.6548 70.7531 61.9276 71.0088 62.2741C71.2673 62.6207 71.4037 63.0142 71.4179 63.4545H70.3951ZM75.8827 70.1364C75.252 70.1364 74.708 69.9972 74.2506 69.7188C73.7961 69.4375 73.4452 69.0455 73.198 68.5426C72.9537 68.0369 72.8316 67.4489 72.8316 66.7784C72.8316 66.108 72.9537 65.517 73.198 65.0057C73.4452 64.4915 73.7889 64.0909 74.2293 63.804C74.6725 63.5142 75.1895 63.3693 75.7804 63.3693C76.1213 63.3693 76.458 63.4261 76.7904 63.5398C77.1228 63.6534 77.4253 63.8381 77.698 64.0938C77.9708 64.3466 78.1881 64.6818 78.35 65.0994C78.512 65.517 78.5929 66.0312 78.5929 66.642V67.0682H73.5475V66.1989H77.5702C77.5702 65.8295 77.4963 65.5 77.3486 65.2102C77.2037 64.9205 76.9963 64.6918 76.7264 64.5241C76.4594 64.3565 76.1441 64.2727 75.7804 64.2727C75.3799 64.2727 75.0333 64.3722 74.7407 64.571C74.4509 64.767 74.2279 65.0227 74.0716 65.3381C73.9154 65.6534 73.8372 65.9915 73.8372 66.3523V66.9318C73.8372 67.4261 73.9225 67.8452 74.0929 68.1889C74.2662 68.5298 74.5063 68.7898 74.8131 68.9688C75.1199 69.1449 75.4764 69.233 75.8827 69.233C76.1469 69.233 76.3855 69.196 76.5986 69.1222C76.8145 69.0455 77.0006 68.9318 77.1568 68.7812C77.3131 68.6278 77.4338 68.4375 77.5191 68.2102L78.4907 68.483C78.3884 68.8125 78.2165 69.1023 77.975 69.3523C77.7336 69.5994 77.4353 69.7926 77.0801 69.9318C76.725 70.0682 76.3259 70.1364 75.8827 70.1364ZM80.1228 70V63.4545H81.0943V64.4432H81.1625C81.2818 64.1193 81.4978 63.8565 81.8103 63.6548C82.1228 63.4531 82.475 63.3523 82.8671 63.3523C82.9409 63.3523 83.0333 63.3537 83.1441 63.3565C83.2549 63.3594 83.3387 63.3636 83.3955 63.3693V64.392C83.3614 64.3835 83.2833 64.3707 83.1611 64.3537C83.0418 64.3338 82.9154 64.3239 82.7818 64.3239C82.4637 64.3239 82.1796 64.3906 81.9296 64.5241C81.6824 64.6548 81.4864 64.8366 81.3415 65.0696C81.1995 65.2997 81.1284 65.5625 81.1284 65.858V70H80.1228ZM90.1391 63.4545L87.7186 70H86.6959L84.2755 63.4545H85.3664L87.1732 68.6705H87.2414L89.0482 63.4545H90.1391ZM93.9764 70.1364C93.3458 70.1364 92.8017 69.9972 92.3443 69.7188C91.8898 69.4375 91.5389 69.0455 91.2918 68.5426C91.0475 68.0369 90.9253 67.4489 90.9253 66.7784C90.9253 66.108 91.0475 65.517 91.2918 65.0057C91.5389 64.4915 91.8827 64.0909 92.323 63.804C92.7662 63.5142 93.2833 63.3693 93.8742 63.3693C94.2151 63.3693 94.5517 63.4261 94.8841 63.5398C95.2165 63.6534 95.5191 63.8381 95.7918 64.0938C96.0645 64.3466 96.2818 64.6818 96.4438 65.0994C96.6057 65.517 96.6867 66.0312 96.6867 66.642V67.0682H91.6412V66.1989H95.6639C95.6639 65.8295 95.5901 65.5 95.4424 65.2102C95.2975 64.9205 95.0901 64.6918 94.8202 64.5241C94.5532 64.3565 94.2378 64.2727 93.8742 64.2727C93.4736 64.2727 93.127 64.3722 92.8344 64.571C92.5446 64.767 92.3216 65.0227 92.1654 65.3381C92.0091 65.6534 91.931 65.9915 91.931 66.3523V66.9318C91.931 67.4261 92.0162 67.8452 92.1867 68.1889C92.36 68.5298 92.6 68.7898 92.9068 68.9688C93.2137 69.1449 93.5702 69.233 93.9764 69.233C94.2407 69.233 94.4793 69.196 94.6924 69.1222C94.9083 69.0455 95.0943 68.9318 95.2506 68.7812C95.4068 68.6278 95.5276 68.4375 95.6128 68.2102L96.5844 68.483C96.4821 68.8125 96.3103 69.1023 96.0688 69.3523C95.8273 69.5994 95.529 69.7926 95.1739 69.9318C94.8188 70.0682 94.4196 70.1364 93.9764 70.1364ZM98.2165 70V63.4545H99.1881V64.4432H99.2563C99.3756 64.1193 99.5915 63.8565 99.904 63.6548C100.217 63.4531 100.569 63.3523 100.961 63.3523C101.035 63.3523 101.127 63.3537 101.238 63.3565C101.349 63.3594 101.432 63.3636 101.489 63.3693V64.392C101.455 64.3835 101.377 64.3707 101.255 64.3537C101.136 64.3338 101.009 64.3239 100.876 64.3239C100.557 64.3239 100.273 64.3906 100.023 64.5241C99.7762 64.6548 99.5801 64.8366 99.4353 65.0696C99.2932 65.2997 99.2222 65.5625 99.2222 65.858V70H98.2165Z" fill="white"/>
<rect x="169.013" y="54" width="100.848" height="122" fill="#626262"/>
<path d="M176.324 70L173.938 61.2727H175.012L176.836 68.3807H176.921L178.779 61.2727H179.972L181.83 68.3807H181.915L183.739 61.2727H184.813L182.426 70H181.336L179.409 63.0455H179.341L177.415 70H176.324ZM188.128 70.1364C187.497 70.1364 186.953 69.9972 186.496 69.7188C186.041 69.4375 185.691 69.0455 185.443 68.5426C185.199 68.0369 185.077 67.4489 185.077 66.7784C185.077 66.108 185.199 65.517 185.443 65.0057C185.691 64.4915 186.034 64.0909 186.475 63.804C186.918 63.5142 187.435 63.3693 188.026 63.3693C188.367 63.3693 188.703 63.4261 189.036 63.5398C189.368 63.6534 189.671 63.8381 189.943 64.0938C190.216 64.3466 190.434 64.6818 190.595 65.0994C190.757 65.517 190.838 66.0312 190.838 66.642V67.0682H185.793V66.1989H189.816C189.816 65.8295 189.742 65.5 189.594 65.2102C189.449 64.9205 189.242 64.6918 188.972 64.5241C188.705 64.3565 188.39 64.2727 188.026 64.2727C187.625 64.2727 187.279 64.3722 186.986 64.571C186.696 64.767 186.473 65.0227 186.317 65.3381C186.161 65.6534 186.083 65.9915 186.083 66.3523V66.9318C186.083 67.4261 186.168 67.8452 186.338 68.1889C186.512 68.5298 186.752 68.7898 187.059 68.9688C187.365 69.1449 187.722 69.233 188.128 69.233C188.392 69.233 188.631 69.196 188.844 69.1222C189.06 69.0455 189.246 68.9318 189.402 68.7812C189.559 68.6278 189.679 68.4375 189.765 68.2102L190.736 68.483C190.634 68.8125 190.462 69.1023 190.22 69.3523C189.979 69.5994 189.681 69.7926 189.326 69.9318C188.97 70.0682 188.571 70.1364 188.128 70.1364ZM192.505 70V61.2727H193.51V64.4943H193.595C193.669 64.3807 193.772 64.2358 193.902 64.0597C194.036 63.8807 194.226 63.7216 194.473 63.5824C194.723 63.4403 195.061 63.3693 195.488 63.3693C196.039 63.3693 196.524 63.5071 196.945 63.7827C197.365 64.0582 197.693 64.4489 197.929 64.9545C198.165 65.4602 198.283 66.0568 198.283 66.7443C198.283 67.4375 198.165 68.0384 197.929 68.5469C197.693 69.0526 197.367 69.4446 196.949 69.723C196.532 69.9986 196.05 70.1364 195.505 70.1364C195.084 70.1364 194.747 70.0668 194.495 69.9276C194.242 69.7855 194.047 69.625 193.911 69.446C193.774 69.2642 193.669 69.1136 193.595 68.9943H193.476V70H192.505ZM193.493 66.7273C193.493 67.2216 193.566 67.6577 193.711 68.0355C193.855 68.4105 194.067 68.7045 194.345 68.9176C194.624 69.1278 194.965 69.233 195.368 69.233C195.789 69.233 196.14 69.1222 196.421 68.9006C196.705 68.6761 196.918 68.375 197.06 67.9972C197.205 67.6165 197.277 67.1932 197.277 66.7273C197.277 66.267 197.206 65.8523 197.064 65.483C196.925 65.1108 196.713 64.8168 196.429 64.6009C196.148 64.3821 195.794 64.2727 195.368 64.2727C194.959 64.2727 194.615 64.3764 194.337 64.5838C194.059 64.7884 193.848 65.0753 193.706 65.4446C193.564 65.8111 193.493 66.2386 193.493 66.7273ZM204.458 64.9205L203.554 65.1761C203.497 65.0256 203.414 64.8793 203.303 64.7372C203.195 64.5923 203.047 64.473 202.86 64.3793C202.672 64.2855 202.432 64.2386 202.14 64.2386C201.739 64.2386 201.405 64.331 201.138 64.5156C200.874 64.6974 200.742 64.929 200.742 65.2102C200.742 65.4602 200.833 65.6577 201.015 65.8026C201.196 65.9474 201.48 66.0682 201.867 66.1648L202.838 66.4034C203.424 66.5455 203.86 66.7628 204.147 67.0554C204.434 67.3452 204.577 67.7187 204.577 68.1761C204.577 68.5511 204.469 68.8864 204.253 69.1818C204.04 69.4773 203.742 69.7102 203.358 69.8807C202.975 70.0511 202.529 70.1364 202.02 70.1364C201.353 70.1364 200.8 69.9915 200.363 69.7017C199.925 69.4119 199.648 68.9886 199.532 68.4318L200.486 68.1932C200.577 68.5455 200.749 68.8097 201.002 68.9858C201.257 69.1619 201.591 69.25 202.003 69.25C202.472 69.25 202.844 69.1506 203.12 68.9517C203.398 68.75 203.537 68.5085 203.537 68.2273C203.537 68 203.458 67.8097 203.299 67.6562C203.14 67.5 202.895 67.3835 202.566 67.3068L201.475 67.0511C200.875 66.9091 200.435 66.6889 200.154 66.3906C199.875 66.0895 199.736 65.7131 199.736 65.2614C199.736 64.892 199.84 64.5653 200.047 64.2812C200.257 63.9972 200.543 63.7741 200.904 63.6122C201.267 63.4503 201.679 63.3693 202.14 63.3693C202.787 63.3693 203.296 63.5114 203.665 63.7955C204.037 64.0795 204.301 64.4545 204.458 64.9205ZM208.835 70.1364C208.204 70.1364 207.66 69.9972 207.203 69.7188C206.749 69.4375 206.398 69.0455 206.151 68.5426C205.906 68.0369 205.784 67.4489 205.784 66.7784C205.784 66.108 205.906 65.517 206.151 65.0057C206.398 64.4915 206.741 64.0909 207.182 63.804C207.625 63.5142 208.142 63.3693 208.733 63.3693C209.074 63.3693 209.41 63.4261 209.743 63.5398C210.075 63.6534 210.378 63.8381 210.651 64.0938C210.923 64.3466 211.141 64.6818 211.302 65.0994C211.464 65.517 211.545 66.0312 211.545 66.642V67.0682H206.5V66.1989H210.523C210.523 65.8295 210.449 65.5 210.301 65.2102C210.156 64.9205 209.949 64.6918 209.679 64.5241C209.412 64.3565 209.097 64.2727 208.733 64.2727C208.332 64.2727 207.986 64.3722 207.693 64.571C207.403 64.767 207.18 65.0227 207.024 65.3381C206.868 65.6534 206.79 65.9915 206.79 66.3523V66.9318C206.79 67.4261 206.875 67.8452 207.045 68.1889C207.219 68.5298 207.459 68.7898 207.766 68.9688C208.072 69.1449 208.429 69.233 208.835 69.233C209.099 69.233 209.338 69.196 209.551 69.1222C209.767 69.0455 209.953 68.9318 210.109 68.7812C210.266 68.6278 210.386 68.4375 210.472 68.2102L211.443 68.483C211.341 68.8125 211.169 69.1023 210.927 69.3523C210.686 69.5994 210.388 69.7926 210.033 69.9318C209.677 70.0682 209.278 70.1364 208.835 70.1364ZM213.075 70V63.4545H214.047V64.4432H214.115C214.234 64.1193 214.45 63.8565 214.763 63.6548C215.075 63.4531 215.427 63.3523 215.82 63.3523C215.893 63.3523 215.986 63.3537 216.097 63.3565C216.207 63.3594 216.291 63.3636 216.348 63.3693V64.392C216.314 64.3835 216.236 64.3707 216.114 64.3537C215.994 64.3338 215.868 64.3239 215.734 64.3239C215.416 64.3239 215.132 64.3906 214.882 64.5241C214.635 64.6548 214.439 64.8366 214.294 65.0696C214.152 65.2997 214.081 65.5625 214.081 65.858V70H213.075ZM223.092 63.4545L220.671 70H219.648L217.228 63.4545H218.319L220.126 68.6705H220.194L222.001 63.4545H223.092ZM226.929 70.1364C226.298 70.1364 225.754 69.9972 225.297 69.7188C224.842 69.4375 224.491 69.0455 224.244 68.5426C224 68.0369 223.878 67.4489 223.878 66.7784C223.878 66.108 224 65.517 224.244 65.0057C224.491 64.4915 224.835 64.0909 225.276 63.804C225.719 63.5142 226.236 63.3693 226.827 63.3693C227.168 63.3693 227.504 63.4261 227.837 63.5398C228.169 63.6534 228.472 63.8381 228.744 64.0938C229.017 64.3466 229.234 64.6818 229.396 65.0994C229.558 65.517 229.639 66.0312 229.639 66.642V67.0682H224.594V66.1989H228.616C228.616 65.8295 228.543 65.5 228.395 65.2102C228.25 64.9205 228.043 64.6918 227.773 64.5241C227.506 64.3565 227.19 64.2727 226.827 64.2727C226.426 64.2727 226.079 64.3722 225.787 64.571C225.497 64.767 225.274 65.0227 225.118 65.3381C224.962 65.6534 224.883 65.9915 224.883 66.3523V66.9318C224.883 67.4261 224.969 67.8452 225.139 68.1889C225.312 68.5298 225.552 68.7898 225.859 68.9688C226.166 69.1449 226.523 69.233 226.929 69.233C227.193 69.233 227.432 69.196 227.645 69.1222C227.861 69.0455 228.047 68.9318 228.203 68.7812C228.359 68.6278 228.48 68.4375 228.565 68.2102L229.537 68.483C229.435 68.8125 229.263 69.1023 229.021 69.3523C228.78 69.5994 228.481 69.7926 228.126 69.9318C227.771 70.0682 227.372 70.1364 226.929 70.1364ZM231.169 70V63.4545H232.141V64.4432H232.209C232.328 64.1193 232.544 63.8565 232.856 63.6548C233.169 63.4531 233.521 63.3523 233.913 63.3523C233.987 63.3523 234.079 63.3537 234.19 63.3565C234.301 63.3594 234.385 63.3636 234.442 63.3693V64.392C234.408 64.3835 234.329 64.3707 234.207 64.3537C234.088 64.3338 233.962 64.3239 233.828 64.3239C233.51 64.3239 233.226 64.3906 232.976 64.5241C232.729 64.6548 232.533 64.8366 232.388 65.0696C232.246 65.2997 232.175 65.5625 232.175 65.858V70H231.169Z" fill="white"/>
<path d="M60.6292 53L60.6292 54H62.6292L62.6292 53H60.6292ZM60.6292 0L60.6292 53H62.6292L62.6292 0L60.6292 0Z" fill="#886200"/>
<path d="M200.293 53.7071C200.683 54.0976 201.317 54.0976 201.707 53.7071L208.071 47.3431C208.462 46.9526 208.462 46.3195 208.071 45.9289C207.681 45.5384 207.047 45.5384 206.657 45.9289L201 51.5858L195.343 45.9289C194.953 45.5384 194.319 45.5384 193.929 45.9289C193.538 46.3195 193.538 46.9526 193.929 47.3431L200.293 53.7071ZM200 0V53H202V0L200 0Z" fill="#A4A4A4"/>
<path d="M238.707 0.292892C238.317 -0.0976301 237.683 -0.0976301 237.293 0.292892L230.929 6.65685C230.538 7.04738 230.538 7.68054 230.929 8.07107C231.319 8.46159 231.953 8.46159 232.343 8.07107L238 2.41421L243.657 8.07107C244.047 8.46159 244.681 8.46159 245.071 8.07107C245.462 7.68054 245.462 7.04738 245.071 6.65685L238.707 0.292892ZM239 54V0.999999H237V54H239Z" fill="#A4A4A4"/>
<path d="M168 116H169V114H168V116ZM112 116H168V114H112V116Z" fill="#886200"/>
</svg>
