<svg width="736" height="119" viewBox="0 0 736 119" fill="none" xmlns="http://www.w3.org/2000/svg">
<rect x="241" width="299" height="119" fill="#4D4D4D"/>
<rect x="602" width="134" height="119" fill="#4D4D4D"/>
<rect x="269" y="27" width="243" height="78" fill="#434343"/>
<rect width="179" height="119" fill="#4D4D4D"/>
<path d="M249.057 19V10.2727H250.114V18.0625H254.17V19H249.057ZM258.33 19.1364C257.739 19.1364 257.22 18.9957 256.774 18.7145C256.331 18.4332 255.984 18.0398 255.734 17.5341C255.487 17.0284 255.364 16.4375 255.364 15.7614C255.364 15.0795 255.487 14.4844 255.734 13.9759C255.984 13.4673 256.331 13.0724 256.774 12.7912C257.22 12.5099 257.739 12.3693 258.33 12.3693C258.92 12.3693 259.438 12.5099 259.881 12.7912C260.327 13.0724 260.673 13.4673 260.92 13.9759C261.17 14.4844 261.295 15.0795 261.295 15.7614C261.295 16.4375 261.17 17.0284 260.92 17.5341C260.673 18.0398 260.327 18.4332 259.881 18.7145C259.438 18.9957 258.92 19.1364 258.33 19.1364ZM258.33 18.233C258.778 18.233 259.148 18.1179 259.438 17.8878C259.727 17.6577 259.942 17.3551 260.081 16.9801C260.22 16.6051 260.29 16.1989 260.29 15.7614C260.29 15.3239 260.22 14.9162 260.081 14.5384C259.942 14.1605 259.727 13.8551 259.438 13.6222C259.148 13.3892 258.778 13.2727 258.33 13.2727C257.881 13.2727 257.511 13.3892 257.222 13.6222C256.932 13.8551 256.717 14.1605 256.578 14.5384C256.439 14.9162 256.369 15.3239 256.369 15.7614C256.369 16.1989 256.439 16.6051 256.578 16.9801C256.717 17.3551 256.932 17.6577 257.222 17.8878C257.511 18.1179 257.881 18.233 258.33 18.233ZM264.757 19.1534C264.342 19.1534 263.966 19.0753 263.627 18.919C263.289 18.7599 263.021 18.5312 262.822 18.233C262.623 17.9318 262.524 17.5682 262.524 17.142C262.524 16.767 262.598 16.4631 262.745 16.2301C262.893 15.9943 263.091 15.8097 263.338 15.6761C263.585 15.5426 263.858 15.4432 264.156 15.3778C264.457 15.3097 264.76 15.2557 265.064 15.2159C265.461 15.1648 265.784 15.1264 266.031 15.1009C266.281 15.0724 266.463 15.0256 266.576 14.9602C266.693 14.8949 266.751 14.7812 266.751 14.6193V14.5852C266.751 14.1648 266.636 13.8381 266.406 13.6051C266.179 13.3722 265.833 13.2557 265.37 13.2557C264.89 13.2557 264.514 13.3608 264.241 13.571C263.968 13.7812 263.777 14.0057 263.666 14.2443L262.711 13.9034C262.882 13.5057 263.109 13.196 263.393 12.9744C263.68 12.75 263.993 12.5937 264.331 12.5057C264.672 12.4148 265.007 12.3693 265.336 12.3693C265.547 12.3693 265.788 12.3949 266.061 12.446C266.336 12.4943 266.602 12.5952 266.858 12.7486C267.116 12.902 267.331 13.1335 267.501 13.4432C267.672 13.7528 267.757 14.1676 267.757 14.6875V19H266.751V18.1136H266.7C266.632 18.2557 266.518 18.4077 266.359 18.5696C266.2 18.7315 265.988 18.8693 265.724 18.983C265.46 19.0966 265.137 19.1534 264.757 19.1534ZM264.91 18.25C265.308 18.25 265.643 18.1719 265.916 18.0156C266.191 17.8594 266.399 17.6577 266.538 17.4105C266.68 17.1634 266.751 16.9034 266.751 16.6307V15.7102C266.708 15.7614 266.615 15.8082 266.47 15.8509C266.328 15.8906 266.163 15.9261 265.975 15.9574C265.791 15.9858 265.61 16.0114 265.434 16.0341C265.261 16.054 265.12 16.071 265.012 16.0852C264.751 16.1193 264.507 16.1747 264.279 16.2514C264.055 16.3253 263.873 16.4375 263.734 16.5881C263.598 16.7358 263.529 16.9375 263.529 17.1932C263.529 17.5426 263.659 17.8068 263.917 17.9858C264.179 18.1619 264.51 18.25 264.91 18.25ZM272.064 19.1364C271.518 19.1364 271.037 18.9986 270.619 18.723C270.202 18.4446 269.875 18.0526 269.639 17.5469C269.403 17.0384 269.286 16.4375 269.286 15.7443C269.286 15.0568 269.403 14.4602 269.639 13.9545C269.875 13.4489 270.203 13.0582 270.624 12.7827C271.044 12.5071 271.53 12.3693 272.081 12.3693C272.507 12.3693 272.844 12.4403 273.091 12.5824C273.341 12.7216 273.531 12.8807 273.662 13.0597C273.795 13.2358 273.899 13.3807 273.973 13.4943H274.058V10.2727H275.064V19H274.092V17.9943H273.973C273.899 18.1136 273.794 18.2642 273.658 18.446C273.521 18.625 273.327 18.7855 273.074 18.9276C272.821 19.0668 272.484 19.1364 272.064 19.1364ZM272.2 18.233C272.604 18.233 272.945 18.1278 273.223 17.9176C273.501 17.7045 273.713 17.4105 273.858 17.0355C274.003 16.6577 274.075 16.2216 274.075 15.7273C274.075 15.2386 274.004 14.8111 273.862 14.4446C273.72 14.0753 273.51 13.7884 273.232 13.5838C272.953 13.3764 272.609 13.2727 272.2 13.2727C271.774 13.2727 271.419 13.3821 271.135 13.6009C270.854 13.8168 270.642 14.1108 270.5 14.483C270.361 14.8523 270.291 15.267 270.291 15.7273C270.291 16.1932 270.362 16.6165 270.504 16.9972C270.649 17.375 270.862 17.6761 271.143 17.9006C271.428 18.1222 271.78 18.233 272.2 18.233ZM277.182 19V10.2727H278.188V13.4943H278.273C278.347 13.3807 278.449 13.2358 278.58 13.0597C278.713 12.8807 278.903 12.7216 279.151 12.5824C279.401 12.4403 279.739 12.3693 280.165 12.3693C280.716 12.3693 281.202 12.5071 281.622 12.7827C282.043 13.0582 282.371 13.4489 282.607 13.9545C282.842 14.4602 282.96 15.0568 282.96 15.7443C282.96 16.4375 282.842 17.0384 282.607 17.5469C282.371 18.0526 282.044 18.4446 281.626 18.723C281.209 18.9986 280.727 19.1364 280.182 19.1364C279.761 19.1364 279.425 19.0668 279.172 18.9276C278.919 18.7855 278.724 18.625 278.588 18.446C278.452 18.2642 278.347 18.1136 278.273 17.9943H278.153V19H277.182ZM278.17 15.7273C278.17 16.2216 278.243 16.6577 278.388 17.0355C278.533 17.4105 278.744 17.7045 279.023 17.9176C279.301 18.1278 279.642 18.233 280.045 18.233C280.466 18.233 280.817 18.1222 281.098 17.9006C281.382 17.6761 281.595 17.375 281.737 16.9972C281.882 16.6165 281.955 16.1932 281.955 15.7273C281.955 15.267 281.884 14.8523 281.741 14.483C281.602 14.1108 281.391 13.8168 281.107 13.6009C280.825 13.3821 280.472 13.2727 280.045 13.2727C279.636 13.2727 279.293 13.3764 279.014 13.5838C278.736 13.7884 278.526 14.0753 278.384 14.4446C278.241 14.8111 278.17 15.2386 278.17 15.7273ZM286.425 19.1534C286.01 19.1534 285.634 19.0753 285.295 18.919C284.957 18.7599 284.689 18.5312 284.49 18.233C284.291 17.9318 284.192 17.5682 284.192 17.142C284.192 16.767 284.266 16.4631 284.413 16.2301C284.561 15.9943 284.759 15.8097 285.006 15.6761C285.253 15.5426 285.526 15.4432 285.824 15.3778C286.125 15.3097 286.428 15.2557 286.732 15.2159C287.129 15.1648 287.452 15.1264 287.699 15.1009C287.949 15.0724 288.131 15.0256 288.244 14.9602C288.361 14.8949 288.419 14.7812 288.419 14.6193V14.5852C288.419 14.1648 288.304 13.8381 288.074 13.6051C287.847 13.3722 287.501 13.2557 287.038 13.2557C286.558 13.2557 286.182 13.3608 285.909 13.571C285.636 13.7812 285.445 14.0057 285.334 14.2443L284.379 13.9034C284.55 13.5057 284.777 13.196 285.061 12.9744C285.348 12.75 285.661 12.5937 285.999 12.5057C286.339 12.4148 286.675 12.3693 287.004 12.3693C287.214 12.3693 287.456 12.3949 287.729 12.446C288.004 12.4943 288.27 12.5952 288.526 12.7486C288.784 12.902 288.999 13.1335 289.169 13.4432C289.339 13.7528 289.425 14.1676 289.425 14.6875V19H288.419V18.1136H288.368C288.3 18.2557 288.186 18.4077 288.027 18.5696C287.868 18.7315 287.656 18.8693 287.392 18.983C287.128 19.0966 286.805 19.1534 286.425 19.1534ZM286.578 18.25C286.976 18.25 287.311 18.1719 287.584 18.0156C287.859 17.8594 288.067 17.6577 288.206 17.4105C288.348 17.1634 288.419 16.9034 288.419 16.6307V15.7102C288.376 15.7614 288.283 15.8082 288.138 15.8509C287.996 15.8906 287.831 15.9261 287.643 15.9574C287.459 15.9858 287.278 16.0114 287.102 16.0341C286.929 16.054 286.788 16.071 286.68 16.0852C286.419 16.1193 286.175 16.1747 285.947 16.2514C285.723 16.3253 285.541 16.4375 285.402 16.5881C285.266 16.7358 285.197 16.9375 285.197 17.1932C285.197 17.5426 285.327 17.8068 285.585 17.9858C285.847 18.1619 286.178 18.25 286.578 18.25ZM292.266 10.2727V19H291.26V10.2727H292.266ZM296.034 19.1534C295.619 19.1534 295.243 19.0753 294.905 18.919C294.567 18.7599 294.298 18.5312 294.099 18.233C293.901 17.9318 293.801 17.5682 293.801 17.142C293.801 16.767 293.875 16.4631 294.023 16.2301C294.17 15.9943 294.368 15.8097 294.615 15.6761C294.862 15.5426 295.135 15.4432 295.433 15.3778C295.734 15.3097 296.037 15.2557 296.341 15.2159C296.739 15.1648 297.061 15.1264 297.308 15.1009C297.558 15.0724 297.74 15.0256 297.854 14.9602C297.97 14.8949 298.028 14.7812 298.028 14.6193V14.5852C298.028 14.1648 297.913 13.8381 297.683 13.6051C297.456 13.3722 297.111 13.2557 296.648 13.2557C296.168 13.2557 295.791 13.3608 295.518 13.571C295.246 13.7812 295.054 14.0057 294.943 14.2443L293.989 13.9034C294.159 13.5057 294.386 13.196 294.67 12.9744C294.957 12.75 295.27 12.5937 295.608 12.5057C295.949 12.4148 296.284 12.3693 296.614 12.3693C296.824 12.3693 297.065 12.3949 297.338 12.446C297.614 12.4943 297.879 12.5952 298.135 12.7486C298.393 12.902 298.608 13.1335 298.778 13.4432C298.949 13.7528 299.034 14.1676 299.034 14.6875V19H298.028V18.1136H297.977C297.909 18.2557 297.795 18.4077 297.636 18.5696C297.477 18.7315 297.266 18.8693 297.001 18.983C296.737 19.0966 296.415 19.1534 296.034 19.1534ZM296.188 18.25C296.585 18.25 296.92 18.1719 297.193 18.0156C297.469 17.8594 297.676 17.6577 297.815 17.4105C297.957 17.1634 298.028 16.9034 298.028 16.6307V15.7102C297.986 15.7614 297.892 15.8082 297.747 15.8509C297.605 15.8906 297.44 15.9261 297.253 15.9574C297.068 15.9858 296.888 16.0114 296.712 16.0341C296.538 16.054 296.398 16.071 296.29 16.0852C296.028 16.1193 295.784 16.1747 295.557 16.2514C295.332 16.3253 295.151 16.4375 295.011 16.5881C294.875 16.7358 294.807 16.9375 294.807 17.1932C294.807 17.5426 294.936 17.8068 295.195 17.9858C295.456 18.1619 295.787 18.25 296.188 18.25ZM301.875 15.0625V19H300.87V12.4545H301.841V13.4773H301.926C302.08 13.1449 302.313 12.8778 302.625 12.6761C302.938 12.4716 303.341 12.3693 303.836 12.3693C304.279 12.3693 304.667 12.4602 304.999 12.642C305.331 12.821 305.59 13.0938 305.775 13.4602C305.959 13.8239 306.051 14.2841 306.051 14.8409V19H305.046V14.9091C305.046 14.3949 304.912 13.9943 304.645 13.7074C304.378 13.4176 304.012 13.2727 303.546 13.2727C303.225 13.2727 302.938 13.3423 302.685 13.4815C302.435 13.6207 302.238 13.8239 302.093 14.0909C301.948 14.358 301.875 14.6818 301.875 15.0625ZM310.548 19.1364C309.935 19.1364 309.406 18.9915 308.963 18.7017C308.52 18.4119 308.179 18.0128 307.94 17.5043C307.702 16.9957 307.582 16.4148 307.582 15.7614C307.582 15.0966 307.705 14.5099 307.949 14.0014C308.196 13.4901 308.54 13.0909 308.98 12.804C309.423 12.5142 309.94 12.3693 310.531 12.3693C310.991 12.3693 311.406 12.4545 311.776 12.625C312.145 12.7955 312.447 13.0341 312.683 13.3409C312.919 13.6477 313.065 14.0057 313.122 14.4148H312.116C312.04 14.1165 311.869 13.8523 311.605 13.6222C311.344 13.3892 310.991 13.2727 310.548 13.2727C310.156 13.2727 309.813 13.375 309.517 13.5795C309.224 13.7812 308.996 14.0668 308.831 14.4361C308.669 14.8026 308.588 15.233 308.588 15.7273C308.588 16.233 308.668 16.6733 308.827 17.0483C308.989 17.4233 309.216 17.7145 309.509 17.9219C309.804 18.1293 310.151 18.233 310.548 18.233C310.81 18.233 311.047 18.1875 311.26 18.0966C311.473 18.0057 311.653 17.875 311.801 17.7045C311.949 17.5341 312.054 17.3295 312.116 17.0909H313.122C313.065 17.4773 312.925 17.8253 312.7 18.1349C312.479 18.4418 312.185 18.6861 311.818 18.8679C311.455 19.0469 311.031 19.1364 310.548 19.1364ZM317.337 19.1364C316.706 19.1364 316.162 18.9972 315.705 18.7188C315.25 18.4375 314.899 18.0455 314.652 17.5426C314.408 17.0369 314.286 16.4489 314.286 15.7784C314.286 15.108 314.408 14.517 314.652 14.0057C314.899 13.4915 315.243 13.0909 315.683 12.804C316.126 12.5142 316.643 12.3693 317.234 12.3693C317.575 12.3693 317.912 12.4261 318.244 12.5398C318.577 12.6534 318.879 12.8381 319.152 13.0938C319.425 13.3466 319.642 13.6818 319.804 14.0994C319.966 14.517 320.047 15.0312 320.047 15.642V16.0682H315.001V15.1989H319.024C319.024 14.8295 318.95 14.5 318.803 14.2102C318.658 13.9205 318.45 13.6918 318.18 13.5241C317.913 13.3565 317.598 13.2727 317.234 13.2727C316.834 13.2727 316.487 13.3722 316.195 13.571C315.905 13.767 315.682 14.0227 315.526 14.3381C315.369 14.6534 315.291 14.9915 315.291 15.3523V15.9318C315.291 16.4261 315.376 16.8452 315.547 17.1889C315.72 17.5298 315.96 17.7898 316.267 17.9688C316.574 18.1449 316.93 18.233 317.337 18.233C317.601 18.233 317.839 18.196 318.053 18.1222C318.268 18.0455 318.455 17.9318 318.611 17.7812C318.767 17.6278 318.888 17.4375 318.973 17.2102L319.945 17.483C319.842 17.8125 319.67 18.1023 319.429 18.3523C319.188 18.5994 318.889 18.7926 318.534 18.9318C318.179 19.0682 317.78 19.1364 317.337 19.1364ZM321.577 19V12.4545H322.548V13.4432H322.616C322.736 13.1193 322.952 12.8565 323.264 12.6548C323.577 12.4531 323.929 12.3523 324.321 12.3523C324.395 12.3523 324.487 12.3537 324.598 12.3565C324.709 12.3594 324.793 12.3636 324.849 12.3693V13.392C324.815 13.3835 324.737 13.3707 324.615 13.3537C324.496 13.3338 324.369 13.3239 324.236 13.3239C323.918 13.3239 323.634 13.3906 323.384 13.5241C323.136 13.6548 322.94 13.8366 322.795 14.0696C322.653 14.2997 322.582 14.5625 322.582 14.858V19H321.577ZM334.326 12.4545C334.275 12.0227 334.067 11.6875 333.703 11.4489C333.34 11.2102 332.894 11.0909 332.365 11.0909C331.979 11.0909 331.641 11.1534 331.351 11.2784C331.064 11.4034 330.84 11.5753 330.678 11.794C330.519 12.0128 330.439 12.2614 330.439 12.5398C330.439 12.7727 330.495 12.973 330.605 13.1406C330.719 13.3054 330.864 13.4432 331.04 13.554C331.216 13.6619 331.401 13.7514 331.594 13.8224C331.787 13.8906 331.965 13.946 332.127 13.9886L333.013 14.2273C333.24 14.2869 333.493 14.3693 333.772 14.4744C334.053 14.5795 334.321 14.723 334.577 14.9048C334.836 15.0838 335.049 15.3139 335.216 15.5952C335.384 15.8764 335.468 16.2216 335.468 16.6307C335.468 17.1023 335.344 17.5284 335.097 17.9091C334.853 18.2898 334.495 18.5923 334.023 18.8168C333.554 19.0412 332.985 19.1534 332.314 19.1534C331.689 19.1534 331.148 19.0526 330.691 18.8509C330.236 18.6491 329.878 18.3679 329.617 18.0071C329.358 17.6463 329.212 17.2273 329.178 16.75H330.269C330.297 17.0795 330.408 17.3523 330.601 17.5682C330.797 17.7812 331.044 17.9403 331.343 18.0455C331.644 18.1477 331.968 18.1989 332.314 18.1989C332.718 18.1989 333.08 18.1335 333.401 18.0028C333.722 17.8693 333.976 17.6847 334.164 17.4489C334.351 17.2102 334.445 16.9318 334.445 16.6136C334.445 16.3239 334.364 16.0881 334.202 15.9062C334.04 15.7244 333.827 15.5767 333.563 15.4631C333.299 15.3494 333.013 15.25 332.706 15.1648L331.632 14.858C330.951 14.6619 330.411 14.3821 330.013 14.0185C329.615 13.6548 329.417 13.179 329.417 12.5909C329.417 12.1023 329.549 11.6761 329.813 11.3125C330.08 10.946 330.438 10.6619 330.887 10.4602C331.338 10.2557 331.843 10.1534 332.4 10.1534C332.962 10.1534 333.462 10.2543 333.9 10.456C334.337 10.6548 334.684 10.9276 334.939 11.2741C335.198 11.6207 335.334 12.0142 335.348 12.4545H334.326ZM339.813 19.1364C339.183 19.1364 338.638 18.9972 338.181 18.7188C337.727 18.4375 337.376 18.0455 337.129 17.5426C336.884 17.0369 336.762 16.4489 336.762 15.7784C336.762 15.108 336.884 14.517 337.129 14.0057C337.376 13.4915 337.719 13.0909 338.16 12.804C338.603 12.5142 339.12 12.3693 339.711 12.3693C340.052 12.3693 340.388 12.4261 340.721 12.5398C341.053 12.6534 341.356 12.8381 341.629 13.0938C341.901 13.3466 342.119 13.6818 342.281 14.0994C342.442 14.517 342.523 15.0312 342.523 15.642V16.0682H337.478V15.1989H341.501C341.501 14.8295 341.427 14.5 341.279 14.2102C341.134 13.9205 340.927 13.6918 340.657 13.5241C340.39 13.3565 340.075 13.2727 339.711 13.2727C339.31 13.2727 338.964 13.3722 338.671 13.571C338.381 13.767 338.158 14.0227 338.002 14.3381C337.846 14.6534 337.768 14.9915 337.768 15.3523V15.9318C337.768 16.4261 337.853 16.8452 338.023 17.1889C338.197 17.5298 338.437 17.7898 338.744 17.9688C339.05 18.1449 339.407 18.233 339.813 18.233C340.077 18.233 340.316 18.196 340.529 18.1222C340.745 18.0455 340.931 17.9318 341.087 17.7812C341.244 17.6278 341.364 17.4375 341.45 17.2102L342.421 17.483C342.319 17.8125 342.147 18.1023 341.906 18.3523C341.664 18.5994 341.366 18.7926 341.011 18.9318C340.656 19.0682 340.256 19.1364 339.813 19.1364ZM344.053 19V12.4545H345.025V13.4432H345.093C345.212 13.1193 345.428 12.8565 345.741 12.6548C346.053 12.4531 346.406 12.3523 346.798 12.3523C346.871 12.3523 346.964 12.3537 347.075 12.3565C347.185 12.3594 347.269 12.3636 347.326 12.3693V13.392C347.292 13.3835 347.214 13.3707 347.092 13.3537C346.972 13.3338 346.846 13.3239 346.712 13.3239C346.394 13.3239 346.11 13.3906 345.86 13.5241C345.613 13.6548 345.417 13.8366 345.272 14.0696C345.13 14.2997 345.059 14.5625 345.059 14.858V19H344.053ZM354.07 12.4545L351.649 19H350.626L348.206 12.4545H349.297L351.104 17.6705H351.172L352.979 12.4545H354.07ZM357.907 19.1364C357.276 19.1364 356.732 18.9972 356.275 18.7188C355.82 18.4375 355.469 18.0455 355.222 17.5426C354.978 17.0369 354.856 16.4489 354.856 15.7784C354.856 15.108 354.978 14.517 355.222 14.0057C355.469 13.4915 355.813 13.0909 356.254 12.804C356.697 12.5142 357.214 12.3693 357.805 12.3693C358.146 12.3693 358.482 12.4261 358.815 12.5398C359.147 12.6534 359.45 12.8381 359.722 13.0938C359.995 13.3466 360.212 13.6818 360.374 14.0994C360.536 14.517 360.617 15.0312 360.617 15.642V16.0682H355.572V15.1989H359.594C359.594 14.8295 359.521 14.5 359.373 14.2102C359.228 13.9205 359.021 13.6918 358.751 13.5241C358.484 13.3565 358.168 13.2727 357.805 13.2727C357.404 13.2727 357.058 13.3722 356.765 13.571C356.475 13.767 356.252 14.0227 356.096 14.3381C355.94 14.6534 355.862 14.9915 355.862 15.3523V15.9318C355.862 16.4261 355.947 16.8452 356.117 17.1889C356.29 17.5298 356.531 17.7898 356.837 17.9688C357.144 18.1449 357.501 18.233 357.907 18.233C358.171 18.233 358.41 18.196 358.623 18.1222C358.839 18.0455 359.025 17.9318 359.181 17.7812C359.337 17.6278 359.458 17.4375 359.543 17.2102L360.515 17.483C360.413 17.8125 360.241 18.1023 359.999 18.3523C359.758 18.5994 359.46 18.7926 359.104 18.9318C358.749 19.0682 358.35 19.1364 357.907 19.1364ZM362.147 19V12.4545H363.119V13.4432H363.187C363.306 13.1193 363.522 12.8565 363.835 12.6548C364.147 12.4531 364.499 12.3523 364.891 12.3523C364.965 12.3523 365.058 12.3537 365.168 12.3565C365.279 12.3594 365.363 12.3636 365.42 12.3693V13.392C365.386 13.3835 365.308 13.3707 365.185 13.3537C365.066 13.3338 364.94 13.3239 364.806 13.3239C364.488 13.3239 364.204 13.3906 363.954 13.5241C363.707 13.6548 363.511 13.8366 363.366 14.0696C363.224 14.2997 363.153 14.5625 363.153 14.858V19H362.147Z" fill="white"/>
<path d="M616.642 19L614.256 10.2727H615.33L617.153 17.3807H617.239L619.097 10.2727H620.29L622.148 17.3807H622.233L624.057 10.2727H625.131L622.744 19H621.653L619.727 12.0455H619.659L617.733 19H616.642ZM628.446 19.1364C627.815 19.1364 627.271 18.9972 626.814 18.7188C626.359 18.4375 626.009 18.0455 625.761 17.5426C625.517 17.0369 625.395 16.4489 625.395 15.7784C625.395 15.108 625.517 14.517 625.761 14.0057C626.009 13.4915 626.352 13.0909 626.793 12.804C627.236 12.5142 627.753 12.3693 628.344 12.3693C628.685 12.3693 629.021 12.4261 629.354 12.5398C629.686 12.6534 629.989 12.8381 630.261 13.0938C630.534 13.3466 630.751 13.6818 630.913 14.0994C631.075 14.517 631.156 15.0312 631.156 15.642V16.0682H626.111V15.1989H630.134C630.134 14.8295 630.06 14.5 629.912 14.2102C629.767 13.9205 629.56 13.6918 629.29 13.5241C629.023 13.3565 628.707 13.2727 628.344 13.2727C627.943 13.2727 627.597 13.3722 627.304 13.571C627.014 13.767 626.791 14.0227 626.635 14.3381C626.479 14.6534 626.401 14.9915 626.401 15.3523V15.9318C626.401 16.4261 626.486 16.8452 626.656 17.1889C626.83 17.5298 627.07 17.7898 627.376 17.9688C627.683 18.1449 628.04 18.233 628.446 18.233C628.71 18.233 628.949 18.196 629.162 18.1222C629.378 18.0455 629.564 17.9318 629.72 17.7812C629.876 17.6278 629.997 17.4375 630.082 17.2102L631.054 17.483C630.952 17.8125 630.78 18.1023 630.538 18.3523C630.297 18.5994 629.999 18.7926 629.643 18.9318C629.288 19.0682 628.889 19.1364 628.446 19.1364ZM632.822 19V10.2727H633.828V13.4943H633.913C633.987 13.3807 634.089 13.2358 634.22 13.0597C634.354 12.8807 634.544 12.7216 634.791 12.5824C635.041 12.4403 635.379 12.3693 635.805 12.3693C636.357 12.3693 636.842 12.5071 637.263 12.7827C637.683 13.0582 638.011 13.4489 638.247 13.9545C638.483 14.4602 638.601 15.0568 638.601 15.7443C638.601 16.4375 638.483 17.0384 638.247 17.5469C638.011 18.0526 637.685 18.4446 637.267 18.723C636.849 18.9986 636.368 19.1364 635.822 19.1364C635.402 19.1364 635.065 19.0668 634.812 18.9276C634.56 18.7855 634.365 18.625 634.229 18.446C634.092 18.2642 633.987 18.1136 633.913 17.9943H633.794V19H632.822ZM633.811 15.7273C633.811 16.2216 633.884 16.6577 634.028 17.0355C634.173 17.4105 634.385 17.7045 634.663 17.9176C634.942 18.1278 635.283 18.233 635.686 18.233C636.107 18.233 636.457 18.1222 636.739 17.9006C637.023 17.6761 637.236 17.375 637.378 16.9972C637.523 16.6165 637.595 16.1932 637.595 15.7273C637.595 15.267 637.524 14.8523 637.382 14.483C637.243 14.1108 637.031 13.8168 636.747 13.6009C636.466 13.3821 636.112 13.2727 635.686 13.2727C635.277 13.2727 634.933 13.3764 634.655 13.5838C634.376 13.7884 634.166 14.0753 634.024 14.4446C633.882 14.8111 633.811 15.2386 633.811 15.7273ZM644.776 13.9205L643.872 14.1761C643.815 14.0256 643.732 13.8793 643.621 13.7372C643.513 13.5923 643.365 13.473 643.178 13.3793C642.99 13.2855 642.75 13.2386 642.457 13.2386C642.057 13.2386 641.723 13.331 641.456 13.5156C641.192 13.6974 641.06 13.929 641.06 14.2102C641.06 14.4602 641.151 14.6577 641.332 14.8026C641.514 14.9474 641.798 15.0682 642.185 15.1648L643.156 15.4034C643.741 15.5455 644.178 15.7628 644.464 16.0554C644.751 16.3452 644.895 16.7187 644.895 17.1761C644.895 17.5511 644.787 17.8864 644.571 18.1818C644.358 18.4773 644.06 18.7102 643.676 18.8807C643.293 19.0511 642.847 19.1364 642.338 19.1364C641.67 19.1364 641.118 18.9915 640.68 18.7017C640.243 18.4119 639.966 17.9886 639.849 17.4318L640.804 17.1932C640.895 17.5455 641.067 17.8097 641.32 17.9858C641.575 18.1619 641.909 18.25 642.321 18.25C642.79 18.25 643.162 18.1506 643.438 17.9517C643.716 17.75 643.855 17.5085 643.855 17.2273C643.855 17 643.776 16.8097 643.616 16.6562C643.457 16.5 643.213 16.3835 642.884 16.3068L641.793 16.0511C641.193 15.9091 640.753 15.6889 640.472 15.3906C640.193 15.0895 640.054 14.7131 640.054 14.2614C640.054 13.892 640.158 13.5653 640.365 13.2812C640.575 12.9972 640.861 12.7741 641.222 12.6122C641.585 12.4503 641.997 12.3693 642.457 12.3693C643.105 12.3693 643.614 12.5114 643.983 12.7955C644.355 13.0795 644.619 13.4545 644.776 13.9205ZM649.153 19.1364C648.522 19.1364 647.978 18.9972 647.521 18.7188C647.066 18.4375 646.716 18.0455 646.468 17.5426C646.224 17.0369 646.102 16.4489 646.102 15.7784C646.102 15.108 646.224 14.517 646.468 14.0057C646.716 13.4915 647.059 13.0909 647.5 12.804C647.943 12.5142 648.46 12.3693 649.051 12.3693C649.392 12.3693 649.728 12.4261 650.061 12.5398C650.393 12.6534 650.696 12.8381 650.968 13.0938C651.241 13.3466 651.458 13.6818 651.62 14.0994C651.782 14.517 651.863 15.0312 651.863 15.642V16.0682H646.818V15.1989H650.841C650.841 14.8295 650.767 14.5 650.619 14.2102C650.474 13.9205 650.267 13.6918 649.997 13.5241C649.73 13.3565 649.414 13.2727 649.051 13.2727C648.65 13.2727 648.304 13.3722 648.011 13.571C647.721 13.767 647.498 14.0227 647.342 14.3381C647.186 14.6534 647.108 14.9915 647.108 15.3523V15.9318C647.108 16.4261 647.193 16.8452 647.363 17.1889C647.537 17.5298 647.777 17.7898 648.083 17.9688C648.39 18.1449 648.747 18.233 649.153 18.233C649.417 18.233 649.656 18.196 649.869 18.1222C650.085 18.0455 650.271 17.9318 650.427 17.7812C650.583 17.6278 650.704 17.4375 650.789 17.2102L651.761 17.483C651.659 17.8125 651.487 18.1023 651.245 18.3523C651.004 18.5994 650.706 18.7926 650.35 18.9318C649.995 19.0682 649.596 19.1364 649.153 19.1364ZM653.393 19V12.4545H654.365V13.4432H654.433C654.552 13.1193 654.768 12.8565 655.081 12.6548C655.393 12.4531 655.745 12.3523 656.137 12.3523C656.211 12.3523 656.304 12.3537 656.414 12.3565C656.525 12.3594 656.609 12.3636 656.666 12.3693V13.392C656.632 13.3835 656.554 13.3707 656.431 13.3537C656.312 13.3338 656.186 13.3239 656.052 13.3239C655.734 13.3239 655.45 13.3906 655.2 13.5241C654.953 13.6548 654.757 13.8366 654.612 14.0696C654.47 14.2997 654.399 14.5625 654.399 14.858V19H653.393ZM663.409 12.4545L660.989 19H659.966L657.546 12.4545H658.637L660.444 17.6705H660.512L662.319 12.4545H663.409ZM667.247 19.1364C666.616 19.1364 666.072 18.9972 665.615 18.7188C665.16 18.4375 664.809 18.0455 664.562 17.5426C664.318 17.0369 664.196 16.4489 664.196 15.7784C664.196 15.108 664.318 14.517 664.562 14.0057C664.809 13.4915 665.153 13.0909 665.593 12.804C666.037 12.5142 666.554 12.3693 667.145 12.3693C667.485 12.3693 667.822 12.4261 668.154 12.5398C668.487 12.6534 668.789 12.8381 669.062 13.0938C669.335 13.3466 669.552 13.6818 669.714 14.0994C669.876 14.517 669.957 15.0312 669.957 15.642V16.0682H664.912V15.1989H668.934C668.934 14.8295 668.86 14.5 668.713 14.2102C668.568 13.9205 668.36 13.6918 668.091 13.5241C667.824 13.3565 667.508 13.2727 667.145 13.2727C666.744 13.2727 666.397 13.3722 666.105 13.571C665.815 13.767 665.592 14.0227 665.436 14.3381C665.279 14.6534 665.201 14.9915 665.201 15.3523V15.9318C665.201 16.4261 665.287 16.8452 665.457 17.1889C665.63 17.5298 665.87 17.7898 666.177 17.9688C666.484 18.1449 666.841 18.233 667.247 18.233C667.511 18.233 667.75 18.196 667.963 18.1222C668.179 18.0455 668.365 17.9318 668.521 17.7812C668.677 17.6278 668.798 17.4375 668.883 17.2102L669.855 17.483C669.752 17.8125 669.581 18.1023 669.339 18.3523C669.098 18.5994 668.799 18.7926 668.444 18.9318C668.089 19.0682 667.69 19.1364 667.247 19.1364ZM671.487 19V12.4545H672.458V13.4432H672.527C672.646 13.1193 672.862 12.8565 673.174 12.6548C673.487 12.4531 673.839 12.3523 674.231 12.3523C674.305 12.3523 674.397 12.3537 674.508 12.3565C674.619 12.3594 674.703 12.3636 674.76 12.3693V13.392C674.725 13.3835 674.647 13.3707 674.525 13.3537C674.406 13.3338 674.279 13.3239 674.146 13.3239C673.828 13.3239 673.544 13.3906 673.294 13.5241C673.047 13.6548 672.85 13.8366 672.706 14.0696C672.564 14.2997 672.493 14.5625 672.493 14.858V19H671.487Z" fill="white"/>
<path d="M18.0795 21H17.0227C16.9602 20.696 16.8509 20.429 16.6946 20.1989C16.5412 19.9688 16.3537 19.7756 16.1321 19.6193C15.9134 19.4602 15.6705 19.3409 15.4034 19.2614C15.1364 19.1818 14.858 19.142 14.5682 19.142C14.0398 19.142 13.5611 19.2756 13.1321 19.5426C12.706 19.8097 12.3665 20.2031 12.1136 20.723C11.8636 21.2429 11.7386 21.8807 11.7386 22.6364C11.7386 23.392 11.8636 24.0298 12.1136 24.5497C12.3665 25.0696 12.706 25.4631 13.1321 25.7301C13.5611 25.9972 14.0398 26.1307 14.5682 26.1307C14.858 26.1307 15.1364 26.0909 15.4034 26.0114C15.6705 25.9318 15.9134 25.8139 16.1321 25.6577C16.3537 25.4986 16.5412 25.304 16.6946 25.0739C16.8509 24.8409 16.9602 24.5739 17.0227 24.2727H18.0795C18 24.7187 17.8551 25.1179 17.6449 25.4702C17.4347 25.8224 17.1733 26.1222 16.8608 26.3693C16.5483 26.6136 16.1974 26.7997 15.8082 26.9276C15.4219 27.0554 15.0085 27.1193 14.5682 27.1193C13.8239 27.1193 13.1619 26.9375 12.5824 26.5739C12.0028 26.2102 11.5469 25.6932 11.2145 25.0227C10.8821 24.3523 10.7159 23.5568 10.7159 22.6364C10.7159 21.7159 10.8821 20.9205 11.2145 20.25C11.5469 19.5795 12.0028 19.0625 12.5824 18.6989C13.1619 18.3352 13.8239 18.1534 14.5682 18.1534C15.0085 18.1534 15.4219 18.2173 15.8082 18.3452C16.1974 18.473 16.5483 18.6605 16.8608 18.9077C17.1733 19.152 17.4347 19.4503 17.6449 19.8026C17.8551 20.152 18 20.5511 18.0795 21ZM20.6566 18.2727V27H19.6509V18.2727H20.6566ZM22.4986 27V20.4545H23.5043V27H22.4986ZM23.0099 19.3636C22.8139 19.3636 22.6449 19.2969 22.5028 19.1634C22.3636 19.0298 22.294 18.8693 22.294 18.6818C22.294 18.4943 22.3636 18.3338 22.5028 18.2003C22.6449 18.0668 22.8139 18 23.0099 18C23.206 18 23.3736 18.0668 23.5128 18.2003C23.6548 18.3338 23.7259 18.4943 23.7259 18.6818C23.7259 18.8693 23.6548 19.0298 23.5128 19.1634C23.3736 19.2969 23.206 19.3636 23.0099 19.3636ZM28.0906 27.1364C27.4599 27.1364 26.9158 26.9972 26.4585 26.7188C26.0039 26.4375 25.6531 26.0455 25.4059 25.5426C25.1616 25.0369 25.0394 24.4489 25.0394 23.7784C25.0394 23.108 25.1616 22.517 25.4059 22.0057C25.6531 21.4915 25.9968 21.0909 26.4371 20.804C26.8803 20.5142 27.3974 20.3693 27.9883 20.3693C28.3292 20.3693 28.6658 20.4261 28.9982 20.5398C29.3306 20.6534 29.6332 20.8381 29.9059 21.0938C30.1786 21.3466 30.396 21.6818 30.5579 22.0994C30.7198 22.517 30.8008 23.0312 30.8008 23.642V24.0682H25.7553V23.1989H29.7781C29.7781 22.8295 29.7042 22.5 29.5565 22.2102C29.4116 21.9205 29.2042 21.6918 28.9343 21.5241C28.6673 21.3565 28.3519 21.2727 27.9883 21.2727C27.5877 21.2727 27.2411 21.3722 26.9485 21.571C26.6587 21.767 26.4357 22.0227 26.2795 22.3381C26.1232 22.6534 26.0451 22.9915 26.0451 23.3523V23.9318C26.0451 24.4261 26.1303 24.8452 26.3008 25.1889C26.4741 25.5298 26.7141 25.7898 27.021 25.9688C27.3278 26.1449 27.6843 26.233 28.0906 26.233C28.3548 26.233 28.5934 26.196 28.8065 26.1222C29.0224 26.0455 29.2085 25.9318 29.3647 25.7812C29.521 25.6278 29.6417 25.4375 29.7269 25.2102L30.6985 25.483C30.5962 25.8125 30.4244 26.1023 30.1829 26.3523C29.9414 26.5994 29.6431 26.7926 29.288 26.9318C28.9329 27.0682 28.5337 27.1364 28.0906 27.1364ZM33.3363 23.0625V27H32.3306V20.4545H33.3022V21.4773H33.3874C33.5408 21.1449 33.7738 20.8778 34.0863 20.6761C34.3988 20.4716 34.8022 20.3693 35.2965 20.3693C35.7397 20.3693 36.1275 20.4602 36.4599 20.642C36.7923 20.821 37.0508 21.0938 37.2354 21.4602C37.4201 21.8239 37.5124 22.2841 37.5124 22.8409V27H36.5067V22.9091C36.5067 22.3949 36.3732 21.9943 36.1062 21.7074C35.8391 21.4176 35.4727 21.2727 35.0067 21.2727C34.6857 21.2727 34.3988 21.3423 34.146 21.4815C33.896 21.6207 33.6985 21.8239 33.5536 22.0909C33.4087 22.358 33.3363 22.6818 33.3363 23.0625ZM42.1967 20.4545V21.3068H38.8047V20.4545H42.1967ZM39.7933 18.8864H40.799V25.125C40.799 25.4091 40.8402 25.6222 40.9226 25.7642C41.0078 25.9034 41.1158 25.9972 41.2464 26.0455C41.38 26.0909 41.5206 26.1136 41.6683 26.1136C41.7791 26.1136 41.87 26.108 41.9411 26.0966C42.0121 26.0824 42.0689 26.071 42.1115 26.0625L42.3161 26.9659C42.2479 26.9915 42.1527 27.017 42.0305 27.0426C41.9084 27.071 41.7536 27.0852 41.5661 27.0852C41.282 27.0852 41.0036 27.0241 40.7308 26.902C40.4609 26.7798 40.2365 26.5938 40.0575 26.3438C39.8814 26.0938 39.7933 25.7784 39.7933 25.3977V18.8864Z" fill="white"/>
<path d="M447.057 47V38.2727H450.006C450.688 38.2727 451.247 38.3892 451.685 38.6222C452.122 38.8523 452.446 39.169 452.656 39.5724C452.866 39.9759 452.972 40.4347 452.972 40.9489C452.972 41.4631 452.866 41.919 452.656 42.3168C452.446 42.7145 452.124 43.027 451.689 43.2543C451.254 43.4787 450.699 43.5909 450.023 43.5909H447.636V42.6364H449.989C450.455 42.6364 450.83 42.5682 451.114 42.4318C451.401 42.2955 451.608 42.1023 451.736 41.8523C451.866 41.5994 451.932 41.2983 451.932 40.9489C451.932 40.5994 451.866 40.294 451.736 40.0327C451.605 39.7713 451.396 39.5696 451.109 39.4276C450.822 39.2827 450.443 39.2102 449.972 39.2102H448.114V47H447.057ZM451.165 43.0795L453.312 47H452.085L449.972 43.0795H451.165ZM457.27 47.1364C456.64 47.1364 456.096 46.9972 455.638 46.7188C455.184 46.4375 454.833 46.0455 454.586 45.5426C454.341 45.0369 454.219 44.4489 454.219 43.7784C454.219 43.108 454.341 42.517 454.586 42.0057C454.833 41.4915 455.176 41.0909 455.617 40.804C456.06 40.5142 456.577 40.3693 457.168 40.3693C457.509 40.3693 457.846 40.4261 458.178 40.5398C458.51 40.6534 458.813 40.8381 459.086 41.0938C459.358 41.3466 459.576 41.6818 459.738 42.0994C459.9 42.517 459.98 43.0312 459.98 43.642V44.0682H454.935V43.1989H458.958C458.958 42.8295 458.884 42.5 458.736 42.2102C458.591 41.9205 458.384 41.6918 458.114 41.5241C457.847 41.3565 457.532 41.2727 457.168 41.2727C456.767 41.2727 456.421 41.3722 456.128 41.571C455.838 41.767 455.615 42.0227 455.459 42.3381C455.303 42.6534 455.225 42.9915 455.225 43.3523V43.9318C455.225 44.4261 455.31 44.8452 455.48 45.1889C455.654 45.5298 455.894 45.7898 456.201 45.9688C456.507 46.1449 456.864 46.233 457.27 46.233C457.534 46.233 457.773 46.196 457.986 46.1222C458.202 46.0455 458.388 45.9318 458.544 45.7812C458.701 45.6278 458.821 45.4375 458.907 45.2102L459.878 45.483C459.776 45.8125 459.604 46.1023 459.363 46.3523C459.121 46.5994 458.823 46.7926 458.468 46.9318C458.113 47.0682 457.713 47.1364 457.27 47.1364ZM465.976 49.4545V45.9943H465.891C465.817 46.1136 465.712 46.2642 465.576 46.446C465.439 46.625 465.245 46.7855 464.992 46.9276C464.739 47.0668 464.402 47.1364 463.982 47.1364C463.436 47.1364 462.955 46.9986 462.537 46.723C462.12 46.4446 461.793 46.0526 461.557 45.5469C461.321 45.0384 461.203 44.4375 461.203 43.7443C461.203 43.0568 461.321 42.4602 461.557 41.9545C461.793 41.4489 462.121 41.0582 462.542 40.7827C462.962 40.5071 463.448 40.3693 463.999 40.3693C464.425 40.3693 464.762 40.4403 465.009 40.5824C465.259 40.7216 465.449 40.8807 465.58 41.0597C465.713 41.2358 465.817 41.3807 465.891 41.4943H466.01V40.4545H466.982V49.4545H465.976ZM464.118 46.233C464.522 46.233 464.863 46.1278 465.141 45.9176C465.419 45.7045 465.631 45.4105 465.776 45.0355C465.921 44.6577 465.993 44.2216 465.993 43.7273C465.993 43.2386 465.922 42.8111 465.78 42.4446C465.638 42.0753 465.428 41.7884 465.15 41.5838C464.871 41.3764 464.527 41.2727 464.118 41.2727C463.692 41.2727 463.337 41.3821 463.053 41.6009C462.772 41.8168 462.56 42.1108 462.418 42.483C462.279 42.8523 462.209 43.267 462.209 43.7273C462.209 44.1932 462.28 44.6165 462.422 44.9972C462.567 45.375 462.78 45.6761 463.061 45.9006C463.346 46.1222 463.698 46.233 464.118 46.233ZM472.948 44.3239V40.4545H473.953V47H472.948V45.892H472.88C472.726 46.2244 472.488 46.5071 472.164 46.7401C471.84 46.9702 471.431 47.0852 470.936 47.0852C470.527 47.0852 470.164 46.9957 469.846 46.8168C469.527 46.6349 469.277 46.3622 469.096 45.9986C468.914 45.6321 468.823 45.1705 468.823 44.6136V40.4545H469.828V44.5455C469.828 45.0227 469.962 45.4034 470.229 45.6875C470.499 45.9716 470.843 46.1136 471.26 46.1136C471.51 46.1136 471.765 46.0497 472.023 45.9219C472.284 45.794 472.503 45.598 472.679 45.3338C472.858 45.0696 472.948 44.733 472.948 44.3239ZM478.54 47.1364C477.909 47.1364 477.365 46.9972 476.908 46.7188C476.453 46.4375 476.102 46.0455 475.855 45.5426C475.611 45.0369 475.489 44.4489 475.489 43.7784C475.489 43.108 475.611 42.517 475.855 42.0057C476.102 41.4915 476.446 41.0909 476.886 40.804C477.33 40.5142 477.847 40.3693 478.438 40.3693C478.778 40.3693 479.115 40.4261 479.447 40.5398C479.78 40.6534 480.082 40.8381 480.355 41.0938C480.628 41.3466 480.845 41.6818 481.007 42.0994C481.169 42.517 481.25 43.0312 481.25 43.642V44.0682H476.205V43.1989H480.227C480.227 42.8295 480.153 42.5 480.006 42.2102C479.861 41.9205 479.653 41.6918 479.384 41.5241C479.116 41.3565 478.801 41.2727 478.438 41.2727C478.037 41.2727 477.69 41.3722 477.398 41.571C477.108 41.767 476.885 42.0227 476.729 42.3381C476.572 42.6534 476.494 42.9915 476.494 43.3523V43.9318C476.494 44.4261 476.58 44.8452 476.75 45.1889C476.923 45.5298 477.163 45.7898 477.47 45.9688C477.777 46.1449 478.134 46.233 478.54 46.233C478.804 46.233 479.043 46.196 479.256 46.1222C479.472 46.0455 479.658 45.9318 479.814 45.7812C479.97 45.6278 480.091 45.4375 480.176 45.2102L481.148 45.483C481.045 45.8125 480.874 46.1023 480.632 46.3523C480.391 46.5994 480.092 46.7926 479.737 46.9318C479.382 47.0682 478.983 47.1364 478.54 47.1364ZM487.416 41.9205L486.513 42.1761C486.456 42.0256 486.372 41.8793 486.261 41.7372C486.153 41.5923 486.006 41.473 485.818 41.3793C485.631 41.2855 485.391 41.2386 485.098 41.2386C484.697 41.2386 484.364 41.331 484.097 41.5156C483.832 41.6974 483.7 41.929 483.7 42.2102C483.7 42.4602 483.791 42.6577 483.973 42.8026C484.155 42.9474 484.439 43.0682 484.825 43.1648L485.797 43.4034C486.382 43.5455 486.818 43.7628 487.105 44.0554C487.392 44.3452 487.536 44.7187 487.536 45.1761C487.536 45.5511 487.428 45.8864 487.212 46.1818C486.999 46.4773 486.7 46.7102 486.317 46.8807C485.933 47.0511 485.487 47.1364 484.979 47.1364C484.311 47.1364 483.759 46.9915 483.321 46.7017C482.884 46.4119 482.607 45.9886 482.49 45.4318L483.445 45.1932C483.536 45.5455 483.707 45.8097 483.96 45.9858C484.216 46.1619 484.55 46.25 484.962 46.25C485.43 46.25 485.803 46.1506 486.078 45.9517C486.357 45.75 486.496 45.5085 486.496 45.2273C486.496 45 486.416 44.8097 486.257 44.6562C486.098 44.5 485.854 44.3835 485.524 44.3068L484.433 44.0511C483.834 43.9091 483.393 43.6889 483.112 43.3906C482.834 43.0895 482.695 42.7131 482.695 42.2614C482.695 41.892 482.798 41.5653 483.006 41.2812C483.216 40.9972 483.501 40.7741 483.862 40.6122C484.226 40.4503 484.638 40.3693 485.098 40.3693C485.746 40.3693 486.254 40.5114 486.624 40.7955C486.996 41.0795 487.26 41.4545 487.416 41.9205ZM491.896 40.4545V41.3068H488.504V40.4545H491.896ZM489.493 38.8864H490.498V45.125C490.498 45.4091 490.539 45.6222 490.622 45.7642C490.707 45.9034 490.815 45.9972 490.946 46.0455C491.079 46.0909 491.22 46.1136 491.368 46.1136C491.478 46.1136 491.569 46.108 491.64 46.0966C491.711 46.0824 491.768 46.071 491.811 46.0625L492.015 46.9659C491.947 46.9915 491.852 47.017 491.73 47.0426C491.608 47.071 491.453 47.0852 491.265 47.0852C490.981 47.0852 490.703 47.0241 490.43 46.902C490.16 46.7798 489.936 46.5938 489.757 46.3438C489.581 46.0938 489.493 45.7784 489.493 45.3977V38.8864ZM496.767 47V46.233L499.647 43.0795C499.985 42.7102 500.264 42.3892 500.483 42.1165C500.701 41.8409 500.863 41.5824 500.968 41.3409C501.076 41.0966 501.13 40.8409 501.13 40.5739C501.13 40.267 501.056 40.0014 500.909 39.777C500.764 39.5526 500.565 39.3793 500.312 39.2571C500.059 39.1349 499.775 39.0739 499.46 39.0739C499.125 39.0739 498.832 39.1435 498.582 39.2827C498.335 39.419 498.143 39.6108 498.007 39.858C497.873 40.1051 497.806 40.3949 497.806 40.7273H496.801C496.801 40.2159 496.919 39.767 497.154 39.3807C497.39 38.9943 497.711 38.6932 498.118 38.4773C498.527 38.2614 498.985 38.1534 499.494 38.1534C500.005 38.1534 500.458 38.2614 500.853 38.4773C501.248 38.6932 501.558 38.9844 501.782 39.3509C502.007 39.7173 502.119 40.125 502.119 40.5739C502.119 40.8949 502.061 41.2088 501.944 41.5156C501.831 41.8196 501.632 42.1591 501.348 42.5341C501.066 42.9062 500.676 43.3608 500.176 43.8977L498.216 45.9943V46.0625H502.272V47H496.767Z" fill="white"/>
<path d="M442.057 92V83.2727H445.006C445.688 83.2727 446.247 83.3892 446.685 83.6222C447.122 83.8523 447.446 84.169 447.656 84.5724C447.866 84.9759 447.972 85.4347 447.972 85.9489C447.972 86.4631 447.866 86.919 447.656 87.3168C447.446 87.7145 447.124 88.027 446.689 88.2543C446.254 88.4787 445.699 88.5909 445.023 88.5909H442.636V87.6364H444.989C445.455 87.6364 445.83 87.5682 446.114 87.4318C446.401 87.2955 446.608 87.1023 446.736 86.8523C446.866 86.5994 446.932 86.2983 446.932 85.9489C446.932 85.5994 446.866 85.294 446.736 85.0327C446.605 84.7713 446.396 84.5696 446.109 84.4276C445.822 84.2827 445.443 84.2102 444.972 84.2102H443.114V92H442.057ZM446.165 88.0795L448.312 92H447.085L444.972 88.0795H446.165ZM452.27 92.1364C451.64 92.1364 451.096 91.9972 450.638 91.7188C450.184 91.4375 449.833 91.0455 449.586 90.5426C449.341 90.0369 449.219 89.4489 449.219 88.7784C449.219 88.108 449.341 87.517 449.586 87.0057C449.833 86.4915 450.176 86.0909 450.617 85.804C451.06 85.5142 451.577 85.3693 452.168 85.3693C452.509 85.3693 452.846 85.4261 453.178 85.5398C453.51 85.6534 453.813 85.8381 454.086 86.0938C454.358 86.3466 454.576 86.6818 454.738 87.0994C454.9 87.517 454.98 88.0312 454.98 88.642V89.0682H449.935V88.1989H453.958C453.958 87.8295 453.884 87.5 453.736 87.2102C453.591 86.9205 453.384 86.6918 453.114 86.5241C452.847 86.3565 452.532 86.2727 452.168 86.2727C451.767 86.2727 451.421 86.3722 451.128 86.571C450.838 86.767 450.615 87.0227 450.459 87.3381C450.303 87.6534 450.225 87.9915 450.225 88.3523V88.9318C450.225 89.4261 450.31 89.8452 450.48 90.1889C450.654 90.5298 450.894 90.7898 451.201 90.9688C451.507 91.1449 451.864 91.233 452.27 91.233C452.534 91.233 452.773 91.196 452.986 91.1222C453.202 91.0455 453.388 90.9318 453.544 90.7812C453.701 90.6278 453.821 90.4375 453.907 90.2102L454.878 90.483C454.776 90.8125 454.604 91.1023 454.363 91.3523C454.121 91.5994 453.823 91.7926 453.468 91.9318C453.113 92.0682 452.713 92.1364 452.27 92.1364ZM461.147 86.9205L460.243 87.1761C460.186 87.0256 460.103 86.8793 459.992 86.7372C459.884 86.5923 459.736 86.473 459.549 86.3793C459.361 86.2855 459.121 86.2386 458.828 86.2386C458.428 86.2386 458.094 86.331 457.827 86.5156C457.563 86.6974 457.431 86.929 457.431 87.2102C457.431 87.4602 457.522 87.6577 457.703 87.8026C457.885 87.9474 458.169 88.0682 458.556 88.1648L459.527 88.4034C460.113 88.5455 460.549 88.7628 460.836 89.0554C461.123 89.3452 461.266 89.7187 461.266 90.1761C461.266 90.5511 461.158 90.8864 460.942 91.1818C460.729 91.4773 460.431 91.7102 460.047 91.8807C459.664 92.0511 459.218 92.1364 458.709 92.1364C458.042 92.1364 457.489 91.9915 457.051 91.7017C456.614 91.4119 456.337 90.9886 456.221 90.4318L457.175 90.1932C457.266 90.5455 457.438 90.8097 457.691 90.9858C457.946 91.1619 458.28 91.25 458.692 91.25C459.161 91.25 459.533 91.1506 459.809 90.9517C460.087 90.75 460.226 90.5085 460.226 90.2273C460.226 90 460.147 89.8097 459.988 89.6562C459.828 89.5 459.584 89.3835 459.255 89.3068L458.164 89.0511C457.564 88.9091 457.124 88.6889 456.843 88.3906C456.564 88.0895 456.425 87.7131 456.425 87.2614C456.425 86.892 456.529 86.5653 456.736 86.2812C456.946 85.9972 457.232 85.7741 457.593 85.6122C457.956 85.4503 458.368 85.3693 458.828 85.3693C459.476 85.3693 459.985 85.5114 460.354 85.7955C460.726 86.0795 460.99 86.4545 461.147 86.9205ZM462.78 94.4545V85.4545H463.751V86.4943H463.871C463.945 86.3807 464.047 86.2358 464.178 86.0597C464.311 85.8807 464.501 85.7216 464.749 85.5824C464.999 85.4403 465.337 85.3693 465.763 85.3693C466.314 85.3693 466.8 85.5071 467.22 85.7827C467.641 86.0582 467.969 86.4489 468.205 86.9545C468.44 87.4602 468.558 88.0568 468.558 88.7443C468.558 89.4375 468.44 90.0384 468.205 90.5469C467.969 91.0526 467.642 91.4446 467.224 91.723C466.807 91.9986 466.325 92.1364 465.78 92.1364C465.359 92.1364 465.023 92.0668 464.77 91.9276C464.517 91.7855 464.322 91.625 464.186 91.446C464.05 91.2642 463.945 91.1136 463.871 90.9943H463.786V94.4545H462.78ZM463.768 88.7273C463.768 89.2216 463.841 89.6577 463.986 90.0355C464.131 90.4105 464.342 90.7045 464.621 90.9176C464.899 91.1278 465.24 91.233 465.643 91.233C466.064 91.233 466.415 91.1222 466.696 90.9006C466.98 90.6761 467.193 90.375 467.335 89.9972C467.48 89.6165 467.553 89.1932 467.553 88.7273C467.553 88.267 467.482 87.8523 467.339 87.483C467.2 87.1108 466.989 86.8168 466.705 86.6009C466.423 86.3821 466.07 86.2727 465.643 86.2727C465.234 86.2727 464.891 86.3764 464.612 86.5838C464.334 86.7884 464.124 87.0753 463.982 87.4446C463.839 87.8111 463.768 88.2386 463.768 88.7273ZM472.751 92.1364C472.161 92.1364 471.642 91.9957 471.196 91.7145C470.753 91.4332 470.406 91.0398 470.156 90.5341C469.909 90.0284 469.786 89.4375 469.786 88.7614C469.786 88.0795 469.909 87.4844 470.156 86.9759C470.406 86.4673 470.753 86.0724 471.196 85.7912C471.642 85.5099 472.161 85.3693 472.751 85.3693C473.342 85.3693 473.859 85.5099 474.303 85.7912C474.749 86.0724 475.095 86.4673 475.342 86.9759C475.592 87.4844 475.717 88.0795 475.717 88.7614C475.717 89.4375 475.592 90.0284 475.342 90.5341C475.095 91.0398 474.749 91.4332 474.303 91.7145C473.859 91.9957 473.342 92.1364 472.751 92.1364ZM472.751 91.233C473.2 91.233 473.57 91.1179 473.859 90.8878C474.149 90.6577 474.364 90.3551 474.503 89.9801C474.642 89.6051 474.712 89.1989 474.712 88.7614C474.712 88.3239 474.642 87.9162 474.503 87.5384C474.364 87.1605 474.149 86.8551 473.859 86.6222C473.57 86.3892 473.2 86.2727 472.751 86.2727C472.303 86.2727 471.933 86.3892 471.643 86.6222C471.354 86.8551 471.139 87.1605 471 87.5384C470.861 87.9162 470.791 88.3239 470.791 88.7614C470.791 89.1989 470.861 89.6051 471 89.9801C471.139 90.3551 471.354 90.6577 471.643 90.8878C471.933 91.1179 472.303 91.233 472.751 91.233ZM478.258 88.0625V92H477.252V85.4545H478.224V86.4773H478.309C478.463 86.1449 478.696 85.8778 479.008 85.6761C479.321 85.4716 479.724 85.3693 480.218 85.3693C480.662 85.3693 481.049 85.4602 481.382 85.642C481.714 85.821 481.973 86.0938 482.157 86.4602C482.342 86.8239 482.434 87.2841 482.434 87.8409V92H481.429V87.9091C481.429 87.3949 481.295 86.9943 481.028 86.7074C480.761 86.4176 480.395 86.2727 479.929 86.2727C479.608 86.2727 479.321 86.3423 479.068 86.4815C478.818 86.6207 478.62 86.8239 478.475 87.0909C478.331 87.358 478.258 87.6818 478.258 88.0625ZM488.908 86.9205L488.005 87.1761C487.948 87.0256 487.864 86.8793 487.754 86.7372C487.646 86.5923 487.498 86.473 487.31 86.3793C487.123 86.2855 486.883 86.2386 486.59 86.2386C486.19 86.2386 485.856 86.331 485.589 86.5156C485.325 86.6974 485.192 86.929 485.192 87.2102C485.192 87.4602 485.283 87.6577 485.465 87.8026C485.647 87.9474 485.931 88.0682 486.317 88.1648L487.289 88.4034C487.874 88.5455 488.31 88.7628 488.597 89.0554C488.884 89.3452 489.028 89.7187 489.028 90.1761C489.028 90.5511 488.92 90.8864 488.704 91.1818C488.491 91.4773 488.192 91.7102 487.809 91.8807C487.425 92.0511 486.979 92.1364 486.471 92.1364C485.803 92.1364 485.251 91.9915 484.813 91.7017C484.376 91.4119 484.099 90.9886 483.982 90.4318L484.937 90.1932C485.028 90.5455 485.2 90.8097 485.452 90.9858C485.708 91.1619 486.042 91.25 486.454 91.25C486.923 91.25 487.295 91.1506 487.57 90.9517C487.849 90.75 487.988 90.5085 487.988 90.2273C487.988 90 487.908 89.8097 487.749 89.6562C487.59 89.5 487.346 89.3835 487.016 89.3068L485.925 89.0511C485.326 88.9091 484.886 88.6889 484.604 88.3906C484.326 88.0895 484.187 87.7131 484.187 87.2614C484.187 86.892 484.29 86.5653 484.498 86.2812C484.708 85.9972 484.994 85.7741 485.354 85.6122C485.718 85.4503 486.13 85.3693 486.59 85.3693C487.238 85.3693 487.746 85.5114 488.116 85.7955C488.488 86.0795 488.752 86.4545 488.908 86.9205ZM493.286 92.1364C492.655 92.1364 492.111 91.9972 491.654 91.7188C491.199 91.4375 490.848 91.0455 490.601 90.5426C490.357 90.0369 490.235 89.4489 490.235 88.7784C490.235 88.108 490.357 87.517 490.601 87.0057C490.848 86.4915 491.192 86.0909 491.632 85.804C492.076 85.5142 492.593 85.3693 493.184 85.3693C493.525 85.3693 493.861 85.4261 494.194 85.5398C494.526 85.6534 494.828 85.8381 495.101 86.0938C495.374 86.3466 495.591 86.6818 495.753 87.0994C495.915 87.517 495.996 88.0312 495.996 88.642V89.0682H490.951V88.1989H494.973C494.973 87.8295 494.9 87.5 494.752 87.2102C494.607 86.9205 494.4 86.6918 494.13 86.5241C493.863 86.3565 493.547 86.2727 493.184 86.2727C492.783 86.2727 492.436 86.3722 492.144 86.571C491.854 86.767 491.631 87.0227 491.475 87.3381C491.319 87.6534 491.24 87.9915 491.24 88.3523V88.9318C491.24 89.4261 491.326 89.8452 491.496 90.1889C491.669 90.5298 491.909 90.7898 492.216 90.9688C492.523 91.1449 492.88 91.233 493.286 91.233C493.55 91.233 493.789 91.196 494.002 91.1222C494.218 91.0455 494.404 90.9318 494.56 90.7812C494.716 90.6278 494.837 90.4375 494.922 90.2102L495.894 90.483C495.792 90.8125 495.62 91.1023 495.378 91.3523C495.137 91.5994 494.838 91.7926 494.483 91.9318C494.128 92.0682 493.729 92.1364 493.286 92.1364ZM500.884 92V91.233L503.765 88.0795C504.103 87.7102 504.381 87.3892 504.6 87.1165C504.819 86.8409 504.98 86.5824 505.086 86.3409C505.194 86.0966 505.248 85.8409 505.248 85.5739C505.248 85.267 505.174 85.0014 505.026 84.777C504.881 84.5526 504.682 84.3793 504.429 84.2571C504.176 84.1349 503.892 84.0739 503.577 84.0739C503.242 84.0739 502.949 84.1435 502.699 84.2827C502.452 84.419 502.26 84.6108 502.124 84.858C501.99 85.1051 501.924 85.3949 501.924 85.7273H500.918C500.918 85.2159 501.036 84.767 501.272 84.3807C501.507 83.9943 501.828 83.6932 502.235 83.4773C502.644 83.2614 503.103 83.1534 503.611 83.1534C504.123 83.1534 504.576 83.2614 504.971 83.4773C505.365 83.6932 505.675 83.9844 505.9 84.3509C506.124 84.7173 506.236 85.125 506.236 85.5739C506.236 85.8949 506.178 86.2088 506.061 86.5156C505.948 86.8196 505.749 87.1591 505.465 87.5341C505.184 87.9062 504.793 88.3608 504.293 88.8977L502.333 90.9943V91.0625H506.39V92H500.884Z" fill="white"/>
<path d="M112.057 47V38.2727H115.006C115.688 38.2727 116.247 38.3892 116.685 38.6222C117.122 38.8523 117.446 39.169 117.656 39.5724C117.866 39.9759 117.972 40.4347 117.972 40.9489C117.972 41.4631 117.866 41.919 117.656 42.3168C117.446 42.7145 117.124 43.027 116.689 43.2543C116.254 43.4787 115.699 43.5909 115.023 43.5909H112.636V42.6364H114.989C115.455 42.6364 115.83 42.5682 116.114 42.4318C116.401 42.2955 116.608 42.1023 116.736 41.8523C116.866 41.5994 116.932 41.2983 116.932 40.9489C116.932 40.5994 116.866 40.294 116.736 40.0327C116.605 39.7713 116.396 39.5696 116.109 39.4276C115.822 39.2827 115.443 39.2102 114.972 39.2102H113.114V47H112.057ZM116.165 43.0795L118.312 47H117.085L114.972 43.0795H116.165ZM122.27 47.1364C121.64 47.1364 121.096 46.9972 120.638 46.7188C120.184 46.4375 119.833 46.0455 119.586 45.5426C119.341 45.0369 119.219 44.4489 119.219 43.7784C119.219 43.108 119.341 42.517 119.586 42.0057C119.833 41.4915 120.176 41.0909 120.617 40.804C121.06 40.5142 121.577 40.3693 122.168 40.3693C122.509 40.3693 122.846 40.4261 123.178 40.5398C123.51 40.6534 123.813 40.8381 124.086 41.0938C124.358 41.3466 124.576 41.6818 124.738 42.0994C124.9 42.517 124.98 43.0312 124.98 43.642V44.0682H119.935V43.1989H123.958C123.958 42.8295 123.884 42.5 123.736 42.2102C123.591 41.9205 123.384 41.6918 123.114 41.5241C122.847 41.3565 122.532 41.2727 122.168 41.2727C121.767 41.2727 121.421 41.3722 121.128 41.571C120.838 41.767 120.615 42.0227 120.459 42.3381C120.303 42.6534 120.225 42.9915 120.225 43.3523V43.9318C120.225 44.4261 120.31 44.8452 120.48 45.1889C120.654 45.5298 120.894 45.7898 121.201 45.9688C121.507 46.1449 121.864 46.233 122.27 46.233C122.534 46.233 122.773 46.196 122.986 46.1222C123.202 46.0455 123.388 45.9318 123.544 45.7812C123.701 45.6278 123.821 45.4375 123.907 45.2102L124.878 45.483C124.776 45.8125 124.604 46.1023 124.363 46.3523C124.121 46.5994 123.823 46.7926 123.468 46.9318C123.113 47.0682 122.713 47.1364 122.27 47.1364ZM130.976 49.4545V45.9943H130.891C130.817 46.1136 130.712 46.2642 130.576 46.446C130.439 46.625 130.245 46.7855 129.992 46.9276C129.739 47.0668 129.402 47.1364 128.982 47.1364C128.436 47.1364 127.955 46.9986 127.537 46.723C127.12 46.4446 126.793 46.0526 126.557 45.5469C126.321 45.0384 126.203 44.4375 126.203 43.7443C126.203 43.0568 126.321 42.4602 126.557 41.9545C126.793 41.4489 127.121 41.0582 127.542 40.7827C127.962 40.5071 128.448 40.3693 128.999 40.3693C129.425 40.3693 129.762 40.4403 130.009 40.5824C130.259 40.7216 130.449 40.8807 130.58 41.0597C130.713 41.2358 130.817 41.3807 130.891 41.4943H131.01V40.4545H131.982V49.4545H130.976ZM129.118 46.233C129.522 46.233 129.863 46.1278 130.141 45.9176C130.419 45.7045 130.631 45.4105 130.776 45.0355C130.921 44.6577 130.993 44.2216 130.993 43.7273C130.993 43.2386 130.922 42.8111 130.78 42.4446C130.638 42.0753 130.428 41.7884 130.15 41.5838C129.871 41.3764 129.527 41.2727 129.118 41.2727C128.692 41.2727 128.337 41.3821 128.053 41.6009C127.772 41.8168 127.56 42.1108 127.418 42.483C127.279 42.8523 127.209 43.267 127.209 43.7273C127.209 44.1932 127.28 44.6165 127.422 44.9972C127.567 45.375 127.78 45.6761 128.061 45.9006C128.346 46.1222 128.698 46.233 129.118 46.233ZM137.948 44.3239V40.4545H138.953V47H137.948V45.892H137.88C137.726 46.2244 137.488 46.5071 137.164 46.7401C136.84 46.9702 136.431 47.0852 135.936 47.0852C135.527 47.0852 135.164 46.9957 134.846 46.8168C134.527 46.6349 134.277 46.3622 134.096 45.9986C133.914 45.6321 133.823 45.1705 133.823 44.6136V40.4545H134.828V44.5455C134.828 45.0227 134.962 45.4034 135.229 45.6875C135.499 45.9716 135.843 46.1136 136.26 46.1136C136.51 46.1136 136.765 46.0497 137.023 45.9219C137.284 45.794 137.503 45.598 137.679 45.3338C137.858 45.0696 137.948 44.733 137.948 44.3239ZM143.54 47.1364C142.909 47.1364 142.365 46.9972 141.908 46.7188C141.453 46.4375 141.102 46.0455 140.855 45.5426C140.611 45.0369 140.489 44.4489 140.489 43.7784C140.489 43.108 140.611 42.517 140.855 42.0057C141.102 41.4915 141.446 41.0909 141.886 40.804C142.33 40.5142 142.847 40.3693 143.438 40.3693C143.778 40.3693 144.115 40.4261 144.447 40.5398C144.78 40.6534 145.082 40.8381 145.355 41.0938C145.628 41.3466 145.845 41.6818 146.007 42.0994C146.169 42.517 146.25 43.0312 146.25 43.642V44.0682H141.205V43.1989H145.227C145.227 42.8295 145.153 42.5 145.006 42.2102C144.861 41.9205 144.653 41.6918 144.384 41.5241C144.116 41.3565 143.801 41.2727 143.438 41.2727C143.037 41.2727 142.69 41.3722 142.398 41.571C142.108 41.767 141.885 42.0227 141.729 42.3381C141.572 42.6534 141.494 42.9915 141.494 43.3523V43.9318C141.494 44.4261 141.58 44.8452 141.75 45.1889C141.923 45.5298 142.163 45.7898 142.47 45.9688C142.777 46.1449 143.134 46.233 143.54 46.233C143.804 46.233 144.043 46.196 144.256 46.1222C144.472 46.0455 144.658 45.9318 144.814 45.7812C144.97 45.6278 145.091 45.4375 145.176 45.2102L146.148 45.483C146.045 45.8125 145.874 46.1023 145.632 46.3523C145.391 46.5994 145.092 46.7926 144.737 46.9318C144.382 47.0682 143.983 47.1364 143.54 47.1364ZM152.416 41.9205L151.513 42.1761C151.456 42.0256 151.372 41.8793 151.261 41.7372C151.153 41.5923 151.006 41.473 150.818 41.3793C150.631 41.2855 150.391 41.2386 150.098 41.2386C149.697 41.2386 149.364 41.331 149.097 41.5156C148.832 41.6974 148.7 41.929 148.7 42.2102C148.7 42.4602 148.791 42.6577 148.973 42.8026C149.155 42.9474 149.439 43.0682 149.825 43.1648L150.797 43.4034C151.382 43.5455 151.818 43.7628 152.105 44.0554C152.392 44.3452 152.536 44.7187 152.536 45.1761C152.536 45.5511 152.428 45.8864 152.212 46.1818C151.999 46.4773 151.7 46.7102 151.317 46.8807C150.933 47.0511 150.487 47.1364 149.979 47.1364C149.311 47.1364 148.759 46.9915 148.321 46.7017C147.884 46.4119 147.607 45.9886 147.49 45.4318L148.445 45.1932C148.536 45.5455 148.707 45.8097 148.96 45.9858C149.216 46.1619 149.55 46.25 149.962 46.25C150.43 46.25 150.803 46.1506 151.078 45.9517C151.357 45.75 151.496 45.5085 151.496 45.2273C151.496 45 151.416 44.8097 151.257 44.6562C151.098 44.5 150.854 44.3835 150.524 44.3068L149.433 44.0511C148.834 43.9091 148.393 43.6889 148.112 43.3906C147.834 43.0895 147.695 42.7131 147.695 42.2614C147.695 41.892 147.798 41.5653 148.006 41.2812C148.216 40.9972 148.501 40.7741 148.862 40.6122C149.226 40.4503 149.638 40.3693 150.098 40.3693C150.746 40.3693 151.254 40.5114 151.624 40.7955C151.996 41.0795 152.26 41.4545 152.416 41.9205ZM156.896 40.4545V41.3068H153.504V40.4545H156.896ZM154.493 38.8864H155.498V45.125C155.498 45.4091 155.539 45.6222 155.622 45.7642C155.707 45.9034 155.815 45.9972 155.946 46.0455C156.079 46.0909 156.22 46.1136 156.368 46.1136C156.478 46.1136 156.569 46.108 156.64 46.0966C156.711 46.0824 156.768 46.071 156.811 46.0625L157.015 46.9659C156.947 46.9915 156.852 47.017 156.73 47.0426C156.608 47.071 156.453 47.0852 156.265 47.0852C155.981 47.0852 155.703 47.0241 155.43 46.902C155.16 46.7798 154.936 46.5938 154.757 46.3438C154.581 46.0938 154.493 45.7784 154.493 45.3977V38.8864ZM164.835 38.2727V47H163.778V39.3807H163.727L161.596 40.7955V39.7216L163.778 38.2727H164.835Z" fill="white"/>
<path d="M108.057 92V83.2727H111.006C111.688 83.2727 112.247 83.3892 112.685 83.6222C113.122 83.8523 113.446 84.169 113.656 84.5724C113.866 84.9759 113.972 85.4347 113.972 85.9489C113.972 86.4631 113.866 86.919 113.656 87.3168C113.446 87.7145 113.124 88.027 112.689 88.2543C112.254 88.4787 111.699 88.5909 111.023 88.5909H108.636V87.6364H110.989C111.455 87.6364 111.83 87.5682 112.114 87.4318C112.401 87.2955 112.608 87.1023 112.736 86.8523C112.866 86.5994 112.932 86.2983 112.932 85.9489C112.932 85.5994 112.866 85.294 112.736 85.0327C112.605 84.7713 112.396 84.5696 112.109 84.4276C111.822 84.2827 111.443 84.2102 110.972 84.2102H109.114V92H108.057ZM112.165 88.0795L114.312 92H113.085L110.972 88.0795H112.165ZM118.27 92.1364C117.64 92.1364 117.096 91.9972 116.638 91.7188C116.184 91.4375 115.833 91.0455 115.586 90.5426C115.341 90.0369 115.219 89.4489 115.219 88.7784C115.219 88.108 115.341 87.517 115.586 87.0057C115.833 86.4915 116.176 86.0909 116.617 85.804C117.06 85.5142 117.577 85.3693 118.168 85.3693C118.509 85.3693 118.846 85.4261 119.178 85.5398C119.51 85.6534 119.813 85.8381 120.086 86.0938C120.358 86.3466 120.576 86.6818 120.738 87.0994C120.9 87.517 120.98 88.0312 120.98 88.642V89.0682H115.935V88.1989H119.958C119.958 87.8295 119.884 87.5 119.736 87.2102C119.591 86.9205 119.384 86.6918 119.114 86.5241C118.847 86.3565 118.532 86.2727 118.168 86.2727C117.767 86.2727 117.421 86.3722 117.128 86.571C116.838 86.767 116.615 87.0227 116.459 87.3381C116.303 87.6534 116.225 87.9915 116.225 88.3523V88.9318C116.225 89.4261 116.31 89.8452 116.48 90.1889C116.654 90.5298 116.894 90.7898 117.201 90.9688C117.507 91.1449 117.864 91.233 118.27 91.233C118.534 91.233 118.773 91.196 118.986 91.1222C119.202 91.0455 119.388 90.9318 119.544 90.7812C119.701 90.6278 119.821 90.4375 119.907 90.2102L120.878 90.483C120.776 90.8125 120.604 91.1023 120.363 91.3523C120.121 91.5994 119.823 91.7926 119.468 91.9318C119.113 92.0682 118.713 92.1364 118.27 92.1364ZM127.147 86.9205L126.243 87.1761C126.186 87.0256 126.103 86.8793 125.992 86.7372C125.884 86.5923 125.736 86.473 125.549 86.3793C125.361 86.2855 125.121 86.2386 124.828 86.2386C124.428 86.2386 124.094 86.331 123.827 86.5156C123.563 86.6974 123.431 86.929 123.431 87.2102C123.431 87.4602 123.522 87.6577 123.703 87.8026C123.885 87.9474 124.169 88.0682 124.556 88.1648L125.527 88.4034C126.113 88.5455 126.549 88.7628 126.836 89.0554C127.123 89.3452 127.266 89.7187 127.266 90.1761C127.266 90.5511 127.158 90.8864 126.942 91.1818C126.729 91.4773 126.431 91.7102 126.047 91.8807C125.664 92.0511 125.218 92.1364 124.709 92.1364C124.042 92.1364 123.489 91.9915 123.051 91.7017C122.614 91.4119 122.337 90.9886 122.221 90.4318L123.175 90.1932C123.266 90.5455 123.438 90.8097 123.691 90.9858C123.946 91.1619 124.28 91.25 124.692 91.25C125.161 91.25 125.533 91.1506 125.809 90.9517C126.087 90.75 126.226 90.5085 126.226 90.2273C126.226 90 126.147 89.8097 125.988 89.6562C125.828 89.5 125.584 89.3835 125.255 89.3068L124.164 89.0511C123.564 88.9091 123.124 88.6889 122.843 88.3906C122.564 88.0895 122.425 87.7131 122.425 87.2614C122.425 86.892 122.529 86.5653 122.736 86.2812C122.946 85.9972 123.232 85.7741 123.593 85.6122C123.956 85.4503 124.368 85.3693 124.828 85.3693C125.476 85.3693 125.985 85.5114 126.354 85.7955C126.726 86.0795 126.99 86.4545 127.147 86.9205ZM128.78 94.4545V85.4545H129.751V86.4943H129.871C129.945 86.3807 130.047 86.2358 130.178 86.0597C130.311 85.8807 130.501 85.7216 130.749 85.5824C130.999 85.4403 131.337 85.3693 131.763 85.3693C132.314 85.3693 132.8 85.5071 133.22 85.7827C133.641 86.0582 133.969 86.4489 134.205 86.9545C134.44 87.4602 134.558 88.0568 134.558 88.7443C134.558 89.4375 134.44 90.0384 134.205 90.5469C133.969 91.0526 133.642 91.4446 133.224 91.723C132.807 91.9986 132.325 92.1364 131.78 92.1364C131.359 92.1364 131.023 92.0668 130.77 91.9276C130.517 91.7855 130.322 91.625 130.186 91.446C130.05 91.2642 129.945 91.1136 129.871 90.9943H129.786V94.4545H128.78ZM129.768 88.7273C129.768 89.2216 129.841 89.6577 129.986 90.0355C130.131 90.4105 130.342 90.7045 130.621 90.9176C130.899 91.1278 131.24 91.233 131.643 91.233C132.064 91.233 132.415 91.1222 132.696 90.9006C132.98 90.6761 133.193 90.375 133.335 89.9972C133.48 89.6165 133.553 89.1932 133.553 88.7273C133.553 88.267 133.482 87.8523 133.339 87.483C133.2 87.1108 132.989 86.8168 132.705 86.6009C132.423 86.3821 132.07 86.2727 131.643 86.2727C131.234 86.2727 130.891 86.3764 130.612 86.5838C130.334 86.7884 130.124 87.0753 129.982 87.4446C129.839 87.8111 129.768 88.2386 129.768 88.7273ZM138.751 92.1364C138.161 92.1364 137.642 91.9957 137.196 91.7145C136.753 91.4332 136.406 91.0398 136.156 90.5341C135.909 90.0284 135.786 89.4375 135.786 88.7614C135.786 88.0795 135.909 87.4844 136.156 86.9759C136.406 86.4673 136.753 86.0724 137.196 85.7912C137.642 85.5099 138.161 85.3693 138.751 85.3693C139.342 85.3693 139.859 85.5099 140.303 85.7912C140.749 86.0724 141.095 86.4673 141.342 86.9759C141.592 87.4844 141.717 88.0795 141.717 88.7614C141.717 89.4375 141.592 90.0284 141.342 90.5341C141.095 91.0398 140.749 91.4332 140.303 91.7145C139.859 91.9957 139.342 92.1364 138.751 92.1364ZM138.751 91.233C139.2 91.233 139.57 91.1179 139.859 90.8878C140.149 90.6577 140.364 90.3551 140.503 89.9801C140.642 89.6051 140.712 89.1989 140.712 88.7614C140.712 88.3239 140.642 87.9162 140.503 87.5384C140.364 87.1605 140.149 86.8551 139.859 86.6222C139.57 86.3892 139.2 86.2727 138.751 86.2727C138.303 86.2727 137.933 86.3892 137.643 86.6222C137.354 86.8551 137.139 87.1605 137 87.5384C136.861 87.9162 136.791 88.3239 136.791 88.7614C136.791 89.1989 136.861 89.6051 137 89.9801C137.139 90.3551 137.354 90.6577 137.643 90.8878C137.933 91.1179 138.303 91.233 138.751 91.233ZM144.258 88.0625V92H143.252V85.4545H144.224V86.4773H144.309C144.463 86.1449 144.696 85.8778 145.008 85.6761C145.321 85.4716 145.724 85.3693 146.218 85.3693C146.662 85.3693 147.049 85.4602 147.382 85.642C147.714 85.821 147.973 86.0938 148.157 86.4602C148.342 86.8239 148.434 87.2841 148.434 87.8409V92H147.429V87.9091C147.429 87.3949 147.295 86.9943 147.028 86.7074C146.761 86.4176 146.395 86.2727 145.929 86.2727C145.608 86.2727 145.321 86.3423 145.068 86.4815C144.818 86.6207 144.62 86.8239 144.475 87.0909C144.331 87.358 144.258 87.6818 144.258 88.0625ZM154.908 86.9205L154.005 87.1761C153.948 87.0256 153.864 86.8793 153.754 86.7372C153.646 86.5923 153.498 86.473 153.31 86.3793C153.123 86.2855 152.883 86.2386 152.59 86.2386C152.19 86.2386 151.856 86.331 151.589 86.5156C151.325 86.6974 151.192 86.929 151.192 87.2102C151.192 87.4602 151.283 87.6577 151.465 87.8026C151.647 87.9474 151.931 88.0682 152.317 88.1648L153.289 88.4034C153.874 88.5455 154.31 88.7628 154.597 89.0554C154.884 89.3452 155.028 89.7187 155.028 90.1761C155.028 90.5511 154.92 90.8864 154.704 91.1818C154.491 91.4773 154.192 91.7102 153.809 91.8807C153.425 92.0511 152.979 92.1364 152.471 92.1364C151.803 92.1364 151.251 91.9915 150.813 91.7017C150.376 91.4119 150.099 90.9886 149.982 90.4318L150.937 90.1932C151.028 90.5455 151.2 90.8097 151.452 90.9858C151.708 91.1619 152.042 91.25 152.454 91.25C152.923 91.25 153.295 91.1506 153.57 90.9517C153.849 90.75 153.988 90.5085 153.988 90.2273C153.988 90 153.908 89.8097 153.749 89.6562C153.59 89.5 153.346 89.3835 153.016 89.3068L151.925 89.0511C151.326 88.9091 150.886 88.6889 150.604 88.3906C150.326 88.0895 150.187 87.7131 150.187 87.2614C150.187 86.892 150.29 86.5653 150.498 86.2812C150.708 85.9972 150.994 85.7741 151.354 85.6122C151.718 85.4503 152.13 85.3693 152.59 85.3693C153.238 85.3693 153.746 85.5114 154.116 85.7955C154.488 86.0795 154.752 86.4545 154.908 86.9205ZM159.286 92.1364C158.655 92.1364 158.111 91.9972 157.654 91.7188C157.199 91.4375 156.848 91.0455 156.601 90.5426C156.357 90.0369 156.235 89.4489 156.235 88.7784C156.235 88.108 156.357 87.517 156.601 87.0057C156.848 86.4915 157.192 86.0909 157.632 85.804C158.076 85.5142 158.593 85.3693 159.184 85.3693C159.525 85.3693 159.861 85.4261 160.194 85.5398C160.526 85.6534 160.828 85.8381 161.101 86.0938C161.374 86.3466 161.591 86.6818 161.753 87.0994C161.915 87.517 161.996 88.0312 161.996 88.642V89.0682H156.951V88.1989H160.973C160.973 87.8295 160.9 87.5 160.752 87.2102C160.607 86.9205 160.4 86.6918 160.13 86.5241C159.863 86.3565 159.547 86.2727 159.184 86.2727C158.783 86.2727 158.436 86.3722 158.144 86.571C157.854 86.767 157.631 87.0227 157.475 87.3381C157.319 87.6534 157.24 87.9915 157.24 88.3523V88.9318C157.24 89.4261 157.326 89.8452 157.496 90.1889C157.669 90.5298 157.909 90.7898 158.216 90.9688C158.523 91.1449 158.88 91.233 159.286 91.233C159.55 91.233 159.789 91.196 160.002 91.1222C160.218 91.0455 160.404 90.9318 160.56 90.7812C160.716 90.6278 160.837 90.4375 160.922 90.2102L161.894 90.483C161.792 90.8125 161.62 91.1023 161.378 91.3523C161.137 91.5994 160.838 91.7926 160.483 91.9318C160.128 92.0682 159.729 92.1364 159.286 92.1364ZM169.952 83.2727V92H168.895V84.3807H168.844L166.713 85.7955V84.7216L168.895 83.2727H169.952Z" fill="white"/>
<path d="M280.057 47V38.2727H283.006C283.688 38.2727 284.247 38.3892 284.685 38.6222C285.122 38.8523 285.446 39.169 285.656 39.5724C285.866 39.9759 285.972 40.4347 285.972 40.9489C285.972 41.4631 285.866 41.919 285.656 42.3168C285.446 42.7145 285.124 43.027 284.689 43.2543C284.254 43.4787 283.699 43.5909 283.023 43.5909H280.636V42.6364H282.989C283.455 42.6364 283.83 42.5682 284.114 42.4318C284.401 42.2955 284.608 42.1023 284.736 41.8523C284.866 41.5994 284.932 41.2983 284.932 40.9489C284.932 40.5994 284.866 40.294 284.736 40.0327C284.605 39.7713 284.396 39.5696 284.109 39.4276C283.822 39.2827 283.443 39.2102 282.972 39.2102H281.114V47H280.057ZM284.165 43.0795L286.312 47H285.085L282.972 43.0795H284.165ZM290.27 47.1364C289.64 47.1364 289.096 46.9972 288.638 46.7188C288.184 46.4375 287.833 46.0455 287.586 45.5426C287.341 45.0369 287.219 44.4489 287.219 43.7784C287.219 43.108 287.341 42.517 287.586 42.0057C287.833 41.4915 288.176 41.0909 288.617 40.804C289.06 40.5142 289.577 40.3693 290.168 40.3693C290.509 40.3693 290.846 40.4261 291.178 40.5398C291.51 40.6534 291.813 40.8381 292.086 41.0938C292.358 41.3466 292.576 41.6818 292.738 42.0994C292.9 42.517 292.98 43.0312 292.98 43.642V44.0682H287.935V43.1989H291.958C291.958 42.8295 291.884 42.5 291.736 42.2102C291.591 41.9205 291.384 41.6918 291.114 41.5241C290.847 41.3565 290.532 41.2727 290.168 41.2727C289.767 41.2727 289.421 41.3722 289.128 41.571C288.838 41.767 288.615 42.0227 288.459 42.3381C288.303 42.6534 288.225 42.9915 288.225 43.3523V43.9318C288.225 44.4261 288.31 44.8452 288.48 45.1889C288.654 45.5298 288.894 45.7898 289.201 45.9688C289.507 46.1449 289.864 46.233 290.27 46.233C290.534 46.233 290.773 46.196 290.986 46.1222C291.202 46.0455 291.388 45.9318 291.544 45.7812C291.701 45.6278 291.821 45.4375 291.907 45.2102L292.878 45.483C292.776 45.8125 292.604 46.1023 292.363 46.3523C292.121 46.5994 291.823 46.7926 291.468 46.9318C291.113 47.0682 290.713 47.1364 290.27 47.1364ZM298.976 49.4545V45.9943H298.891C298.817 46.1136 298.712 46.2642 298.576 46.446C298.439 46.625 298.245 46.7855 297.992 46.9276C297.739 47.0668 297.402 47.1364 296.982 47.1364C296.436 47.1364 295.955 46.9986 295.537 46.723C295.12 46.4446 294.793 46.0526 294.557 45.5469C294.321 45.0384 294.203 44.4375 294.203 43.7443C294.203 43.0568 294.321 42.4602 294.557 41.9545C294.793 41.4489 295.121 41.0582 295.542 40.7827C295.962 40.5071 296.448 40.3693 296.999 40.3693C297.425 40.3693 297.762 40.4403 298.009 40.5824C298.259 40.7216 298.449 40.8807 298.58 41.0597C298.713 41.2358 298.817 41.3807 298.891 41.4943H299.01V40.4545H299.982V49.4545H298.976ZM297.118 46.233C297.522 46.233 297.863 46.1278 298.141 45.9176C298.419 45.7045 298.631 45.4105 298.776 45.0355C298.921 44.6577 298.993 44.2216 298.993 43.7273C298.993 43.2386 298.922 42.8111 298.78 42.4446C298.638 42.0753 298.428 41.7884 298.15 41.5838C297.871 41.3764 297.527 41.2727 297.118 41.2727C296.692 41.2727 296.337 41.3821 296.053 41.6009C295.772 41.8168 295.56 42.1108 295.418 42.483C295.279 42.8523 295.209 43.267 295.209 43.7273C295.209 44.1932 295.28 44.6165 295.422 44.9972C295.567 45.375 295.78 45.6761 296.061 45.9006C296.346 46.1222 296.698 46.233 297.118 46.233ZM305.948 44.3239V40.4545H306.953V47H305.948V45.892H305.88C305.726 46.2244 305.488 46.5071 305.164 46.7401C304.84 46.9702 304.431 47.0852 303.936 47.0852C303.527 47.0852 303.164 46.9957 302.846 46.8168C302.527 46.6349 302.277 46.3622 302.096 45.9986C301.914 45.6321 301.823 45.1705 301.823 44.6136V40.4545H302.828V44.5455C302.828 45.0227 302.962 45.4034 303.229 45.6875C303.499 45.9716 303.843 46.1136 304.26 46.1136C304.51 46.1136 304.765 46.0497 305.023 45.9219C305.284 45.794 305.503 45.598 305.679 45.3338C305.858 45.0696 305.948 44.733 305.948 44.3239ZM311.54 47.1364C310.909 47.1364 310.365 46.9972 309.908 46.7188C309.453 46.4375 309.102 46.0455 308.855 45.5426C308.611 45.0369 308.489 44.4489 308.489 43.7784C308.489 43.108 308.611 42.517 308.855 42.0057C309.102 41.4915 309.446 41.0909 309.886 40.804C310.33 40.5142 310.847 40.3693 311.438 40.3693C311.778 40.3693 312.115 40.4261 312.447 40.5398C312.78 40.6534 313.082 40.8381 313.355 41.0938C313.628 41.3466 313.845 41.6818 314.007 42.0994C314.169 42.517 314.25 43.0312 314.25 43.642V44.0682H309.205V43.1989H313.227C313.227 42.8295 313.153 42.5 313.006 42.2102C312.861 41.9205 312.653 41.6918 312.384 41.5241C312.116 41.3565 311.801 41.2727 311.438 41.2727C311.037 41.2727 310.69 41.3722 310.398 41.571C310.108 41.767 309.885 42.0227 309.729 42.3381C309.572 42.6534 309.494 42.9915 309.494 43.3523V43.9318C309.494 44.4261 309.58 44.8452 309.75 45.1889C309.923 45.5298 310.163 45.7898 310.47 45.9688C310.777 46.1449 311.134 46.233 311.54 46.233C311.804 46.233 312.043 46.196 312.256 46.1222C312.472 46.0455 312.658 45.9318 312.814 45.7812C312.97 45.6278 313.091 45.4375 313.176 45.2102L314.148 45.483C314.045 45.8125 313.874 46.1023 313.632 46.3523C313.391 46.5994 313.092 46.7926 312.737 46.9318C312.382 47.0682 311.983 47.1364 311.54 47.1364ZM320.416 41.9205L319.513 42.1761C319.456 42.0256 319.372 41.8793 319.261 41.7372C319.153 41.5923 319.006 41.473 318.818 41.3793C318.631 41.2855 318.391 41.2386 318.098 41.2386C317.697 41.2386 317.364 41.331 317.097 41.5156C316.832 41.6974 316.7 41.929 316.7 42.2102C316.7 42.4602 316.791 42.6577 316.973 42.8026C317.155 42.9474 317.439 43.0682 317.825 43.1648L318.797 43.4034C319.382 43.5455 319.818 43.7628 320.105 44.0554C320.392 44.3452 320.536 44.7187 320.536 45.1761C320.536 45.5511 320.428 45.8864 320.212 46.1818C319.999 46.4773 319.7 46.7102 319.317 46.8807C318.933 47.0511 318.487 47.1364 317.979 47.1364C317.311 47.1364 316.759 46.9915 316.321 46.7017C315.884 46.4119 315.607 45.9886 315.49 45.4318L316.445 45.1932C316.536 45.5455 316.707 45.8097 316.96 45.9858C317.216 46.1619 317.55 46.25 317.962 46.25C318.43 46.25 318.803 46.1506 319.078 45.9517C319.357 45.75 319.496 45.5085 319.496 45.2273C319.496 45 319.416 44.8097 319.257 44.6562C319.098 44.5 318.854 44.3835 318.524 44.3068L317.433 44.0511C316.834 43.9091 316.393 43.6889 316.112 43.3906C315.834 43.0895 315.695 42.7131 315.695 42.2614C315.695 41.892 315.798 41.5653 316.006 41.2812C316.216 40.9972 316.501 40.7741 316.862 40.6122C317.226 40.4503 317.638 40.3693 318.098 40.3693C318.746 40.3693 319.254 40.5114 319.624 40.7955C319.996 41.0795 320.26 41.4545 320.416 41.9205ZM324.896 40.4545V41.3068H321.504V40.4545H324.896ZM322.493 38.8864H323.498V45.125C323.498 45.4091 323.539 45.6222 323.622 45.7642C323.707 45.9034 323.815 45.9972 323.946 46.0455C324.079 46.0909 324.22 46.1136 324.368 46.1136C324.478 46.1136 324.569 46.108 324.64 46.0966C324.711 46.0824 324.768 46.071 324.811 46.0625L325.015 46.9659C324.947 46.9915 324.852 47.017 324.73 47.0426C324.608 47.071 324.453 47.0852 324.265 47.0852C323.981 47.0852 323.703 47.0241 323.43 46.902C323.16 46.7798 322.936 46.5938 322.757 46.3438C322.581 46.0938 322.493 45.7784 322.493 45.3977V38.8864ZM332.835 38.2727V47H331.778V39.3807H331.727L329.596 40.7955V39.7216L331.778 38.2727H332.835Z" fill="white"/>
<path d="M275.057 92V83.2727H278.006C278.688 83.2727 279.247 83.3892 279.685 83.6222C280.122 83.8523 280.446 84.169 280.656 84.5724C280.866 84.9759 280.972 85.4347 280.972 85.9489C280.972 86.4631 280.866 86.919 280.656 87.3168C280.446 87.7145 280.124 88.027 279.689 88.2543C279.254 88.4787 278.699 88.5909 278.023 88.5909H275.636V87.6364H277.989C278.455 87.6364 278.83 87.5682 279.114 87.4318C279.401 87.2955 279.608 87.1023 279.736 86.8523C279.866 86.5994 279.932 86.2983 279.932 85.9489C279.932 85.5994 279.866 85.294 279.736 85.0327C279.605 84.7713 279.396 84.5696 279.109 84.4276C278.822 84.2827 278.443 84.2102 277.972 84.2102H276.114V92H275.057ZM279.165 88.0795L281.312 92H280.085L277.972 88.0795H279.165ZM285.27 92.1364C284.64 92.1364 284.096 91.9972 283.638 91.7188C283.184 91.4375 282.833 91.0455 282.586 90.5426C282.341 90.0369 282.219 89.4489 282.219 88.7784C282.219 88.108 282.341 87.517 282.586 87.0057C282.833 86.4915 283.176 86.0909 283.617 85.804C284.06 85.5142 284.577 85.3693 285.168 85.3693C285.509 85.3693 285.846 85.4261 286.178 85.5398C286.51 85.6534 286.813 85.8381 287.086 86.0938C287.358 86.3466 287.576 86.6818 287.738 87.0994C287.9 87.517 287.98 88.0312 287.98 88.642V89.0682H282.935V88.1989H286.958C286.958 87.8295 286.884 87.5 286.736 87.2102C286.591 86.9205 286.384 86.6918 286.114 86.5241C285.847 86.3565 285.532 86.2727 285.168 86.2727C284.767 86.2727 284.421 86.3722 284.128 86.571C283.838 86.767 283.615 87.0227 283.459 87.3381C283.303 87.6534 283.225 87.9915 283.225 88.3523V88.9318C283.225 89.4261 283.31 89.8452 283.48 90.1889C283.654 90.5298 283.894 90.7898 284.201 90.9688C284.507 91.1449 284.864 91.233 285.27 91.233C285.534 91.233 285.773 91.196 285.986 91.1222C286.202 91.0455 286.388 90.9318 286.544 90.7812C286.701 90.6278 286.821 90.4375 286.907 90.2102L287.878 90.483C287.776 90.8125 287.604 91.1023 287.363 91.3523C287.121 91.5994 286.823 91.7926 286.468 91.9318C286.113 92.0682 285.713 92.1364 285.27 92.1364ZM294.147 86.9205L293.243 87.1761C293.186 87.0256 293.103 86.8793 292.992 86.7372C292.884 86.5923 292.736 86.473 292.549 86.3793C292.361 86.2855 292.121 86.2386 291.828 86.2386C291.428 86.2386 291.094 86.331 290.827 86.5156C290.563 86.6974 290.431 86.929 290.431 87.2102C290.431 87.4602 290.522 87.6577 290.703 87.8026C290.885 87.9474 291.169 88.0682 291.556 88.1648L292.527 88.4034C293.113 88.5455 293.549 88.7628 293.836 89.0554C294.123 89.3452 294.266 89.7187 294.266 90.1761C294.266 90.5511 294.158 90.8864 293.942 91.1818C293.729 91.4773 293.431 91.7102 293.047 91.8807C292.664 92.0511 292.218 92.1364 291.709 92.1364C291.042 92.1364 290.489 91.9915 290.051 91.7017C289.614 91.4119 289.337 90.9886 289.221 90.4318L290.175 90.1932C290.266 90.5455 290.438 90.8097 290.691 90.9858C290.946 91.1619 291.28 91.25 291.692 91.25C292.161 91.25 292.533 91.1506 292.809 90.9517C293.087 90.75 293.226 90.5085 293.226 90.2273C293.226 90 293.147 89.8097 292.988 89.6562C292.828 89.5 292.584 89.3835 292.255 89.3068L291.164 89.0511C290.564 88.9091 290.124 88.6889 289.843 88.3906C289.564 88.0895 289.425 87.7131 289.425 87.2614C289.425 86.892 289.529 86.5653 289.736 86.2812C289.946 85.9972 290.232 85.7741 290.593 85.6122C290.956 85.4503 291.368 85.3693 291.828 85.3693C292.476 85.3693 292.985 85.5114 293.354 85.7955C293.726 86.0795 293.99 86.4545 294.147 86.9205ZM295.78 94.4545V85.4545H296.751V86.4943H296.871C296.945 86.3807 297.047 86.2358 297.178 86.0597C297.311 85.8807 297.501 85.7216 297.749 85.5824C297.999 85.4403 298.337 85.3693 298.763 85.3693C299.314 85.3693 299.8 85.5071 300.22 85.7827C300.641 86.0582 300.969 86.4489 301.205 86.9545C301.44 87.4602 301.558 88.0568 301.558 88.7443C301.558 89.4375 301.44 90.0384 301.205 90.5469C300.969 91.0526 300.642 91.4446 300.224 91.723C299.807 91.9986 299.325 92.1364 298.78 92.1364C298.359 92.1364 298.023 92.0668 297.77 91.9276C297.517 91.7855 297.322 91.625 297.186 91.446C297.05 91.2642 296.945 91.1136 296.871 90.9943H296.786V94.4545H295.78ZM296.768 88.7273C296.768 89.2216 296.841 89.6577 296.986 90.0355C297.131 90.4105 297.342 90.7045 297.621 90.9176C297.899 91.1278 298.24 91.233 298.643 91.233C299.064 91.233 299.415 91.1222 299.696 90.9006C299.98 90.6761 300.193 90.375 300.335 89.9972C300.48 89.6165 300.553 89.1932 300.553 88.7273C300.553 88.267 300.482 87.8523 300.339 87.483C300.2 87.1108 299.989 86.8168 299.705 86.6009C299.423 86.3821 299.07 86.2727 298.643 86.2727C298.234 86.2727 297.891 86.3764 297.612 86.5838C297.334 86.7884 297.124 87.0753 296.982 87.4446C296.839 87.8111 296.768 88.2386 296.768 88.7273ZM305.751 92.1364C305.161 92.1364 304.642 91.9957 304.196 91.7145C303.753 91.4332 303.406 91.0398 303.156 90.5341C302.909 90.0284 302.786 89.4375 302.786 88.7614C302.786 88.0795 302.909 87.4844 303.156 86.9759C303.406 86.4673 303.753 86.0724 304.196 85.7912C304.642 85.5099 305.161 85.3693 305.751 85.3693C306.342 85.3693 306.859 85.5099 307.303 85.7912C307.749 86.0724 308.095 86.4673 308.342 86.9759C308.592 87.4844 308.717 88.0795 308.717 88.7614C308.717 89.4375 308.592 90.0284 308.342 90.5341C308.095 91.0398 307.749 91.4332 307.303 91.7145C306.859 91.9957 306.342 92.1364 305.751 92.1364ZM305.751 91.233C306.2 91.233 306.57 91.1179 306.859 90.8878C307.149 90.6577 307.364 90.3551 307.503 89.9801C307.642 89.6051 307.712 89.1989 307.712 88.7614C307.712 88.3239 307.642 87.9162 307.503 87.5384C307.364 87.1605 307.149 86.8551 306.859 86.6222C306.57 86.3892 306.2 86.2727 305.751 86.2727C305.303 86.2727 304.933 86.3892 304.643 86.6222C304.354 86.8551 304.139 87.1605 304 87.5384C303.861 87.9162 303.791 88.3239 303.791 88.7614C303.791 89.1989 303.861 89.6051 304 89.9801C304.139 90.3551 304.354 90.6577 304.643 90.8878C304.933 91.1179 305.303 91.233 305.751 91.233ZM311.258 88.0625V92H310.252V85.4545H311.224V86.4773H311.309C311.463 86.1449 311.696 85.8778 312.008 85.6761C312.321 85.4716 312.724 85.3693 313.218 85.3693C313.662 85.3693 314.049 85.4602 314.382 85.642C314.714 85.821 314.973 86.0938 315.157 86.4602C315.342 86.8239 315.434 87.2841 315.434 87.8409V92H314.429V87.9091C314.429 87.3949 314.295 86.9943 314.028 86.7074C313.761 86.4176 313.395 86.2727 312.929 86.2727C312.608 86.2727 312.321 86.3423 312.068 86.4815C311.818 86.6207 311.62 86.8239 311.475 87.0909C311.331 87.358 311.258 87.6818 311.258 88.0625ZM321.908 86.9205L321.005 87.1761C320.948 87.0256 320.864 86.8793 320.754 86.7372C320.646 86.5923 320.498 86.473 320.31 86.3793C320.123 86.2855 319.883 86.2386 319.59 86.2386C319.19 86.2386 318.856 86.331 318.589 86.5156C318.325 86.6974 318.192 86.929 318.192 87.2102C318.192 87.4602 318.283 87.6577 318.465 87.8026C318.647 87.9474 318.931 88.0682 319.317 88.1648L320.289 88.4034C320.874 88.5455 321.31 88.7628 321.597 89.0554C321.884 89.3452 322.028 89.7187 322.028 90.1761C322.028 90.5511 321.92 90.8864 321.704 91.1818C321.491 91.4773 321.192 91.7102 320.809 91.8807C320.425 92.0511 319.979 92.1364 319.471 92.1364C318.803 92.1364 318.251 91.9915 317.813 91.7017C317.376 91.4119 317.099 90.9886 316.982 90.4318L317.937 90.1932C318.028 90.5455 318.2 90.8097 318.452 90.9858C318.708 91.1619 319.042 91.25 319.454 91.25C319.923 91.25 320.295 91.1506 320.57 90.9517C320.849 90.75 320.988 90.5085 320.988 90.2273C320.988 90 320.908 89.8097 320.749 89.6562C320.59 89.5 320.346 89.3835 320.016 89.3068L318.925 89.0511C318.326 88.9091 317.886 88.6889 317.604 88.3906C317.326 88.0895 317.187 87.7131 317.187 87.2614C317.187 86.892 317.29 86.5653 317.498 86.2812C317.708 85.9972 317.994 85.7741 318.354 85.6122C318.718 85.4503 319.13 85.3693 319.59 85.3693C320.238 85.3693 320.746 85.5114 321.116 85.7955C321.488 86.0795 321.752 86.4545 321.908 86.9205ZM326.286 92.1364C325.655 92.1364 325.111 91.9972 324.654 91.7188C324.199 91.4375 323.848 91.0455 323.601 90.5426C323.357 90.0369 323.235 89.4489 323.235 88.7784C323.235 88.108 323.357 87.517 323.601 87.0057C323.848 86.4915 324.192 86.0909 324.632 85.804C325.076 85.5142 325.593 85.3693 326.184 85.3693C326.525 85.3693 326.861 85.4261 327.194 85.5398C327.526 85.6534 327.828 85.8381 328.101 86.0938C328.374 86.3466 328.591 86.6818 328.753 87.0994C328.915 87.517 328.996 88.0312 328.996 88.642V89.0682H323.951V88.1989H327.973C327.973 87.8295 327.9 87.5 327.752 87.2102C327.607 86.9205 327.4 86.6918 327.13 86.5241C326.863 86.3565 326.547 86.2727 326.184 86.2727C325.783 86.2727 325.436 86.3722 325.144 86.571C324.854 86.767 324.631 87.0227 324.475 87.3381C324.319 87.6534 324.24 87.9915 324.24 88.3523V88.9318C324.24 89.4261 324.326 89.8452 324.496 90.1889C324.669 90.5298 324.909 90.7898 325.216 90.9688C325.523 91.1449 325.88 91.233 326.286 91.233C326.55 91.233 326.789 91.196 327.002 91.1222C327.218 91.0455 327.404 90.9318 327.56 90.7812C327.716 90.6278 327.837 90.4375 327.922 90.2102L328.894 90.483C328.792 90.8125 328.62 91.1023 328.378 91.3523C328.137 91.5994 327.838 91.7926 327.483 91.9318C327.128 92.0682 326.729 92.1364 326.286 92.1364ZM336.952 83.2727V92H335.895V84.3807H335.844L333.713 85.7955V84.7216L335.895 83.2727H336.952Z" fill="white"/>
<path d="M615.057 47V38.2727H618.006C618.688 38.2727 619.247 38.3892 619.685 38.6222C620.122 38.8523 620.446 39.169 620.656 39.5724C620.866 39.9759 620.972 40.4347 620.972 40.9489C620.972 41.4631 620.866 41.919 620.656 42.3168C620.446 42.7145 620.124 43.027 619.689 43.2543C619.254 43.4787 618.699 43.5909 618.023 43.5909H615.636V42.6364H617.989C618.455 42.6364 618.83 42.5682 619.114 42.4318C619.401 42.2955 619.608 42.1023 619.736 41.8523C619.866 41.5994 619.932 41.2983 619.932 40.9489C619.932 40.5994 619.866 40.294 619.736 40.0327C619.605 39.7713 619.396 39.5696 619.109 39.4276C618.822 39.2827 618.443 39.2102 617.972 39.2102H616.114V47H615.057ZM619.165 43.0795L621.312 47H620.085L617.972 43.0795H619.165ZM625.27 47.1364C624.64 47.1364 624.096 46.9972 623.638 46.7188C623.184 46.4375 622.833 46.0455 622.586 45.5426C622.341 45.0369 622.219 44.4489 622.219 43.7784C622.219 43.108 622.341 42.517 622.586 42.0057C622.833 41.4915 623.176 41.0909 623.617 40.804C624.06 40.5142 624.577 40.3693 625.168 40.3693C625.509 40.3693 625.846 40.4261 626.178 40.5398C626.51 40.6534 626.813 40.8381 627.086 41.0938C627.358 41.3466 627.576 41.6818 627.738 42.0994C627.9 42.517 627.98 43.0312 627.98 43.642V44.0682H622.935V43.1989H626.958C626.958 42.8295 626.884 42.5 626.736 42.2102C626.591 41.9205 626.384 41.6918 626.114 41.5241C625.847 41.3565 625.532 41.2727 625.168 41.2727C624.767 41.2727 624.421 41.3722 624.128 41.571C623.838 41.767 623.615 42.0227 623.459 42.3381C623.303 42.6534 623.225 42.9915 623.225 43.3523V43.9318C623.225 44.4261 623.31 44.8452 623.48 45.1889C623.654 45.5298 623.894 45.7898 624.201 45.9688C624.507 46.1449 624.864 46.233 625.27 46.233C625.534 46.233 625.773 46.196 625.986 46.1222C626.202 46.0455 626.388 45.9318 626.544 45.7812C626.701 45.6278 626.821 45.4375 626.907 45.2102L627.878 45.483C627.776 45.8125 627.604 46.1023 627.363 46.3523C627.121 46.5994 626.823 46.7926 626.468 46.9318C626.113 47.0682 625.713 47.1364 625.27 47.1364ZM633.976 49.4545V45.9943H633.891C633.817 46.1136 633.712 46.2642 633.576 46.446C633.439 46.625 633.245 46.7855 632.992 46.9276C632.739 47.0668 632.402 47.1364 631.982 47.1364C631.436 47.1364 630.955 46.9986 630.537 46.723C630.12 46.4446 629.793 46.0526 629.557 45.5469C629.321 45.0384 629.203 44.4375 629.203 43.7443C629.203 43.0568 629.321 42.4602 629.557 41.9545C629.793 41.4489 630.121 41.0582 630.542 40.7827C630.962 40.5071 631.448 40.3693 631.999 40.3693C632.425 40.3693 632.762 40.4403 633.009 40.5824C633.259 40.7216 633.449 40.8807 633.58 41.0597C633.713 41.2358 633.817 41.3807 633.891 41.4943H634.01V40.4545H634.982V49.4545H633.976ZM632.118 46.233C632.522 46.233 632.863 46.1278 633.141 45.9176C633.419 45.7045 633.631 45.4105 633.776 45.0355C633.921 44.6577 633.993 44.2216 633.993 43.7273C633.993 43.2386 633.922 42.8111 633.78 42.4446C633.638 42.0753 633.428 41.7884 633.15 41.5838C632.871 41.3764 632.527 41.2727 632.118 41.2727C631.692 41.2727 631.337 41.3821 631.053 41.6009C630.772 41.8168 630.56 42.1108 630.418 42.483C630.279 42.8523 630.209 43.267 630.209 43.7273C630.209 44.1932 630.28 44.6165 630.422 44.9972C630.567 45.375 630.78 45.6761 631.061 45.9006C631.346 46.1222 631.698 46.233 632.118 46.233ZM640.948 44.3239V40.4545H641.953V47H640.948V45.892H640.88C640.726 46.2244 640.488 46.5071 640.164 46.7401C639.84 46.9702 639.431 47.0852 638.936 47.0852C638.527 47.0852 638.164 46.9957 637.846 46.8168C637.527 46.6349 637.277 46.3622 637.096 45.9986C636.914 45.6321 636.823 45.1705 636.823 44.6136V40.4545H637.828V44.5455C637.828 45.0227 637.962 45.4034 638.229 45.6875C638.499 45.9716 638.843 46.1136 639.26 46.1136C639.51 46.1136 639.765 46.0497 640.023 45.9219C640.284 45.794 640.503 45.598 640.679 45.3338C640.858 45.0696 640.948 44.733 640.948 44.3239ZM646.54 47.1364C645.909 47.1364 645.365 46.9972 644.908 46.7188C644.453 46.4375 644.102 46.0455 643.855 45.5426C643.611 45.0369 643.489 44.4489 643.489 43.7784C643.489 43.108 643.611 42.517 643.855 42.0057C644.102 41.4915 644.446 41.0909 644.886 40.804C645.33 40.5142 645.847 40.3693 646.438 40.3693C646.778 40.3693 647.115 40.4261 647.447 40.5398C647.78 40.6534 648.082 40.8381 648.355 41.0938C648.628 41.3466 648.845 41.6818 649.007 42.0994C649.169 42.517 649.25 43.0312 649.25 43.642V44.0682H644.205V43.1989H648.227C648.227 42.8295 648.153 42.5 648.006 42.2102C647.861 41.9205 647.653 41.6918 647.384 41.5241C647.116 41.3565 646.801 41.2727 646.438 41.2727C646.037 41.2727 645.69 41.3722 645.398 41.571C645.108 41.767 644.885 42.0227 644.729 42.3381C644.572 42.6534 644.494 42.9915 644.494 43.3523V43.9318C644.494 44.4261 644.58 44.8452 644.75 45.1889C644.923 45.5298 645.163 45.7898 645.47 45.9688C645.777 46.1449 646.134 46.233 646.54 46.233C646.804 46.233 647.043 46.196 647.256 46.1222C647.472 46.0455 647.658 45.9318 647.814 45.7812C647.97 45.6278 648.091 45.4375 648.176 45.2102L649.148 45.483C649.045 45.8125 648.874 46.1023 648.632 46.3523C648.391 46.5994 648.092 46.7926 647.737 46.9318C647.382 47.0682 646.983 47.1364 646.54 47.1364ZM655.416 41.9205L654.513 42.1761C654.456 42.0256 654.372 41.8793 654.261 41.7372C654.153 41.5923 654.006 41.473 653.818 41.3793C653.631 41.2855 653.391 41.2386 653.098 41.2386C652.697 41.2386 652.364 41.331 652.097 41.5156C651.832 41.6974 651.7 41.929 651.7 42.2102C651.7 42.4602 651.791 42.6577 651.973 42.8026C652.155 42.9474 652.439 43.0682 652.825 43.1648L653.797 43.4034C654.382 43.5455 654.818 43.7628 655.105 44.0554C655.392 44.3452 655.536 44.7187 655.536 45.1761C655.536 45.5511 655.428 45.8864 655.212 46.1818C654.999 46.4773 654.7 46.7102 654.317 46.8807C653.933 47.0511 653.487 47.1364 652.979 47.1364C652.311 47.1364 651.759 46.9915 651.321 46.7017C650.884 46.4119 650.607 45.9886 650.49 45.4318L651.445 45.1932C651.536 45.5455 651.707 45.8097 651.96 45.9858C652.216 46.1619 652.55 46.25 652.962 46.25C653.43 46.25 653.803 46.1506 654.078 45.9517C654.357 45.75 654.496 45.5085 654.496 45.2273C654.496 45 654.416 44.8097 654.257 44.6562C654.098 44.5 653.854 44.3835 653.524 44.3068L652.433 44.0511C651.834 43.9091 651.393 43.6889 651.112 43.3906C650.834 43.0895 650.695 42.7131 650.695 42.2614C650.695 41.892 650.798 41.5653 651.006 41.2812C651.216 40.9972 651.501 40.7741 651.862 40.6122C652.226 40.4503 652.638 40.3693 653.098 40.3693C653.746 40.3693 654.254 40.5114 654.624 40.7955C654.996 41.0795 655.26 41.4545 655.416 41.9205ZM659.896 40.4545V41.3068H656.504V40.4545H659.896ZM657.493 38.8864H658.498V45.125C658.498 45.4091 658.539 45.6222 658.622 45.7642C658.707 45.9034 658.815 45.9972 658.946 46.0455C659.079 46.0909 659.22 46.1136 659.368 46.1136C659.478 46.1136 659.569 46.108 659.64 46.0966C659.711 46.0824 659.768 46.071 659.811 46.0625L660.015 46.9659C659.947 46.9915 659.852 47.017 659.73 47.0426C659.608 47.071 659.453 47.0852 659.265 47.0852C658.981 47.0852 658.703 47.0241 658.43 46.902C658.16 46.7798 657.936 46.5938 657.757 46.3438C657.581 46.0938 657.493 45.7784 657.493 45.3977V38.8864ZM664.767 47V46.233L667.647 43.0795C667.985 42.7102 668.264 42.3892 668.483 42.1165C668.701 41.8409 668.863 41.5824 668.968 41.3409C669.076 41.0966 669.13 40.8409 669.13 40.5739C669.13 40.267 669.056 40.0014 668.909 39.777C668.764 39.5526 668.565 39.3793 668.312 39.2571C668.059 39.1349 667.775 39.0739 667.46 39.0739C667.125 39.0739 666.832 39.1435 666.582 39.2827C666.335 39.419 666.143 39.6108 666.007 39.858C665.873 40.1051 665.806 40.3949 665.806 40.7273H664.801C664.801 40.2159 664.919 39.767 665.154 39.3807C665.39 38.9943 665.711 38.6932 666.118 38.4773C666.527 38.2614 666.985 38.1534 667.494 38.1534C668.005 38.1534 668.458 38.2614 668.853 38.4773C669.248 38.6932 669.558 38.9844 669.782 39.3509C670.007 39.7173 670.119 40.125 670.119 40.5739C670.119 40.8949 670.061 41.2088 669.944 41.5156C669.831 41.8196 669.632 42.1591 669.348 42.5341C669.066 42.9062 668.676 43.3608 668.176 43.8977L666.216 45.9943V46.0625H670.272V47H664.767Z" fill="white"/>
<path d="M610.057 92V83.2727H613.006C613.688 83.2727 614.247 83.3892 614.685 83.6222C615.122 83.8523 615.446 84.169 615.656 84.5724C615.866 84.9759 615.972 85.4347 615.972 85.9489C615.972 86.4631 615.866 86.919 615.656 87.3168C615.446 87.7145 615.124 88.027 614.689 88.2543C614.254 88.4787 613.699 88.5909 613.023 88.5909H610.636V87.6364H612.989C613.455 87.6364 613.83 87.5682 614.114 87.4318C614.401 87.2955 614.608 87.1023 614.736 86.8523C614.866 86.5994 614.932 86.2983 614.932 85.9489C614.932 85.5994 614.866 85.294 614.736 85.0327C614.605 84.7713 614.396 84.5696 614.109 84.4276C613.822 84.2827 613.443 84.2102 612.972 84.2102H611.114V92H610.057ZM614.165 88.0795L616.312 92H615.085L612.972 88.0795H614.165ZM620.27 92.1364C619.64 92.1364 619.096 91.9972 618.638 91.7188C618.184 91.4375 617.833 91.0455 617.586 90.5426C617.341 90.0369 617.219 89.4489 617.219 88.7784C617.219 88.108 617.341 87.517 617.586 87.0057C617.833 86.4915 618.176 86.0909 618.617 85.804C619.06 85.5142 619.577 85.3693 620.168 85.3693C620.509 85.3693 620.846 85.4261 621.178 85.5398C621.51 85.6534 621.813 85.8381 622.086 86.0938C622.358 86.3466 622.576 86.6818 622.738 87.0994C622.9 87.517 622.98 88.0312 622.98 88.642V89.0682H617.935V88.1989H621.958C621.958 87.8295 621.884 87.5 621.736 87.2102C621.591 86.9205 621.384 86.6918 621.114 86.5241C620.847 86.3565 620.532 86.2727 620.168 86.2727C619.767 86.2727 619.421 86.3722 619.128 86.571C618.838 86.767 618.615 87.0227 618.459 87.3381C618.303 87.6534 618.225 87.9915 618.225 88.3523V88.9318C618.225 89.4261 618.31 89.8452 618.48 90.1889C618.654 90.5298 618.894 90.7898 619.201 90.9688C619.507 91.1449 619.864 91.233 620.27 91.233C620.534 91.233 620.773 91.196 620.986 91.1222C621.202 91.0455 621.388 90.9318 621.544 90.7812C621.701 90.6278 621.821 90.4375 621.907 90.2102L622.878 90.483C622.776 90.8125 622.604 91.1023 622.363 91.3523C622.121 91.5994 621.823 91.7926 621.468 91.9318C621.113 92.0682 620.713 92.1364 620.27 92.1364ZM629.147 86.9205L628.243 87.1761C628.186 87.0256 628.103 86.8793 627.992 86.7372C627.884 86.5923 627.736 86.473 627.549 86.3793C627.361 86.2855 627.121 86.2386 626.828 86.2386C626.428 86.2386 626.094 86.331 625.827 86.5156C625.563 86.6974 625.431 86.929 625.431 87.2102C625.431 87.4602 625.522 87.6577 625.703 87.8026C625.885 87.9474 626.169 88.0682 626.556 88.1648L627.527 88.4034C628.113 88.5455 628.549 88.7628 628.836 89.0554C629.123 89.3452 629.266 89.7187 629.266 90.1761C629.266 90.5511 629.158 90.8864 628.942 91.1818C628.729 91.4773 628.431 91.7102 628.047 91.8807C627.664 92.0511 627.218 92.1364 626.709 92.1364C626.042 92.1364 625.489 91.9915 625.051 91.7017C624.614 91.4119 624.337 90.9886 624.221 90.4318L625.175 90.1932C625.266 90.5455 625.438 90.8097 625.691 90.9858C625.946 91.1619 626.28 91.25 626.692 91.25C627.161 91.25 627.533 91.1506 627.809 90.9517C628.087 90.75 628.226 90.5085 628.226 90.2273C628.226 90 628.147 89.8097 627.988 89.6562C627.828 89.5 627.584 89.3835 627.255 89.3068L626.164 89.0511C625.564 88.9091 625.124 88.6889 624.843 88.3906C624.564 88.0895 624.425 87.7131 624.425 87.2614C624.425 86.892 624.529 86.5653 624.736 86.2812C624.946 85.9972 625.232 85.7741 625.593 85.6122C625.956 85.4503 626.368 85.3693 626.828 85.3693C627.476 85.3693 627.985 85.5114 628.354 85.7955C628.726 86.0795 628.99 86.4545 629.147 86.9205ZM630.78 94.4545V85.4545H631.751V86.4943H631.871C631.945 86.3807 632.047 86.2358 632.178 86.0597C632.311 85.8807 632.501 85.7216 632.749 85.5824C632.999 85.4403 633.337 85.3693 633.763 85.3693C634.314 85.3693 634.8 85.5071 635.22 85.7827C635.641 86.0582 635.969 86.4489 636.205 86.9545C636.44 87.4602 636.558 88.0568 636.558 88.7443C636.558 89.4375 636.44 90.0384 636.205 90.5469C635.969 91.0526 635.642 91.4446 635.224 91.723C634.807 91.9986 634.325 92.1364 633.78 92.1364C633.359 92.1364 633.023 92.0668 632.77 91.9276C632.517 91.7855 632.322 91.625 632.186 91.446C632.05 91.2642 631.945 91.1136 631.871 90.9943H631.786V94.4545H630.78ZM631.768 88.7273C631.768 89.2216 631.841 89.6577 631.986 90.0355C632.131 90.4105 632.342 90.7045 632.621 90.9176C632.899 91.1278 633.24 91.233 633.643 91.233C634.064 91.233 634.415 91.1222 634.696 90.9006C634.98 90.6761 635.193 90.375 635.335 89.9972C635.48 89.6165 635.553 89.1932 635.553 88.7273C635.553 88.267 635.482 87.8523 635.339 87.483C635.2 87.1108 634.989 86.8168 634.705 86.6009C634.423 86.3821 634.07 86.2727 633.643 86.2727C633.234 86.2727 632.891 86.3764 632.612 86.5838C632.334 86.7884 632.124 87.0753 631.982 87.4446C631.839 87.8111 631.768 88.2386 631.768 88.7273ZM640.751 92.1364C640.161 92.1364 639.642 91.9957 639.196 91.7145C638.753 91.4332 638.406 91.0398 638.156 90.5341C637.909 90.0284 637.786 89.4375 637.786 88.7614C637.786 88.0795 637.909 87.4844 638.156 86.9759C638.406 86.4673 638.753 86.0724 639.196 85.7912C639.642 85.5099 640.161 85.3693 640.751 85.3693C641.342 85.3693 641.859 85.5099 642.303 85.7912C642.749 86.0724 643.095 86.4673 643.342 86.9759C643.592 87.4844 643.717 88.0795 643.717 88.7614C643.717 89.4375 643.592 90.0284 643.342 90.5341C643.095 91.0398 642.749 91.4332 642.303 91.7145C641.859 91.9957 641.342 92.1364 640.751 92.1364ZM640.751 91.233C641.2 91.233 641.57 91.1179 641.859 90.8878C642.149 90.6577 642.364 90.3551 642.503 89.9801C642.642 89.6051 642.712 89.1989 642.712 88.7614C642.712 88.3239 642.642 87.9162 642.503 87.5384C642.364 87.1605 642.149 86.8551 641.859 86.6222C641.57 86.3892 641.2 86.2727 640.751 86.2727C640.303 86.2727 639.933 86.3892 639.643 86.6222C639.354 86.8551 639.139 87.1605 639 87.5384C638.861 87.9162 638.791 88.3239 638.791 88.7614C638.791 89.1989 638.861 89.6051 639 89.9801C639.139 90.3551 639.354 90.6577 639.643 90.8878C639.933 91.1179 640.303 91.233 640.751 91.233ZM646.258 88.0625V92H645.252V85.4545H646.224V86.4773H646.309C646.463 86.1449 646.696 85.8778 647.008 85.6761C647.321 85.4716 647.724 85.3693 648.218 85.3693C648.662 85.3693 649.049 85.4602 649.382 85.642C649.714 85.821 649.973 86.0938 650.157 86.4602C650.342 86.8239 650.434 87.2841 650.434 87.8409V92H649.429V87.9091C649.429 87.3949 649.295 86.9943 649.028 86.7074C648.761 86.4176 648.395 86.2727 647.929 86.2727C647.608 86.2727 647.321 86.3423 647.068 86.4815C646.818 86.6207 646.62 86.8239 646.475 87.0909C646.331 87.358 646.258 87.6818 646.258 88.0625ZM656.908 86.9205L656.005 87.1761C655.948 87.0256 655.864 86.8793 655.754 86.7372C655.646 86.5923 655.498 86.473 655.31 86.3793C655.123 86.2855 654.883 86.2386 654.59 86.2386C654.19 86.2386 653.856 86.331 653.589 86.5156C653.325 86.6974 653.192 86.929 653.192 87.2102C653.192 87.4602 653.283 87.6577 653.465 87.8026C653.647 87.9474 653.931 88.0682 654.317 88.1648L655.289 88.4034C655.874 88.5455 656.31 88.7628 656.597 89.0554C656.884 89.3452 657.028 89.7187 657.028 90.1761C657.028 90.5511 656.92 90.8864 656.704 91.1818C656.491 91.4773 656.192 91.7102 655.809 91.8807C655.425 92.0511 654.979 92.1364 654.471 92.1364C653.803 92.1364 653.251 91.9915 652.813 91.7017C652.376 91.4119 652.099 90.9886 651.982 90.4318L652.937 90.1932C653.028 90.5455 653.2 90.8097 653.452 90.9858C653.708 91.1619 654.042 91.25 654.454 91.25C654.923 91.25 655.295 91.1506 655.57 90.9517C655.849 90.75 655.988 90.5085 655.988 90.2273C655.988 90 655.908 89.8097 655.749 89.6562C655.59 89.5 655.346 89.3835 655.016 89.3068L653.925 89.0511C653.326 88.9091 652.886 88.6889 652.604 88.3906C652.326 88.0895 652.187 87.7131 652.187 87.2614C652.187 86.892 652.29 86.5653 652.498 86.2812C652.708 85.9972 652.994 85.7741 653.354 85.6122C653.718 85.4503 654.13 85.3693 654.59 85.3693C655.238 85.3693 655.746 85.5114 656.116 85.7955C656.488 86.0795 656.752 86.4545 656.908 86.9205ZM661.286 92.1364C660.655 92.1364 660.111 91.9972 659.654 91.7188C659.199 91.4375 658.848 91.0455 658.601 90.5426C658.357 90.0369 658.235 89.4489 658.235 88.7784C658.235 88.108 658.357 87.517 658.601 87.0057C658.848 86.4915 659.192 86.0909 659.632 85.804C660.076 85.5142 660.593 85.3693 661.184 85.3693C661.525 85.3693 661.861 85.4261 662.194 85.5398C662.526 85.6534 662.828 85.8381 663.101 86.0938C663.374 86.3466 663.591 86.6818 663.753 87.0994C663.915 87.517 663.996 88.0312 663.996 88.642V89.0682H658.951V88.1989H662.973C662.973 87.8295 662.9 87.5 662.752 87.2102C662.607 86.9205 662.4 86.6918 662.13 86.5241C661.863 86.3565 661.547 86.2727 661.184 86.2727C660.783 86.2727 660.436 86.3722 660.144 86.571C659.854 86.767 659.631 87.0227 659.475 87.3381C659.319 87.6534 659.24 87.9915 659.24 88.3523V88.9318C659.24 89.4261 659.326 89.8452 659.496 90.1889C659.669 90.5298 659.909 90.7898 660.216 90.9688C660.523 91.1449 660.88 91.233 661.286 91.233C661.55 91.233 661.789 91.196 662.002 91.1222C662.218 91.0455 662.404 90.9318 662.56 90.7812C662.716 90.6278 662.837 90.4375 662.922 90.2102L663.894 90.483C663.792 90.8125 663.62 91.1023 663.378 91.3523C663.137 91.5994 662.838 91.7926 662.483 91.9318C662.128 92.0682 661.729 92.1364 661.286 92.1364ZM668.884 92V91.233L671.765 88.0795C672.103 87.7102 672.381 87.3892 672.6 87.1165C672.819 86.8409 672.98 86.5824 673.086 86.3409C673.194 86.0966 673.248 85.8409 673.248 85.5739C673.248 85.267 673.174 85.0014 673.026 84.777C672.881 84.5526 672.682 84.3793 672.429 84.2571C672.176 84.1349 671.892 84.0739 671.577 84.0739C671.242 84.0739 670.949 84.1435 670.699 84.2827C670.452 84.419 670.26 84.6108 670.124 84.858C669.99 85.1051 669.924 85.3949 669.924 85.7273H668.918C668.918 85.2159 669.036 84.767 669.272 84.3807C669.507 83.9943 669.828 83.6932 670.235 83.4773C670.644 83.2614 671.103 83.1534 671.611 83.1534C672.123 83.1534 672.576 83.2614 672.971 83.4773C673.365 83.6932 673.675 83.9844 673.9 84.3509C674.124 84.7173 674.236 85.125 674.236 85.5739C674.236 85.8949 674.178 86.2088 674.061 86.5156C673.948 86.8196 673.749 87.1591 673.465 87.5341C673.184 87.9062 672.793 88.3608 672.293 88.8977L670.333 90.9943V91.0625H674.39V92H668.884Z" fill="white"/>
<path d="M602.707 43.7071C603.098 43.3166 603.098 42.6834 602.707 42.2929L596.343 35.9289C595.953 35.5384 595.319 35.5384 594.929 35.9289C594.538 36.3195 594.538 36.9526 594.929 37.3431L600.586 43L594.929 48.6569C594.538 49.0474 594.538 49.6805 594.929 50.0711C595.319 50.4616 595.953 50.4616 596.343 50.0711L602.707 43.7071ZM512 44H602V42H512V44Z" fill="#F4F4F4"/>
<path d="M511.293 87.2929C510.902 87.6834 510.902 88.3166 511.293 88.7071L517.657 95.0711C518.047 95.4616 518.681 95.4616 519.071 95.0711C519.462 94.6805 519.462 94.0474 519.071 93.6569L513.414 88L519.071 82.3431C519.462 81.9526 519.462 81.3195 519.071 80.9289C518.681 80.5384 518.047 80.5384 517.657 80.9289L511.293 87.2929ZM602 87L512 87V89L602 89V87Z" fill="#F4F4F4"/>
<path d="M269.707 43.7071C270.098 43.3166 270.098 42.6834 269.707 42.2929L263.343 35.9289C262.953 35.5384 262.319 35.5384 261.929 35.9289C261.538 36.3195 261.538 36.9526 261.929 37.3431L267.586 43L261.929 48.6569C261.538 49.0474 261.538 49.6805 261.929 50.0711C262.319 50.4616 262.953 50.4616 263.343 50.0711L269.707 43.7071ZM179 44H269V42H179V44Z" fill="#F4F4F4"/>
<path d="M269.707 43.7071C270.098 43.3166 270.098 42.6834 269.707 42.2929L263.343 35.9289C262.953 35.5384 262.319 35.5384 261.929 35.9289C261.538 36.3195 261.538 36.9526 261.929 37.3431L267.586 43L261.929 48.6569C261.538 49.0474 261.538 49.6805 261.929 50.0711C262.319 50.4616 262.953 50.4616 263.343 50.0711L269.707 43.7071ZM179 44H269V42H179V44Z" fill="#F4F4F4"/>
<path d="M178.293 87.2929C177.902 87.6834 177.902 88.3166 178.293 88.7071L184.657 95.0711C185.047 95.4616 185.681 95.4616 186.071 95.0711C186.462 94.6805 186.462 94.0474 186.071 93.6569L180.414 88L186.071 82.3431C186.462 81.9526 186.462 81.3195 186.071 80.9289C185.681 80.5384 185.047 80.5384 184.657 80.9289L178.293 87.2929ZM269 87L179 87V89L269 89V87Z" fill="#F4F4F4"/>
<path d="M436.707 43.7071C437.098 43.3166 437.098 42.6834 436.707 42.2929L430.343 35.9289C429.953 35.5384 429.319 35.5384 428.929 35.9289C428.538 36.3195 428.538 36.9526 428.929 37.3431L434.586 43L428.929 48.6569C428.538 49.0474 428.538 49.6805 428.929 50.0711C429.319 50.4616 429.953 50.4616 430.343 50.0711L436.707 43.7071ZM346 44H436V42H346V44Z" fill="#F4F4F4"/>
<path d="M345.293 87.2929C344.902 87.6834 344.902 88.3166 345.293 88.7071L351.657 95.0711C352.047 95.4616 352.681 95.4616 353.071 95.0711C353.462 94.6805 353.462 94.0474 353.071 93.6569L347.414 88L353.071 82.3431C353.462 81.9526 353.462 81.3195 353.071 80.9289C352.681 80.5384 352.047 80.5384 351.657 80.9289L345.293 87.2929ZM436 87L346 87V89L436 89V87Z" fill="#F4F4F4"/>
</svg>
