<svg width="117" height="10" viewBox="0 0 117 10" fill="none" xmlns="http://www.w3.org/2000/svg">
<path d="M0.0568182 9V0.272727H1.11364V8.0625H5.17045V9H0.0568182ZM9.32955 9.13636C8.73864 9.13636 8.22017 8.99574 7.77415 8.71449C7.33097 8.43324 6.98438 8.03977 6.73438 7.53409C6.48722 7.02841 6.36364 6.4375 6.36364 5.76136C6.36364 5.07955 6.48722 4.48437 6.73438 3.97585C6.98438 3.46733 7.33097 3.07244 7.77415 2.79119C8.22017 2.50994 8.73864 2.36932 9.32955 2.36932C9.92045 2.36932 10.4375 2.50994 10.8807 2.79119C11.3267 3.07244 11.6733 3.46733 11.9205 3.97585C12.1705 4.48437 12.2955 5.07955 12.2955 5.76136C12.2955 6.4375 12.1705 7.02841 11.9205 7.53409C11.6733 8.03977 11.3267 8.43324 10.8807 8.71449C10.4375 8.99574 9.92045 9.13636 9.32955 9.13636ZM9.32955 8.23295C9.77841 8.23295 10.1477 8.1179 10.4375 7.88778C10.7273 7.65767 10.9418 7.35511 11.081 6.98011C11.2202 6.60511 11.2898 6.19886 11.2898 5.76136C11.2898 5.32386 11.2202 4.91619 11.081 4.53835C10.9418 4.16051 10.7273 3.85511 10.4375 3.62216C10.1477 3.3892 9.77841 3.27273 9.32955 3.27273C8.88068 3.27273 8.51136 3.3892 8.22159 3.62216C7.93182 3.85511 7.71733 4.16051 7.57812 4.53835C7.43892 4.91619 7.36932 5.32386 7.36932 5.76136C7.36932 6.19886 7.43892 6.60511 7.57812 6.98011C7.71733 7.35511 7.93182 7.65767 8.22159 7.88778C8.51136 8.1179 8.88068 8.23295 9.32955 8.23295ZM15.7567 9.15341C15.342 9.15341 14.9656 9.07528 14.6275 8.91903C14.2894 8.75994 14.021 8.53125 13.8221 8.23295C13.6232 7.93182 13.5238 7.56818 13.5238 7.14205C13.5238 6.76705 13.5977 6.46307 13.7454 6.23011C13.8931 5.99432 14.0906 5.80966 14.3377 5.67614C14.5849 5.54261 14.8576 5.44318 15.1559 5.37784C15.457 5.30966 15.7596 5.25568 16.0636 5.21591C16.4613 5.16477 16.7837 5.12642 17.0309 5.10085C17.2809 5.07244 17.4627 5.02557 17.5763 4.96023C17.6928 4.89489 17.7511 4.78125 17.7511 4.61932V4.58523C17.7511 4.16477 17.636 3.83807 17.4059 3.60511C17.1786 3.37216 16.8335 3.25568 16.3704 3.25568C15.8903 3.25568 15.5138 3.3608 15.2411 3.57102C14.9684 3.78125 14.7766 4.00568 14.6658 4.24432L13.7113 3.90341C13.8817 3.50568 14.109 3.19602 14.3931 2.97443C14.68 2.75 14.9925 2.59375 15.3306 2.50568C15.6715 2.41477 16.0067 2.36932 16.3363 2.36932C16.5465 2.36932 16.788 2.39489 17.0607 2.44602C17.3363 2.49432 17.6019 2.59517 17.8576 2.74858C18.1161 2.90199 18.3306 3.13352 18.5011 3.44318C18.6715 3.75284 18.7567 4.16761 18.7567 4.6875V9H17.7511V8.11364H17.6999C17.6317 8.25568 17.5181 8.40767 17.359 8.5696C17.1999 8.73153 16.9883 8.86932 16.7241 8.98295C16.4599 9.09659 16.1374 9.15341 15.7567 9.15341ZM15.9102 8.25C16.3079 8.25 16.6431 8.17188 16.9158 8.01562C17.1914 7.85938 17.3988 7.65767 17.538 7.41051C17.68 7.16335 17.7511 6.90341 17.7511 6.63068V5.71023C17.7085 5.76136 17.6147 5.80824 17.4698 5.85085C17.3278 5.89062 17.163 5.92614 16.9755 5.95739C16.7908 5.9858 16.6104 6.01136 16.4343 6.03409C16.261 6.05398 16.1204 6.07102 16.0124 6.08523C15.7511 6.11932 15.5067 6.17472 15.2795 6.25142C15.055 6.32528 14.8732 6.4375 14.734 6.58807C14.5977 6.7358 14.5295 6.9375 14.5295 7.19318C14.5295 7.54261 14.6587 7.80682 14.9173 7.9858C15.1786 8.16193 15.5096 8.25 15.9102 8.25ZM23.0639 9.13636C22.5185 9.13636 22.0369 8.99858 21.6193 8.72301C21.2017 8.4446 20.875 8.05256 20.6392 7.54688C20.4034 7.03835 20.2855 6.4375 20.2855 5.74432C20.2855 5.05682 20.4034 4.46023 20.6392 3.95455C20.875 3.44886 21.2031 3.05824 21.6236 2.78267C22.044 2.5071 22.5298 2.36932 23.081 2.36932C23.5071 2.36932 23.8438 2.44034 24.0909 2.58239C24.3409 2.72159 24.5313 2.88068 24.6619 3.05966C24.7955 3.2358 24.8991 3.38068 24.973 3.49432H25.0582V0.272727H26.0639V9H25.0923V7.99432H24.973C24.8991 8.11364 24.794 8.2642 24.6577 8.44602C24.5213 8.625 24.3267 8.78551 24.0739 8.92756C23.821 9.06676 23.4844 9.13636 23.0639 9.13636ZM23.2003 8.23295C23.6037 8.23295 23.9446 8.12784 24.223 7.91761C24.5014 7.70455 24.7131 7.41051 24.858 7.03551C25.0028 6.65767 25.0753 6.22159 25.0753 5.72727C25.0753 5.23864 25.0043 4.81108 24.8622 4.4446C24.7202 4.07528 24.5099 3.78835 24.2315 3.58381C23.9531 3.37642 23.6094 3.27273 23.2003 3.27273C22.7741 3.27273 22.419 3.3821 22.1349 3.60085C21.8537 3.81676 21.642 4.1108 21.5 4.48295C21.3608 4.85227 21.2912 5.26705 21.2912 5.72727C21.2912 6.19318 21.3622 6.61648 21.5043 6.99716C21.6491 7.375 21.8622 7.67614 22.1435 7.90057C22.4276 8.12216 22.7798 8.23295 23.2003 8.23295ZM28.1818 9V0.272727H29.1875V3.49432H29.2727C29.3466 3.38068 29.4489 3.2358 29.5795 3.05966C29.7131 2.88068 29.9034 2.72159 30.1506 2.58239C30.4006 2.44034 30.7386 2.36932 31.1648 2.36932C31.7159 2.36932 32.2017 2.5071 32.6222 2.78267C33.0426 3.05824 33.3707 3.44886 33.6065 3.95455C33.8423 4.46023 33.9602 5.05682 33.9602 5.74432C33.9602 6.4375 33.8423 7.03835 33.6065 7.54688C33.3707 8.05256 33.044 8.4446 32.6264 8.72301C32.2088 8.99858 31.7273 9.13636 31.1818 9.13636C30.7614 9.13636 30.4247 9.06676 30.1719 8.92756C29.919 8.78551 29.7244 8.625 29.5881 8.44602C29.4517 8.2642 29.3466 8.11364 29.2727 7.99432H29.1534V9H28.1818ZM29.1705 5.72727C29.1705 6.22159 29.2429 6.65767 29.3878 7.03551C29.5327 7.41051 29.7443 7.70455 30.0227 7.91761C30.3011 8.12784 30.642 8.23295 31.0455 8.23295C31.4659 8.23295 31.8168 8.12216 32.098 7.90057C32.3821 7.67614 32.5952 7.375 32.7372 6.99716C32.8821 6.61648 32.9545 6.19318 32.9545 5.72727C32.9545 5.26705 32.8835 4.85227 32.7415 4.48295C32.6023 4.1108 32.3906 3.81676 32.1065 3.60085C31.8253 3.3821 31.4716 3.27273 31.0455 3.27273C30.6364 3.27273 30.2926 3.37642 30.0142 3.58381C29.7358 3.78835 29.5256 4.07528 29.3835 4.4446C29.2415 4.81108 29.1705 5.23864 29.1705 5.72727ZM37.4247 9.15341C37.0099 9.15341 36.6335 9.07528 36.2955 8.91903C35.9574 8.75994 35.6889 8.53125 35.4901 8.23295C35.2912 7.93182 35.1918 7.56818 35.1918 7.14205C35.1918 6.76705 35.2656 6.46307 35.4134 6.23011C35.5611 5.99432 35.7585 5.80966 36.0057 5.67614C36.2528 5.54261 36.5256 5.44318 36.8239 5.37784C37.125 5.30966 37.4276 5.25568 37.7315 5.21591C38.1293 5.16477 38.4517 5.12642 38.6989 5.10085C38.9489 5.07244 39.1307 5.02557 39.2443 4.96023C39.3608 4.89489 39.419 4.78125 39.419 4.61932V4.58523C39.419 4.16477 39.304 3.83807 39.0739 3.60511C38.8466 3.37216 38.5014 3.25568 38.0384 3.25568C37.5582 3.25568 37.1818 3.3608 36.9091 3.57102C36.6364 3.78125 36.4446 4.00568 36.3338 4.24432L35.3793 3.90341C35.5497 3.50568 35.777 3.19602 36.0611 2.97443C36.348 2.75 36.6605 2.59375 36.9986 2.50568C37.3395 2.41477 37.6747 2.36932 38.0043 2.36932C38.2145 2.36932 38.456 2.39489 38.7287 2.44602C39.0043 2.49432 39.2699 2.59517 39.5256 2.74858C39.7841 2.90199 39.9986 3.13352 40.169 3.44318C40.3395 3.75284 40.4247 4.16761 40.4247 4.6875V9H39.419V8.11364H39.3679C39.2997 8.25568 39.1861 8.40767 39.027 8.5696C38.8679 8.73153 38.6563 8.86932 38.392 8.98295C38.1278 9.09659 37.8054 9.15341 37.4247 9.15341ZM37.5781 8.25C37.9759 8.25 38.3111 8.17188 38.5838 8.01562C38.8594 7.85938 39.0668 7.65767 39.206 7.41051C39.348 7.16335 39.419 6.90341 39.419 6.63068V5.71023C39.3764 5.76136 39.2827 5.80824 39.1378 5.85085C38.9957 5.89062 38.831 5.92614 38.6435 5.95739C38.4588 5.9858 38.2784 6.01136 38.1023 6.03409C37.929 6.05398 37.7884 6.07102 37.6804 6.08523C37.419 6.11932 37.1747 6.17472 36.9474 6.25142C36.723 6.32528 36.5412 6.4375 36.402 6.58807C36.2656 6.7358 36.1974 6.9375 36.1974 7.19318C36.1974 7.54261 36.3267 7.80682 36.5852 7.9858C36.8466 8.16193 37.1776 8.25 37.5781 8.25ZM43.266 0.272727V9H42.2603V0.272727H43.266ZM47.0341 9.15341C46.6193 9.15341 46.2429 9.07528 45.9048 8.91903C45.5668 8.75994 45.2983 8.53125 45.0994 8.23295C44.9006 7.93182 44.8011 7.56818 44.8011 7.14205C44.8011 6.76705 44.875 6.46307 45.0227 6.23011C45.1705 5.99432 45.3679 5.80966 45.6151 5.67614C45.8622 5.54261 46.1349 5.44318 46.4332 5.37784C46.7344 5.30966 47.0369 5.25568 47.3409 5.21591C47.7386 5.16477 48.0611 5.12642 48.3082 5.10085C48.5582 5.07244 48.7401 5.02557 48.8537 4.96023C48.9702 4.89489 49.0284 4.78125 49.0284 4.61932V4.58523C49.0284 4.16477 48.9134 3.83807 48.6832 3.60511C48.456 3.37216 48.1108 3.25568 47.6477 3.25568C47.1676 3.25568 46.7912 3.3608 46.5185 3.57102C46.2457 3.78125 46.054 4.00568 45.9432 4.24432L44.9886 3.90341C45.1591 3.50568 45.3864 3.19602 45.6705 2.97443C45.9574 2.75 46.2699 2.59375 46.608 2.50568C46.9489 2.41477 47.2841 2.36932 47.6136 2.36932C47.8239 2.36932 48.0653 2.39489 48.3381 2.44602C48.6136 2.49432 48.8793 2.59517 49.1349 2.74858C49.3935 2.90199 49.608 3.13352 49.7784 3.44318C49.9489 3.75284 50.0341 4.16761 50.0341 4.6875V9H49.0284V8.11364H48.9773C48.9091 8.25568 48.7955 8.40767 48.6364 8.5696C48.4773 8.73153 48.2656 8.86932 48.0014 8.98295C47.7372 9.09659 47.4148 9.15341 47.0341 9.15341ZM47.1875 8.25C47.5852 8.25 47.9205 8.17188 48.1932 8.01562C48.4688 7.85938 48.6761 7.65767 48.8153 7.41051C48.9574 7.16335 49.0284 6.90341 49.0284 6.63068V5.71023C48.9858 5.76136 48.892 5.80824 48.7472 5.85085C48.6051 5.89062 48.4403 5.92614 48.2528 5.95739C48.0682 5.9858 47.8878 6.01136 47.7116 6.03409C47.5384 6.05398 47.3977 6.07102 47.2898 6.08523C47.0284 6.11932 46.7841 6.17472 46.5568 6.25142C46.3324 6.32528 46.1506 6.4375 46.0114 6.58807C45.875 6.7358 45.8068 6.9375 45.8068 7.19318C45.8068 7.54261 45.9361 7.80682 46.1946 7.9858C46.456 8.16193 46.7869 8.25 47.1875 8.25ZM52.8754 5.0625V9H51.8697V2.45455H52.8413V3.47727H52.9265C53.0799 3.14489 53.3129 2.87784 53.6254 2.67614C53.9379 2.47159 54.3413 2.36932 54.8356 2.36932C55.2788 2.36932 55.6665 2.46023 55.9989 2.64205C56.3313 2.82102 56.5898 3.09375 56.7745 3.46023C56.9592 3.82386 57.0515 4.28409 57.0515 4.84091V9H56.0458V4.90909C56.0458 4.39489 55.9123 3.99432 55.6452 3.70739C55.3782 3.41761 55.0117 3.27273 54.5458 3.27273C54.2248 3.27273 53.9379 3.34233 53.685 3.48153C53.435 3.62074 53.2376 3.82386 53.0927 4.09091C52.9478 4.35795 52.8754 4.68182 52.8754 5.0625ZM61.5483 9.13636C60.9347 9.13636 60.4063 8.99148 59.9631 8.7017C59.5199 8.41193 59.179 8.01278 58.9403 7.50426C58.7017 6.99574 58.5824 6.41477 58.5824 5.76136C58.5824 5.09659 58.7045 4.50994 58.9489 4.00142C59.196 3.49006 59.5398 3.09091 59.9801 2.80398C60.4233 2.5142 60.9403 2.36932 61.5312 2.36932C61.9915 2.36932 62.4062 2.45455 62.7756 2.625C63.1449 2.79545 63.4474 3.03409 63.6832 3.34091C63.919 3.64773 64.0653 4.00568 64.1222 4.41477H63.1165C63.0398 4.11648 62.8693 3.85227 62.6051 3.62216C62.3438 3.3892 61.9915 3.27273 61.5483 3.27273C61.1563 3.27273 60.8125 3.375 60.517 3.57955C60.2244 3.78125 59.9957 4.06676 59.831 4.43608C59.669 4.80256 59.5881 5.23295 59.5881 5.72727C59.5881 6.23295 59.6676 6.6733 59.8267 7.0483C59.9886 7.4233 60.2159 7.71449 60.5085 7.92188C60.804 8.12926 61.1506 8.23295 61.5483 8.23295C61.8097 8.23295 62.0469 8.1875 62.2599 8.09659C62.473 8.00568 62.6534 7.875 62.8011 7.70455C62.9489 7.53409 63.054 7.32955 63.1165 7.09091H64.1222C64.0653 7.47727 63.9247 7.82528 63.7003 8.13494C63.4787 8.44176 63.1847 8.68608 62.8182 8.8679C62.4545 9.04688 62.0313 9.13636 61.5483 9.13636ZM68.3366 9.13636C67.706 9.13636 67.1619 8.99716 66.7045 8.71875C66.25 8.4375 65.8991 8.04545 65.652 7.54261C65.4077 7.03693 65.2855 6.44886 65.2855 5.77841C65.2855 5.10795 65.4077 4.51705 65.652 4.00568C65.8991 3.49148 66.2429 3.09091 66.6832 2.80398C67.1264 2.5142 67.6435 2.36932 68.2344 2.36932C68.5753 2.36932 68.9119 2.42614 69.2443 2.53977C69.5767 2.65341 69.8793 2.83807 70.152 3.09375C70.4247 3.34659 70.642 3.68182 70.804 4.09943C70.9659 4.51705 71.0469 5.03125 71.0469 5.64205V6.06818H66.0014V5.19886H70.0241C70.0241 4.82955 69.9503 4.5 69.8026 4.21023C69.6577 3.92045 69.4503 3.69176 69.1804 3.52415C68.9134 3.35653 68.598 3.27273 68.2344 3.27273C67.8338 3.27273 67.4872 3.37216 67.1946 3.57102C66.9048 3.76705 66.6818 4.02273 66.5256 4.33807C66.3693 4.65341 66.2912 4.99148 66.2912 5.35227V5.93182C66.2912 6.42614 66.3764 6.84517 66.5469 7.18892C66.7202 7.52983 66.9602 7.78977 67.267 7.96875C67.5739 8.14489 67.9304 8.23295 68.3366 8.23295C68.6009 8.23295 68.8395 8.19602 69.0526 8.12216C69.2685 8.04545 69.4545 7.93182 69.6108 7.78125C69.767 7.62784 69.8878 7.4375 69.973 7.21023L70.9446 7.48295C70.8423 7.8125 70.6705 8.10227 70.429 8.35227C70.1875 8.59943 69.8892 8.79261 69.5341 8.93182C69.179 9.06818 68.7798 9.13636 68.3366 9.13636ZM72.5767 9V2.45455H73.5483V3.44318H73.6165C73.7358 3.11932 73.9517 2.85653 74.2642 2.65483C74.5767 2.45312 74.929 2.35227 75.321 2.35227C75.3949 2.35227 75.4872 2.35369 75.598 2.35653C75.7088 2.35937 75.7926 2.36364 75.8494 2.36932V3.39205C75.8153 3.38352 75.7372 3.37074 75.6151 3.35369C75.4957 3.33381 75.3693 3.32386 75.2358 3.32386C74.9176 3.32386 74.6335 3.39062 74.3835 3.52415C74.1364 3.65483 73.9403 3.83665 73.7955 4.0696C73.6534 4.29972 73.5824 4.5625 73.5824 4.85795V9H72.5767ZM85.3256 2.45455C85.2745 2.02273 85.0671 1.6875 84.7035 1.44886C84.3398 1.21023 83.8938 1.09091 83.3654 1.09091C82.979 1.09091 82.641 1.15341 82.3512 1.27841C82.0643 1.40341 81.8398 1.57528 81.6779 1.79403C81.5188 2.01278 81.4393 2.26136 81.4393 2.53977C81.4393 2.77273 81.4947 2.97301 81.6055 3.14062C81.7191 3.3054 81.864 3.44318 82.0401 3.55398C82.2163 3.66193 82.4009 3.75142 82.5941 3.82244C82.7873 3.89062 82.9648 3.94602 83.1268 3.98864L84.0131 4.22727C84.2404 4.28693 84.4933 4.36932 84.7717 4.47443C85.0529 4.57955 85.3214 4.72301 85.5771 4.90483C85.8356 5.08381 86.0487 5.31392 86.2163 5.59517C86.3839 5.87642 86.4677 6.22159 86.4677 6.63068C86.4677 7.10227 86.3441 7.52841 86.0969 7.90909C85.8526 8.28977 85.4947 8.59233 85.0231 8.81676C84.5543 9.04119 83.9847 9.15341 83.3143 9.15341C82.6893 9.15341 82.1481 9.05256 81.6907 8.85085C81.2362 8.64915 80.8782 8.3679 80.6168 8.0071C80.3583 7.64631 80.212 7.22727 80.1779 6.75H81.2688C81.2972 7.07955 81.408 7.35227 81.6012 7.56818C81.7972 7.78125 82.0444 7.94034 82.3427 8.04545C82.6438 8.14773 82.9677 8.19886 83.3143 8.19886C83.7177 8.19886 84.0799 8.13352 84.4009 8.00284C84.7219 7.86932 84.9762 7.68466 85.1637 7.44886C85.3512 7.21023 85.445 6.93182 85.445 6.61364C85.445 6.32386 85.364 6.08807 85.2021 5.90625C85.0401 5.72443 84.8271 5.5767 84.5629 5.46307C84.2987 5.34943 84.0131 5.25 83.7063 5.16477L82.6325 4.85795C81.9506 4.66193 81.4109 4.3821 81.0131 4.01847C80.6154 3.65483 80.4165 3.17898 80.4165 2.59091C80.4165 2.10227 80.5487 1.67614 80.8129 1.3125C81.0799 0.946023 81.4379 0.661932 81.8867 0.460227C82.3384 0.255682 82.8427 0.153409 83.3995 0.153409C83.962 0.153409 84.462 0.254261 84.8995 0.455966C85.337 0.654829 85.6836 0.927556 85.9393 1.27415C86.1978 1.62074 86.3342 2.0142 86.3484 2.45455H85.3256ZM90.8132 9.13636C90.1825 9.13636 89.6385 8.99716 89.1811 8.71875C88.7266 8.4375 88.3757 8.04545 88.1286 7.54261C87.8842 7.03693 87.7621 6.44886 87.7621 5.77841C87.7621 5.10795 87.8842 4.51705 88.1286 4.00568C88.3757 3.49148 88.7195 3.09091 89.1598 2.80398C89.603 2.5142 90.12 2.36932 90.7109 2.36932C91.0518 2.36932 91.3885 2.42614 91.7209 2.53977C92.0533 2.65341 92.3558 2.83807 92.6286 3.09375C92.9013 3.34659 93.1186 3.68182 93.2805 4.09943C93.4425 4.51705 93.5234 5.03125 93.5234 5.64205V6.06818H88.478V5.19886H92.5007C92.5007 4.82955 92.4268 4.5 92.2791 4.21023C92.1342 3.92045 91.9268 3.69176 91.657 3.52415C91.3899 3.35653 91.0746 3.27273 90.7109 3.27273C90.3104 3.27273 89.9638 3.37216 89.6712 3.57102C89.3814 3.76705 89.1584 4.02273 89.0021 4.33807C88.8459 4.65341 88.7678 4.99148 88.7678 5.35227V5.93182C88.7678 6.42614 88.853 6.84517 89.0234 7.18892C89.1967 7.52983 89.4368 7.78977 89.7436 7.96875C90.0504 8.14489 90.407 8.23295 90.8132 8.23295C91.0774 8.23295 91.3161 8.19602 91.5291 8.12216C91.745 8.04545 91.9311 7.93182 92.0874 7.78125C92.2436 7.62784 92.3643 7.4375 92.4496 7.21023L93.4212 7.48295C93.3189 7.8125 93.147 8.10227 92.9055 8.35227C92.6641 8.59943 92.3658 8.79261 92.0107 8.93182C91.6555 9.06818 91.2564 9.13636 90.8132 9.13636ZM95.0533 9V2.45455H96.0249V3.44318H96.093C96.2124 3.11932 96.4283 2.85653 96.7408 2.65483C97.0533 2.45312 97.4055 2.35227 97.7976 2.35227C97.8714 2.35227 97.9638 2.35369 98.0746 2.35653C98.1854 2.35937 98.2692 2.36364 98.326 2.36932V3.39205C98.2919 3.38352 98.2138 3.37074 98.0916 3.35369C97.9723 3.33381 97.8459 3.32386 97.7124 3.32386C97.3942 3.32386 97.1101 3.39062 96.8601 3.52415C96.6129 3.65483 96.4169 3.83665 96.272 4.0696C96.13 4.29972 96.0589 4.5625 96.0589 4.85795V9H95.0533ZM105.07 2.45455L102.649 9H101.626L99.206 2.45455H100.297L102.104 7.67045H102.172L103.979 2.45455H105.07ZM108.907 9.13636C108.276 9.13636 107.732 8.99716 107.275 8.71875C106.82 8.4375 106.469 8.04545 106.222 7.54261C105.978 7.03693 105.856 6.44886 105.856 5.77841C105.856 5.10795 105.978 4.51705 106.222 4.00568C106.469 3.49148 106.813 3.09091 107.254 2.80398C107.697 2.5142 108.214 2.36932 108.805 2.36932C109.146 2.36932 109.482 2.42614 109.815 2.53977C110.147 2.65341 110.45 2.83807 110.722 3.09375C110.995 3.34659 111.212 3.68182 111.374 4.09943C111.536 4.51705 111.617 5.03125 111.617 5.64205V6.06818H106.572V5.19886H110.594C110.594 4.82955 110.521 4.5 110.373 4.21023C110.228 3.92045 110.021 3.69176 109.751 3.52415C109.484 3.35653 109.168 3.27273 108.805 3.27273C108.404 3.27273 108.058 3.37216 107.765 3.57102C107.475 3.76705 107.252 4.02273 107.096 4.33807C106.94 4.65341 106.862 4.99148 106.862 5.35227V5.93182C106.862 6.42614 106.947 6.84517 107.117 7.18892C107.29 7.52983 107.531 7.78977 107.837 7.96875C108.144 8.14489 108.501 8.23295 108.907 8.23295C109.171 8.23295 109.41 8.19602 109.623 8.12216C109.839 8.04545 110.025 7.93182 110.181 7.78125C110.337 7.62784 110.458 7.4375 110.543 7.21023L111.515 7.48295C111.413 7.8125 111.241 8.10227 110.999 8.35227C110.758 8.59943 110.46 8.79261 110.104 8.93182C109.749 9.06818 109.35 9.13636 108.907 9.13636ZM113.147 9V2.45455H114.119V3.44318H114.187C114.306 3.11932 114.522 2.85653 114.835 2.65483C115.147 2.45312 115.499 2.35227 115.891 2.35227C115.965 2.35227 116.058 2.35369 116.168 2.35653C116.279 2.35937 116.363 2.36364 116.42 2.36932V3.39205C116.386 3.38352 116.308 3.37074 116.185 3.35369C116.066 3.33381 115.94 3.32386 115.806 3.32386C115.488 3.32386 115.204 3.39062 114.954 3.52415C114.707 3.65483 114.511 3.83665 114.366 4.0696C114.224 4.29972 114.153 4.5625 114.153 4.85795V9H113.147Z" fill="white"/>
</svg>
