<svg width="39" height="12" viewBox="0 0 39 12" fill="none" xmlns="http://www.w3.org/2000/svg">
<path d="M0.0568182 9V0.272727H3.00568C3.6875 0.272727 4.24716 0.389204 4.68466 0.622159C5.12216 0.852272 5.44602 1.16903 5.65625 1.57244C5.86648 1.97585 5.97159 2.43466 5.97159 2.94886C5.97159 3.46307 5.86648 3.91903 5.65625 4.31676C5.44602 4.71449 5.12358 5.02699 4.68892 5.25426C4.25426 5.47869 3.69886 5.59091 3.02273 5.59091H0.636364V4.63636H2.98864C3.45455 4.63636 3.82955 4.56818 4.11364 4.43182C4.40057 4.29545 4.60795 4.10227 4.7358 3.85227C4.86648 3.59943 4.93182 3.2983 4.93182 2.94886C4.93182 2.59943 4.86648 2.29403 4.7358 2.03267C4.60511 1.77131 4.39631 1.5696 4.10938 1.42756C3.82244 1.28267 3.44318 1.21023 2.97159 1.21023H1.11364V9H0.0568182ZM4.16477 5.07955L6.3125 9H5.08523L2.97159 5.07955H4.16477ZM10.2702 9.13636C9.63956 9.13636 9.09553 8.99716 8.63814 8.71875C8.18359 8.4375 7.83274 8.04545 7.58558 7.54261C7.34126 7.03693 7.21911 6.44886 7.21911 5.77841C7.21911 5.10795 7.34126 4.51705 7.58558 4.00568C7.83274 3.49148 8.17649 3.09091 8.61683 2.80398C9.06001 2.5142 9.57706 2.36932 10.168 2.36932C10.5089 2.36932 10.8455 2.42614 11.1779 2.53977C11.5103 2.65341 11.8129 2.83807 12.0856 3.09375C12.3583 3.34659 12.5756 3.68182 12.7376 4.09943C12.8995 4.51705 12.9805 5.03125 12.9805 5.64205V6.06818H7.93501V5.19886H11.9577C11.9577 4.82955 11.8839 4.5 11.7362 4.21023C11.5913 3.92045 11.3839 3.69176 11.114 3.52415C10.8469 3.35653 10.5316 3.27273 10.168 3.27273C9.7674 3.27273 9.42081 3.37216 9.1282 3.57102C8.83842 3.76705 8.61541 4.02273 8.45916 4.33807C8.30291 4.65341 8.22479 4.99148 8.22479 5.35227V5.93182C8.22479 6.42614 8.31001 6.84517 8.48047 7.18892C8.65376 7.52983 8.89382 7.78977 9.20064 7.96875C9.50746 8.14489 9.86399 8.23295 10.2702 8.23295C10.5344 8.23295 10.7731 8.19602 10.9862 8.12216C11.2021 8.04545 11.3881 7.93182 11.5444 7.78125C11.7006 7.62784 11.8214 7.4375 11.9066 7.21023L12.8782 7.48295C12.7759 7.8125 12.604 8.10227 12.3626 8.35227C12.1211 8.59943 11.8228 8.79261 11.4677 8.93182C11.1126 9.06818 10.7134 9.13636 10.2702 9.13636ZM18.9762 11.4545V7.99432H18.891C18.8171 8.11364 18.712 8.2642 18.5756 8.44602C18.4393 8.625 18.2447 8.78551 17.9918 8.92756C17.739 9.06676 17.4023 9.13636 16.9819 9.13636C16.4364 9.13636 15.9549 8.99858 15.5373 8.72301C15.1197 8.4446 14.793 8.05256 14.5572 7.54688C14.3214 7.03835 14.2035 6.4375 14.2035 5.74432C14.2035 5.05682 14.3214 4.46023 14.5572 3.95455C14.793 3.44886 15.1211 3.05824 15.5415 2.78267C15.962 2.5071 16.4478 2.36932 16.9989 2.36932C17.4251 2.36932 17.7617 2.44034 18.0089 2.58239C18.2589 2.72159 18.4492 2.88068 18.5799 3.05966C18.7134 3.2358 18.8171 3.38068 18.891 3.49432H19.0103V2.45455H19.9819V11.4545H18.9762ZM17.1183 8.23295C17.5217 8.23295 17.8626 8.12784 18.141 7.91761C18.4194 7.70455 18.631 7.41051 18.7759 7.03551C18.9208 6.65767 18.9933 6.22159 18.9933 5.72727C18.9933 5.23864 18.9222 4.81108 18.7802 4.4446C18.6381 4.07528 18.4279 3.78835 18.1495 3.58381C17.8711 3.37642 17.5273 3.27273 17.1183 3.27273C16.6921 3.27273 16.337 3.3821 16.0529 3.60085C15.7717 3.81676 15.56 4.1108 15.418 4.48295C15.2788 4.85227 15.2092 5.26705 15.2092 5.72727C15.2092 6.19318 15.2802 6.61648 15.4222 6.99716C15.5671 7.375 15.7802 7.67614 16.0614 7.90057C16.3455 8.12216 16.6978 8.23295 17.1183 8.23295ZM24.5671 9.13636C23.9364 9.13636 23.3924 8.99716 22.935 8.71875C22.4805 8.4375 22.1296 8.04545 21.8825 7.54261C21.6381 7.03693 21.516 6.44886 21.516 5.77841C21.516 5.10795 21.6381 4.51705 21.8825 4.00568C22.1296 3.49148 22.4734 3.09091 22.9137 2.80398C23.3569 2.5142 23.8739 2.36932 24.4648 2.36932C24.8058 2.36932 25.1424 2.42614 25.4748 2.53977C25.8072 2.65341 26.1097 2.83807 26.3825 3.09375C26.6552 3.34659 26.8725 3.68182 27.0344 4.09943C27.1964 4.51705 27.2773 5.03125 27.2773 5.64205V6.06818H22.2319V5.19886H26.2546C26.2546 4.82955 26.1808 4.5 26.033 4.21023C25.8881 3.92045 25.6808 3.69176 25.4109 3.52415C25.1438 3.35653 24.8285 3.27273 24.4648 3.27273C24.0643 3.27273 23.7177 3.37216 23.4251 3.57102C23.1353 3.76705 22.9123 4.02273 22.756 4.33807C22.5998 4.65341 22.5217 4.99148 22.5217 5.35227V5.93182C22.5217 6.42614 22.6069 6.84517 22.7773 7.18892C22.9506 7.52983 23.1907 7.78977 23.4975 7.96875C23.8043 8.14489 24.1609 8.23295 24.5671 8.23295C24.8313 8.23295 25.07 8.19602 25.283 8.12216C25.4989 8.04545 25.685 7.93182 25.8413 7.78125C25.9975 7.62784 26.1183 7.4375 26.2035 7.21023L27.1751 7.48295C27.0728 7.8125 26.9009 8.10227 26.6594 8.35227C26.418 8.59943 26.1197 8.79261 25.7646 8.93182C25.4094 9.06818 25.0103 9.13636 24.5671 9.13636ZM33.4435 3.92045L32.5401 4.17614C32.4833 4.02557 32.3995 3.87926 32.2887 3.73722C32.1808 3.59233 32.033 3.47301 31.8455 3.37926C31.658 3.28551 31.418 3.23864 31.1254 3.23864C30.7248 3.23864 30.391 3.33097 30.1239 3.51562C29.8597 3.69744 29.7276 3.92898 29.7276 4.21023C29.7276 4.46023 29.8185 4.65767 30.0004 4.80256C30.1822 4.94744 30.4663 5.06818 30.8526 5.16477L31.8242 5.40341C32.4094 5.54545 32.8455 5.76278 33.1325 6.0554C33.4194 6.34517 33.5629 6.71875 33.5629 7.17614C33.5629 7.55114 33.4549 7.88636 33.239 8.18182C33.0259 8.47727 32.7276 8.71023 32.3441 8.88068C31.9606 9.05114 31.5146 9.13636 31.006 9.13636C30.3384 9.13636 29.7859 8.99148 29.3484 8.7017C28.9109 8.41193 28.6339 7.98864 28.5174 7.43182L29.4719 7.19318C29.5629 7.54545 29.7347 7.80966 29.9876 7.9858C30.2433 8.16193 30.5771 8.25 30.989 8.25C31.4577 8.25 31.8299 8.15057 32.1055 7.9517C32.3839 7.75 32.5231 7.50852 32.5231 7.22727C32.5231 7 32.4435 6.80966 32.2844 6.65625C32.1254 6.5 31.881 6.38352 31.5515 6.30682L30.4606 6.05114C29.8612 5.90909 29.4208 5.68892 29.1396 5.39062C28.8612 5.08949 28.7219 4.71307 28.7219 4.26136C28.7219 3.89205 28.8256 3.56534 29.033 3.28125C29.2433 2.99716 29.5288 2.77415 29.8896 2.61222C30.2532 2.45028 30.6651 2.36932 31.1254 2.36932C31.7731 2.36932 32.2816 2.51136 32.6509 2.79545C33.0231 3.07955 33.2873 3.45455 33.4435 3.92045ZM37.9233 2.45455V3.30682H34.5312V2.45455H37.9233ZM35.5199 0.886364H36.5256V7.125C36.5256 7.40909 36.5668 7.62216 36.6491 7.7642C36.7344 7.90341 36.8423 7.99716 36.973 8.04545C37.1065 8.09091 37.2472 8.11364 37.3949 8.11364C37.5057 8.11364 37.5966 8.10795 37.6676 8.09659C37.7386 8.08239 37.7955 8.07102 37.8381 8.0625L38.0426 8.96591C37.9744 8.99148 37.8793 9.01705 37.7571 9.04261C37.6349 9.07102 37.4801 9.08523 37.2926 9.08523C37.0085 9.08523 36.7301 9.02415 36.4574 8.90199C36.1875 8.77983 35.9631 8.59375 35.7841 8.34375C35.608 8.09375 35.5199 7.77841 35.5199 7.39773V0.886364Z" fill="white"/>
</svg>
