<svg width="54" height="12" viewBox="0 0 54 12" fill="none" xmlns="http://www.w3.org/2000/svg">
<path d="M0.0568182 9V0.272727H3.00568C3.6875 0.272727 4.24716 0.389204 4.68466 0.622159C5.12216 0.852272 5.44602 1.16903 5.65625 1.57244C5.86648 1.97585 5.97159 2.43466 5.97159 2.94886C5.97159 3.46307 5.86648 3.91903 5.65625 4.31676C5.44602 4.71449 5.12358 5.02699 4.68892 5.25426C4.25426 5.47869 3.69886 5.59091 3.02273 5.59091H0.636364V4.63636H2.98864C3.45455 4.63636 3.82955 4.56818 4.11364 4.43182C4.40057 4.29545 4.60795 4.10227 4.7358 3.85227C4.86648 3.59943 4.93182 3.2983 4.93182 2.94886C4.93182 2.59943 4.86648 2.29403 4.7358 2.03267C4.60511 1.77131 4.39631 1.5696 4.10938 1.42756C3.82244 1.28267 3.44318 1.21023 2.97159 1.21023H1.11364V9H0.0568182ZM4.16477 5.07955L6.3125 9H5.08523L2.97159 5.07955H4.16477ZM10.2702 9.13636C9.63956 9.13636 9.09553 8.99716 8.63814 8.71875C8.18359 8.4375 7.83274 8.04545 7.58558 7.54261C7.34126 7.03693 7.21911 6.44886 7.21911 5.77841C7.21911 5.10795 7.34126 4.51705 7.58558 4.00568C7.83274 3.49148 8.17649 3.09091 8.61683 2.80398C9.06001 2.5142 9.57706 2.36932 10.168 2.36932C10.5089 2.36932 10.8455 2.42614 11.1779 2.53977C11.5103 2.65341 11.8129 2.83807 12.0856 3.09375C12.3583 3.34659 12.5756 3.68182 12.7376 4.09943C12.8995 4.51705 12.9805 5.03125 12.9805 5.64205V6.06818H7.93501V5.19886H11.9577C11.9577 4.82955 11.8839 4.5 11.7362 4.21023C11.5913 3.92045 11.3839 3.69176 11.114 3.52415C10.8469 3.35653 10.5316 3.27273 10.168 3.27273C9.7674 3.27273 9.42081 3.37216 9.1282 3.57102C8.83842 3.76705 8.61541 4.02273 8.45916 4.33807C8.30291 4.65341 8.22479 4.99148 8.22479 5.35227V5.93182C8.22479 6.42614 8.31001 6.84517 8.48047 7.18892C8.65376 7.52983 8.89382 7.78977 9.20064 7.96875C9.50746 8.14489 9.86399 8.23295 10.2702 8.23295C10.5344 8.23295 10.7731 8.19602 10.9862 8.12216C11.2021 8.04545 11.3881 7.93182 11.5444 7.78125C11.7006 7.62784 11.8214 7.4375 11.9066 7.21023L12.8782 7.48295C12.7759 7.8125 12.604 8.10227 12.3626 8.35227C12.1211 8.59943 11.8228 8.79261 11.4677 8.93182C11.1126 9.06818 10.7134 9.13636 10.2702 9.13636ZM19.1467 3.92045L18.2433 4.17614C18.1864 4.02557 18.1026 3.87926 17.9918 3.73722C17.8839 3.59233 17.7362 3.47301 17.5487 3.37926C17.3612 3.28551 17.1211 3.23864 16.8285 3.23864C16.4279 3.23864 16.0941 3.33097 15.8271 3.51562C15.5629 3.69744 15.4308 3.92898 15.4308 4.21023C15.4308 4.46023 15.5217 4.65767 15.7035 4.80256C15.8853 4.94744 16.1694 5.06818 16.5558 5.16477L17.5273 5.40341C18.1126 5.54545 18.5487 5.76278 18.8356 6.0554C19.1225 6.34517 19.266 6.71875 19.266 7.17614C19.266 7.55114 19.158 7.88636 18.9421 8.18182C18.729 8.47727 18.4308 8.71023 18.0472 8.88068C17.6637 9.05114 17.2177 9.13636 16.7092 9.13636C16.0415 9.13636 15.489 8.99148 15.0515 8.7017C14.614 8.41193 14.337 7.98864 14.2205 7.43182L15.1751 7.19318C15.266 7.54545 15.4379 7.80966 15.6907 7.9858C15.9464 8.16193 16.2802 8.25 16.6921 8.25C17.1609 8.25 17.533 8.15057 17.8086 7.9517C18.087 7.75 18.2262 7.50852 18.2262 7.22727C18.2262 7 18.1467 6.80966 17.9876 6.65625C17.8285 6.5 17.5842 6.38352 17.2546 6.30682L16.1637 6.05114C15.5643 5.90909 15.1239 5.68892 14.8427 5.39062C14.5643 5.08949 14.4251 4.71307 14.4251 4.26136C14.4251 3.89205 14.5288 3.56534 14.7362 3.28125C14.9464 2.99716 15.2319 2.77415 15.5927 2.61222C15.9563 2.45028 16.3683 2.36932 16.8285 2.36932C17.4762 2.36932 17.9847 2.51136 18.354 2.79545C18.7262 3.07955 18.9904 3.45455 19.1467 3.92045ZM20.7798 11.4545V2.45455H21.7514V3.49432H21.8707C21.9446 3.38068 22.0469 3.2358 22.1776 3.05966C22.3111 2.88068 22.5014 2.72159 22.7486 2.58239C22.9986 2.44034 23.3366 2.36932 23.7628 2.36932C24.3139 2.36932 24.7997 2.5071 25.2202 2.78267C25.6406 3.05824 25.9688 3.44886 26.2045 3.95455C26.4403 4.46023 26.5582 5.05682 26.5582 5.74432C26.5582 6.4375 26.4403 7.03835 26.2045 7.54688C25.9688 8.05256 25.642 8.4446 25.2244 8.72301C24.8068 8.99858 24.3253 9.13636 23.7798 9.13636C23.3594 9.13636 23.0227 9.06676 22.7699 8.92756C22.517 8.78551 22.3224 8.625 22.1861 8.44602C22.0497 8.2642 21.9446 8.11364 21.8707 7.99432H21.7855V11.4545H20.7798ZM21.7685 5.72727C21.7685 6.22159 21.8409 6.65767 21.9858 7.03551C22.1307 7.41051 22.3423 7.70455 22.6207 7.91761C22.8991 8.12784 23.2401 8.23295 23.6435 8.23295C24.0639 8.23295 24.4148 8.12216 24.696 7.90057C24.9801 7.67614 25.1932 7.375 25.3352 6.99716C25.4801 6.61648 25.5526 6.19318 25.5526 5.72727C25.5526 5.26705 25.4815 4.85227 25.3395 4.48295C25.2003 4.1108 24.9886 3.81676 24.7045 3.60085C24.4233 3.3821 24.0696 3.27273 23.6435 3.27273C23.2344 3.27273 22.8906 3.37642 22.6122 3.58381C22.3338 3.78835 22.1236 4.07528 21.9815 4.4446C21.8395 4.81108 21.7685 5.23864 21.7685 5.72727ZM30.7514 9.13636C30.1605 9.13636 29.642 8.99574 29.196 8.71449C28.7528 8.43324 28.4062 8.03977 28.1562 7.53409C27.9091 7.02841 27.7855 6.4375 27.7855 5.76136C27.7855 5.07955 27.9091 4.48437 28.1562 3.97585C28.4062 3.46733 28.7528 3.07244 29.196 2.79119C29.642 2.50994 30.1605 2.36932 30.7514 2.36932C31.3423 2.36932 31.8594 2.50994 32.3026 2.79119C32.7486 3.07244 33.0952 3.46733 33.3423 3.97585C33.5923 4.48437 33.7173 5.07955 33.7173 5.76136C33.7173 6.4375 33.5923 7.02841 33.3423 7.53409C33.0952 8.03977 32.7486 8.43324 32.3026 8.71449C31.8594 8.99574 31.3423 9.13636 30.7514 9.13636ZM30.7514 8.23295C31.2003 8.23295 31.5696 8.1179 31.8594 7.88778C32.1491 7.65767 32.3636 7.35511 32.5028 6.98011C32.642 6.60511 32.7116 6.19886 32.7116 5.76136C32.7116 5.32386 32.642 4.91619 32.5028 4.53835C32.3636 4.16051 32.1491 3.85511 31.8594 3.62216C31.5696 3.3892 31.2003 3.27273 30.7514 3.27273C30.3026 3.27273 29.9332 3.3892 29.6435 3.62216C29.3537 3.85511 29.1392 4.16051 29 4.53835C28.8608 4.91619 28.7912 5.32386 28.7912 5.76136C28.7912 6.19886 28.8608 6.60511 29 6.98011C29.1392 7.35511 29.3537 7.65767 29.6435 7.88778C29.9332 8.1179 30.3026 8.23295 30.7514 8.23295ZM36.2582 5.0625V9H35.2525V2.45455H36.2241V3.47727H36.3093C36.4627 3.14489 36.6957 2.87784 37.0082 2.67614C37.3207 2.47159 37.7241 2.36932 38.2184 2.36932C38.6616 2.36932 39.0494 2.46023 39.3817 2.64205C39.7141 2.82102 39.9727 3.09375 40.1573 3.46023C40.342 3.82386 40.4343 4.28409 40.4343 4.84091V9H39.4286V4.90909C39.4286 4.39489 39.2951 3.99432 39.0281 3.70739C38.761 3.41761 38.3945 3.27273 37.9286 3.27273C37.6076 3.27273 37.3207 3.34233 37.0678 3.48153C36.8178 3.62074 36.6204 3.82386 36.4755 4.09091C36.3306 4.35795 36.2582 4.68182 36.2582 5.0625ZM46.9084 3.92045L46.005 4.17614C45.9482 4.02557 45.8643 3.87926 45.7536 3.73722C45.6456 3.59233 45.4979 3.47301 45.3104 3.37926C45.1229 3.28551 44.8828 3.23864 44.5902 3.23864C44.1896 3.23864 43.8558 3.33097 43.5888 3.51562C43.3246 3.69744 43.1925 3.92898 43.1925 4.21023C43.1925 4.46023 43.2834 4.65767 43.4652 4.80256C43.647 4.94744 43.9311 5.06818 44.3175 5.16477L45.2891 5.40341C45.8743 5.54545 46.3104 5.76278 46.5973 6.0554C46.8842 6.34517 47.0277 6.71875 47.0277 7.17614C47.0277 7.55114 46.9197 7.88636 46.7038 8.18182C46.4908 8.47727 46.1925 8.71023 45.8089 8.88068C45.4254 9.05114 44.9794 9.13636 44.4709 9.13636C43.8033 9.13636 43.2507 8.99148 42.8132 8.7017C42.3757 8.41193 42.0987 7.98864 41.9822 7.43182L42.9368 7.19318C43.0277 7.54545 43.1996 7.80966 43.4524 7.9858C43.7081 8.16193 44.0419 8.25 44.4538 8.25C44.9226 8.25 45.2947 8.15057 45.5703 7.9517C45.8487 7.75 45.9879 7.50852 45.9879 7.22727C45.9879 7 45.9084 6.80966 45.7493 6.65625C45.5902 6.5 45.3459 6.38352 45.0163 6.30682L43.9254 6.05114C43.326 5.90909 42.8857 5.68892 42.6044 5.39062C42.326 5.08949 42.1868 4.71307 42.1868 4.26136C42.1868 3.89205 42.2905 3.56534 42.4979 3.28125C42.7081 2.99716 42.9936 2.77415 43.3544 2.61222C43.718 2.45028 44.13 2.36932 44.5902 2.36932C45.2379 2.36932 45.7464 2.51136 46.1158 2.79545C46.4879 3.07955 46.7521 3.45455 46.9084 3.92045ZM51.2859 9.13636C50.6552 9.13636 50.1112 8.99716 49.6538 8.71875C49.1992 8.4375 48.8484 8.04545 48.6012 7.54261C48.3569 7.03693 48.2347 6.44886 48.2347 5.77841C48.2347 5.10795 48.3569 4.51705 48.6012 4.00568C48.8484 3.49148 49.1921 3.09091 49.6325 2.80398C50.0756 2.5142 50.5927 2.36932 51.1836 2.36932C51.5245 2.36932 51.8612 2.42614 52.1935 2.53977C52.5259 2.65341 52.8285 2.83807 53.1012 3.09375C53.3739 3.34659 53.5913 3.68182 53.7532 4.09943C53.9151 4.51705 53.9961 5.03125 53.9961 5.64205V6.06818H48.9506V5.19886H52.9734C52.9734 4.82955 52.8995 4.5 52.7518 4.21023C52.6069 3.92045 52.3995 3.69176 52.1296 3.52415C51.8626 3.35653 51.5472 3.27273 51.1836 3.27273C50.783 3.27273 50.4364 3.37216 50.1438 3.57102C49.854 3.76705 49.631 4.02273 49.4748 4.33807C49.3185 4.65341 49.2404 4.99148 49.2404 5.35227V5.93182C49.2404 6.42614 49.3256 6.84517 49.4961 7.18892C49.6694 7.52983 49.9094 7.78977 50.2163 7.96875C50.5231 8.14489 50.8796 8.23295 51.2859 8.23295C51.5501 8.23295 51.7887 8.19602 52.0018 8.12216C52.2177 8.04545 52.4038 7.93182 52.56 7.78125C52.7163 7.62784 52.837 7.4375 52.9222 7.21023L53.8938 7.48295C53.7915 7.8125 53.6197 8.10227 53.3782 8.35227C53.1367 8.59943 52.8384 8.79261 52.4833 8.93182C52.1282 9.06818 51.729 9.13636 51.2859 9.13636Z" fill="white"/>
</svg>
