<svg width="61" height="10" viewBox="0 0 61 10" fill="none" xmlns="http://www.w3.org/2000/svg">
<path d="M2.64205 9L0.255682 0.272727H1.32955L3.15341 7.38068H3.23864L5.09659 0.272727H6.28977L8.14773 7.38068H8.23295L10.0568 0.272727H11.1307L8.74432 9H7.65341L5.72727 2.04545H5.65909L3.73295 9H2.64205ZM14.446 9.13636C13.8153 9.13636 13.2713 8.99716 12.8139 8.71875C12.3594 8.4375 12.0085 8.04545 11.7614 7.54261C11.517 7.03693 11.3949 6.44886 11.3949 5.77841C11.3949 5.10795 11.517 4.51705 11.7614 4.00568C12.0085 3.49148 12.3523 3.09091 12.7926 2.80398C13.2358 2.5142 13.7528 2.36932 14.3438 2.36932C14.6847 2.36932 15.0213 2.42614 15.3537 2.53977C15.6861 2.65341 15.9886 2.83807 16.2614 3.09375C16.5341 3.34659 16.7514 3.68182 16.9134 4.09943C17.0753 4.51705 17.1562 5.03125 17.1562 5.64205V6.06818H12.1108V5.19886H16.1335C16.1335 4.82955 16.0597 4.5 15.9119 4.21023C15.767 3.92045 15.5597 3.69176 15.2898 3.52415C15.0227 3.35653 14.7074 3.27273 14.3438 3.27273C13.9432 3.27273 13.5966 3.37216 13.304 3.57102C13.0142 3.76705 12.7912 4.02273 12.6349 4.33807C12.4787 4.65341 12.4006 4.99148 12.4006 5.35227V5.93182C12.4006 6.42614 12.4858 6.84517 12.6562 7.18892C12.8295 7.52983 13.0696 7.78977 13.3764 7.96875C13.6832 8.14489 14.0398 8.23295 14.446 8.23295C14.7102 8.23295 14.9489 8.19602 15.1619 8.12216C15.3778 8.04545 15.5639 7.93182 15.7202 7.78125C15.8764 7.62784 15.9972 7.4375 16.0824 7.21023L17.054 7.48295C16.9517 7.8125 16.7798 8.10227 16.5384 8.35227C16.2969 8.59943 15.9986 8.79261 15.6435 8.93182C15.2884 9.06818 14.8892 9.13636 14.446 9.13636ZM18.8224 9V0.272727H19.8281V3.49432H19.9134C19.9872 3.38068 20.0895 3.2358 20.2202 3.05966C20.3537 2.88068 20.544 2.72159 20.7912 2.58239C21.0412 2.44034 21.3793 2.36932 21.8054 2.36932C22.3565 2.36932 22.8423 2.5071 23.2628 2.78267C23.6832 3.05824 24.0114 3.44886 24.2472 3.95455C24.483 4.46023 24.6009 5.05682 24.6009 5.74432C24.6009 6.4375 24.483 7.03835 24.2472 7.54688C24.0114 8.05256 23.6847 8.4446 23.267 8.72301C22.8494 8.99858 22.3679 9.13636 21.8224 9.13636C21.402 9.13636 21.0653 9.06676 20.8125 8.92756C20.5597 8.78551 20.3651 8.625 20.2287 8.44602C20.0923 8.2642 19.9872 8.11364 19.9134 7.99432H19.794V9H18.8224ZM19.8111 5.72727C19.8111 6.22159 19.8835 6.65767 20.0284 7.03551C20.1733 7.41051 20.3849 7.70455 20.6634 7.91761C20.9418 8.12784 21.2827 8.23295 21.6861 8.23295C22.1065 8.23295 22.4574 8.12216 22.7386 7.90057C23.0227 7.67614 23.2358 7.375 23.3778 6.99716C23.5227 6.61648 23.5952 6.19318 23.5952 5.72727C23.5952 5.26705 23.5241 4.85227 23.3821 4.48295C23.2429 4.1108 23.0313 3.81676 22.7472 3.60085C22.4659 3.3821 22.1122 3.27273 21.6861 3.27273C21.277 3.27273 20.9332 3.37642 20.6548 3.58381C20.3764 3.78835 20.1662 4.07528 20.0241 4.4446C19.8821 4.81108 19.8111 5.23864 19.8111 5.72727ZM30.7756 3.92045L29.8722 4.17614C29.8153 4.02557 29.7315 3.87926 29.6207 3.73722C29.5128 3.59233 29.3651 3.47301 29.1776 3.37926C28.9901 3.28551 28.75 3.23864 28.4574 3.23864C28.0568 3.23864 27.723 3.33097 27.456 3.51562C27.1918 3.69744 27.0597 3.92898 27.0597 4.21023C27.0597 4.46023 27.1506 4.65767 27.3324 4.80256C27.5142 4.94744 27.7983 5.06818 28.1847 5.16477L29.1562 5.40341C29.7415 5.54545 30.1776 5.76278 30.4645 6.0554C30.7514 6.34517 30.8949 6.71875 30.8949 7.17614C30.8949 7.55114 30.7869 7.88636 30.571 8.18182C30.358 8.47727 30.0597 8.71023 29.6761 8.88068C29.2926 9.05114 28.8466 9.13636 28.3381 9.13636C27.6705 9.13636 27.1179 8.99148 26.6804 8.7017C26.2429 8.41193 25.9659 7.98864 25.8494 7.43182L26.804 7.19318C26.8949 7.54545 27.0668 7.80966 27.3196 7.9858C27.5753 8.16193 27.9091 8.25 28.321 8.25C28.7898 8.25 29.1619 8.15057 29.4375 7.9517C29.7159 7.75 29.8551 7.50852 29.8551 7.22727C29.8551 7 29.7756 6.80966 29.6165 6.65625C29.4574 6.5 29.2131 6.38352 28.8835 6.30682L27.7926 6.05114C27.1932 5.90909 26.7528 5.68892 26.4716 5.39062C26.1932 5.08949 26.054 4.71307 26.054 4.26136C26.054 3.89205 26.1577 3.56534 26.3651 3.28125C26.5753 2.99716 26.8608 2.77415 27.2216 2.61222C27.5852 2.45028 27.9972 2.36932 28.4574 2.36932C29.1051 2.36932 29.6136 2.51136 29.983 2.79545C30.3551 3.07955 30.6193 3.45455 30.7756 3.92045ZM35.1531 9.13636C34.5224 9.13636 33.9783 8.99716 33.521 8.71875C33.0664 8.4375 32.7156 8.04545 32.4684 7.54261C32.2241 7.03693 32.1019 6.44886 32.1019 5.77841C32.1019 5.10795 32.2241 4.51705 32.4684 4.00568C32.7156 3.49148 33.0593 3.09091 33.4996 2.80398C33.9428 2.5142 34.4599 2.36932 35.0508 2.36932C35.3917 2.36932 35.7283 2.42614 36.0607 2.53977C36.3931 2.65341 36.6957 2.83807 36.9684 3.09375C37.2411 3.34659 37.4585 3.68182 37.6204 4.09943C37.7823 4.51705 37.8633 5.03125 37.8633 5.64205V6.06818H32.8178V5.19886H36.8406C36.8406 4.82955 36.7667 4.5 36.619 4.21023C36.4741 3.92045 36.2667 3.69176 35.9968 3.52415C35.7298 3.35653 35.4144 3.27273 35.0508 3.27273C34.6502 3.27273 34.3036 3.37216 34.011 3.57102C33.7212 3.76705 33.4982 4.02273 33.342 4.33807C33.1857 4.65341 33.1076 4.99148 33.1076 5.35227V5.93182C33.1076 6.42614 33.1928 6.84517 33.3633 7.18892C33.5366 7.52983 33.7766 7.78977 34.0835 7.96875C34.3903 8.14489 34.7468 8.23295 35.1531 8.23295C35.4173 8.23295 35.6559 8.19602 35.869 8.12216C36.0849 8.04545 36.271 7.93182 36.4272 7.78125C36.5835 7.62784 36.7042 7.4375 36.7894 7.21023L37.761 7.48295C37.6587 7.8125 37.4869 8.10227 37.2454 8.35227C37.0039 8.59943 36.7056 8.79261 36.3505 8.93182C35.9954 9.06818 35.5962 9.13636 35.1531 9.13636ZM39.3931 9V2.45455H40.3647V3.44318H40.4329C40.5522 3.11932 40.7681 2.85653 41.0806 2.65483C41.3931 2.45312 41.7454 2.35227 42.1374 2.35227C42.2113 2.35227 42.3036 2.35369 42.4144 2.35653C42.5252 2.35937 42.609 2.36364 42.6658 2.36932V3.39205C42.6317 3.38352 42.5536 3.37074 42.4315 3.35369C42.3121 3.33381 42.1857 3.32386 42.0522 3.32386C41.734 3.32386 41.4499 3.39062 41.1999 3.52415C40.9528 3.65483 40.7567 3.83665 40.6119 4.0696C40.4698 4.29972 40.3988 4.5625 40.3988 4.85795V9H39.3931ZM49.4094 2.45455L46.989 9H45.9663L43.5458 2.45455H44.6367L46.4435 7.67045H46.5117L48.3185 2.45455H49.4094ZM53.2468 9.13636C52.6161 9.13636 52.0721 8.99716 51.6147 8.71875C51.1602 8.4375 50.8093 8.04545 50.5621 7.54261C50.3178 7.03693 50.1957 6.44886 50.1957 5.77841C50.1957 5.10795 50.3178 4.51705 50.5621 4.00568C50.8093 3.49148 51.1531 3.09091 51.5934 2.80398C52.0366 2.5142 52.5536 2.36932 53.1445 2.36932C53.4854 2.36932 53.8221 2.42614 54.1545 2.53977C54.4869 2.65341 54.7894 2.83807 55.0621 3.09375C55.3349 3.34659 55.5522 3.68182 55.7141 4.09943C55.8761 4.51705 55.957 5.03125 55.957 5.64205V6.06818H50.9116V5.19886H54.9343C54.9343 4.82955 54.8604 4.5 54.7127 4.21023C54.5678 3.92045 54.3604 3.69176 54.0906 3.52415C53.8235 3.35653 53.5082 3.27273 53.1445 3.27273C52.744 3.27273 52.3974 3.37216 52.1048 3.57102C51.815 3.76705 51.592 4.02273 51.4357 4.33807C51.2795 4.65341 51.2013 4.99148 51.2013 5.35227V5.93182C51.2013 6.42614 51.2866 6.84517 51.457 7.18892C51.6303 7.52983 51.8704 7.78977 52.1772 7.96875C52.484 8.14489 52.8406 8.23295 53.2468 8.23295C53.511 8.23295 53.7496 8.19602 53.9627 8.12216C54.1786 8.04545 54.3647 7.93182 54.521 7.78125C54.6772 7.62784 54.7979 7.4375 54.8832 7.21023L55.8548 7.48295C55.7525 7.8125 55.5806 8.10227 55.3391 8.35227C55.0977 8.59943 54.7994 8.79261 54.4442 8.93182C54.0891 9.06818 53.69 9.13636 53.2468 9.13636ZM57.4869 9V2.45455H58.4585V3.44318H58.5266C58.646 3.11932 58.8619 2.85653 59.1744 2.65483C59.4869 2.45312 59.8391 2.35227 60.2312 2.35227C60.305 2.35227 60.3974 2.35369 60.5082 2.35653C60.619 2.35937 60.7028 2.36364 60.7596 2.36932V3.39205C60.7255 3.38352 60.6474 3.37074 60.5252 3.35369C60.4059 3.33381 60.2795 3.32386 60.146 3.32386C59.8278 3.32386 59.5437 3.39062 59.2937 3.52415C59.0465 3.65483 58.8505 3.83665 58.7056 4.0696C58.5636 4.29972 58.4925 4.5625 58.4925 4.85795V9H57.4869Z" fill="white"/>
</svg>
